<?xml version="1.0" encoding="utf-8" standalone="no"?>
<!DOCTYPE svg PUBLIC "-//W3C//DTD SVG 1.1//EN"
  "http://www.w3.org/Graphics/SVG/1.1/DTD/svg11.dtd">
<svg xmlns:xlink="http://www.w3.org/1999/xlink" width="402.083406pt" height="401.421406pt" viewBox="0 0 402.083406 401.421406" xmlns="http://www.w3.org/2000/svg" version="1.1">
 <metadata>
  <rdf:RDF xmlns:dc="http://purl.org/dc/elements/1.1/" xmlns:cc="http://creativecommons.org/ns#" xmlns:rdf="http://www.w3.org/1999/02/22-rdf-syntax-ns#">
   <cc:Work>
    <dc:type rdf:resource="http://purl.org/dc/dcmitype/StillImage"/>
    <dc:date>2026-05-05T20:13:37.813813</dc:date>
    <dc:format>image/svg+xml</dc:format>
    <dc:creator>
     <cc:Agent>
      <dc:title>Matplotlib v3.10.7, https://matplotlib.org/</dc:title>
     </cc:Agent>
    </dc:creator>
   </cc:Work>
  </rdf:RDF>
 </metadata>
 <defs>
  <style type="text/css">*{stroke-linejoin: round; stroke-linecap: butt}</style>
 </defs>
 <g id="figure_1">
  <g id="patch_1">
   <path d="M 0 401.421406 
L 402.083406 401.421406 
L 402.083406 0 
L 0 0 
z
" style="fill: #ffffff"/>
  </g>
  <g id="axes_1">
   <g id="patch_2">
    <path d="M 39.948906 361.990156 
L 372.588906 361.990156 
L 372.588906 29.350156 
L 39.948906 29.350156 
z
" style="fill: #ffffff"/>
   </g>
   <g id="matplotlib.axis_1">
    <g id="xtick_1">
     <g id="line2d_1">
      <path d="M 39.948906 361.990156 
L 39.948906 29.350156 
" clip-path="url(#pf763842c86)" style="fill: none; stroke-dasharray: 0.8,1.32; stroke-dashoffset: 0; stroke: #b0b0b0; stroke-opacity: 0.5; stroke-width: 0.8"/>
     </g>
     <g id="line2d_2">
      <defs>
       <path id="mf9f6aab9d6" d="M 0 0 
L 0 3.5 
" style="stroke: #000000; stroke-width: 0.8"/>
      </defs>
      <g>
       <use xlink:href="#mf9f6aab9d6" x="39.948906" y="361.990156" style="stroke: #000000; stroke-width: 0.8"/>
      </g>
     </g>
     <g id="text_1">
      <!-- -4 -->
      <g transform="translate(35.144219 376.582344) scale(0.1 -0.1)">
       <defs>
        <path id="MalgunGothic-2d" d="M 2213 1634 
L 463 1634 
L 463 2031 
L 2213 2031 
L 2213 1634 
z
" transform="scale(0.015625)"/>
        <path id="MalgunGothic-34" d="M 2703 4600 
L 2703 1563 
L 3309 1563 
L 3309 1113 
L 2703 1113 
L 2703 0 
L 2213 0 
L 2213 1113 
L 50 1113 
L 50 1534 
Q 728 2297 1295 3109 
Q 1863 3922 2172 4600 
L 2703 4600 
z
M 625 1563 
L 2213 1563 
L 2213 3831 
Q 1613 2788 959 1981 
L 625 1563 
z
" transform="scale(0.015625)"/>
       </defs>
       <use xlink:href="#MalgunGothic-2d"/>
       <use xlink:href="#MalgunGothic-34" transform="translate(41.015625 0)"/>
      </g>
     </g>
    </g>
    <g id="xtick_2">
     <g id="line2d_3">
      <path d="M 81.528906 361.990156 
L 81.528906 29.350156 
" clip-path="url(#pf763842c86)" style="fill: none; stroke-dasharray: 0.8,1.32; stroke-dashoffset: 0; stroke: #b0b0b0; stroke-opacity: 0.5; stroke-width: 0.8"/>
     </g>
     <g id="line2d_4">
      <g>
       <use xlink:href="#mf9f6aab9d6" x="81.528906" y="361.990156" style="stroke: #000000; stroke-width: 0.8"/>
      </g>
     </g>
     <g id="text_2">
      <!-- -3 -->
      <g transform="translate(76.724219 376.582344) scale(0.1 -0.1)">
       <defs>
        <path id="MalgunGothic-33" d="M 416 719 
Q 891 344 1478 344 
Q 1959 344 2254 587 
Q 2550 831 2550 1247 
Q 2550 2169 1253 2169 
L 872 2169 
L 872 2591 
L 1234 2591 
Q 2388 2591 2388 3453 
Q 2388 4250 1509 4250 
Q 1022 4250 594 3916 
L 594 4413 
Q 1031 4675 1634 4675 
Q 2184 4675 2539 4372 
Q 2894 4069 2894 3581 
Q 2894 2678 1972 2409 
L 1972 2400 
Q 2469 2356 2764 2053 
Q 3059 1750 3059 1300 
Q 3059 672 2604 297 
Q 2150 -78 1450 -78 
Q 806 -78 416 169 
L 416 719 
z
" transform="scale(0.015625)"/>
       </defs>
       <use xlink:href="#MalgunGothic-2d"/>
       <use xlink:href="#MalgunGothic-33" transform="translate(41.015625 0)"/>
      </g>
     </g>
    </g>
    <g id="xtick_3">
     <g id="line2d_5">
      <path d="M 123.108906 361.990156 
L 123.108906 29.350156 
" clip-path="url(#pf763842c86)" style="fill: none; stroke-dasharray: 0.8,1.32; stroke-dashoffset: 0; stroke: #b0b0b0; stroke-opacity: 0.5; stroke-width: 0.8"/>
     </g>
     <g id="line2d_6">
      <g>
       <use xlink:href="#mf9f6aab9d6" x="123.108906" y="361.990156" style="stroke: #000000; stroke-width: 0.8"/>
      </g>
     </g>
     <g id="text_3">
      <!-- -2 -->
      <g transform="translate(118.304219 376.582344) scale(0.1 -0.1)">
       <defs>
        <path id="MalgunGothic-32" d="M 2519 3372 
Q 2519 3784 2275 4018 
Q 2031 4253 1628 4253 
Q 1341 4253 1053 4104 
Q 766 3956 534 3697 
L 534 4234 
Q 981 4675 1691 4675 
Q 2281 4675 2642 4334 
Q 3003 3994 3003 3416 
Q 3003 2919 2772 2545 
Q 2541 2172 1984 1775 
Q 1459 1406 1254 1215 
Q 1050 1025 967 854 
Q 884 684 884 450 
L 3116 450 
L 3116 0 
L 356 0 
L 356 225 
Q 356 603 461 870 
Q 566 1138 811 1392 
Q 1056 1647 1597 2022 
Q 2091 2363 2305 2670 
Q 2519 2978 2519 3372 
z
" transform="scale(0.015625)"/>
       </defs>
       <use xlink:href="#MalgunGothic-2d"/>
       <use xlink:href="#MalgunGothic-32" transform="translate(41.015625 0)"/>
      </g>
     </g>
    </g>
    <g id="xtick_4">
     <g id="line2d_7">
      <path d="M 164.688906 361.990156 
L 164.688906 29.350156 
" clip-path="url(#pf763842c86)" style="fill: none; stroke-dasharray: 0.8,1.32; stroke-dashoffset: 0; stroke: #b0b0b0; stroke-opacity: 0.5; stroke-width: 0.8"/>
     </g>
     <g id="line2d_8">
      <g>
       <use xlink:href="#mf9f6aab9d6" x="164.688906" y="361.990156" style="stroke: #000000; stroke-width: 0.8"/>
      </g>
     </g>
     <g id="text_4">
      <!-- -1 -->
      <g transform="translate(159.884219 376.582344) scale(0.1 -0.1)">
       <defs>
        <path id="MalgunGothic-31" d="M 2231 0 
L 1734 0 
L 1734 3972 
Q 1591 3828 1266 3661 
Q 941 3494 672 3428 
L 672 3959 
Q 1016 4056 1409 4275 
Q 1803 4494 2031 4700 
L 2231 4700 
L 2231 0 
z
" transform="scale(0.015625)"/>
       </defs>
       <use xlink:href="#MalgunGothic-2d"/>
       <use xlink:href="#MalgunGothic-31" transform="translate(41.015625 0)"/>
      </g>
     </g>
    </g>
    <g id="xtick_5">
     <g id="line2d_9">
      <path d="M 206.268906 361.990156 
L 206.268906 29.350156 
" clip-path="url(#pf763842c86)" style="fill: none; stroke-dasharray: 0.8,1.32; stroke-dashoffset: 0; stroke: #b0b0b0; stroke-opacity: 0.5; stroke-width: 0.8"/>
     </g>
     <g id="line2d_10">
      <g>
       <use xlink:href="#mf9f6aab9d6" x="206.268906" y="361.990156" style="stroke: #000000; stroke-width: 0.8"/>
      </g>
     </g>
     <g id="text_5">
      <!-- 0 -->
      <g transform="translate(203.515 376.582344) scale(0.1 -0.1)">
       <defs>
        <path id="MalgunGothic-30" d="M 278 2206 
Q 278 3425 675 4050 
Q 1072 4675 1819 4675 
Q 3253 4675 3253 2319 
Q 3253 1156 2854 539 
Q 2456 -78 1716 -78 
Q 1016 -78 647 520 
Q 278 1119 278 2206 
z
M 784 2231 
Q 784 344 1769 344 
Q 2747 344 2747 2259 
Q 2747 4250 1794 4250 
Q 784 4250 784 2231 
z
" transform="scale(0.015625)"/>
       </defs>
       <use xlink:href="#MalgunGothic-30"/>
      </g>
     </g>
    </g>
    <g id="xtick_6">
     <g id="line2d_11">
      <path d="M 247.848906 361.990156 
L 247.848906 29.350156 
" clip-path="url(#pf763842c86)" style="fill: none; stroke-dasharray: 0.8,1.32; stroke-dashoffset: 0; stroke: #b0b0b0; stroke-opacity: 0.5; stroke-width: 0.8"/>
     </g>
     <g id="line2d_12">
      <g>
       <use xlink:href="#mf9f6aab9d6" x="247.848906" y="361.990156" style="stroke: #000000; stroke-width: 0.8"/>
      </g>
     </g>
     <g id="text_6">
      <!-- 1 -->
      <g transform="translate(245.095 376.582344) scale(0.1 -0.1)">
       <use xlink:href="#MalgunGothic-31"/>
      </g>
     </g>
    </g>
    <g id="xtick_7">
     <g id="line2d_13">
      <path d="M 289.428906 361.990156 
L 289.428906 29.350156 
" clip-path="url(#pf763842c86)" style="fill: none; stroke-dasharray: 0.8,1.32; stroke-dashoffset: 0; stroke: #b0b0b0; stroke-opacity: 0.5; stroke-width: 0.8"/>
     </g>
     <g id="line2d_14">
      <g>
       <use xlink:href="#mf9f6aab9d6" x="289.428906" y="361.990156" style="stroke: #000000; stroke-width: 0.8"/>
      </g>
     </g>
     <g id="text_7">
      <!-- 2 -->
      <g transform="translate(286.675 376.582344) scale(0.1 -0.1)">
       <use xlink:href="#MalgunGothic-32"/>
      </g>
     </g>
    </g>
    <g id="xtick_8">
     <g id="line2d_15">
      <path d="M 331.008906 361.990156 
L 331.008906 29.350156 
" clip-path="url(#pf763842c86)" style="fill: none; stroke-dasharray: 0.8,1.32; stroke-dashoffset: 0; stroke: #b0b0b0; stroke-opacity: 0.5; stroke-width: 0.8"/>
     </g>
     <g id="line2d_16">
      <g>
       <use xlink:href="#mf9f6aab9d6" x="331.008906" y="361.990156" style="stroke: #000000; stroke-width: 0.8"/>
      </g>
     </g>
     <g id="text_8">
      <!-- 3 -->
      <g transform="translate(328.255 376.582344) scale(0.1 -0.1)">
       <use xlink:href="#MalgunGothic-33"/>
      </g>
     </g>
    </g>
    <g id="xtick_9">
     <g id="line2d_17">
      <path d="M 372.588906 361.990156 
L 372.588906 29.350156 
" clip-path="url(#pf763842c86)" style="fill: none; stroke-dasharray: 0.8,1.32; stroke-dashoffset: 0; stroke: #b0b0b0; stroke-opacity: 0.5; stroke-width: 0.8"/>
     </g>
     <g id="line2d_18">
      <g>
       <use xlink:href="#mf9f6aab9d6" x="372.588906" y="361.990156" style="stroke: #000000; stroke-width: 0.8"/>
      </g>
     </g>
     <g id="text_9">
      <!-- 4 -->
      <g transform="translate(369.835 376.582344) scale(0.1 -0.1)">
       <use xlink:href="#MalgunGothic-34"/>
      </g>
     </g>
    </g>
    <g id="text_10">
     <!-- Real (실수축) -->
     <g transform="translate(174.137734 391.620937) scale(0.11 -0.11)">
      <defs>
       <path id="MalgunGothic-52" d="M 3866 0 
L 3259 0 
L 2488 1294 
Q 2241 1706 2044 1837 
Q 1847 1969 1569 1969 
L 1113 1969 
L 1113 0 
L 609 0 
L 609 4600 
L 1963 4600 
Q 2597 4600 2970 4272 
Q 3344 3944 3344 3375 
Q 3344 2422 2325 2138 
L 2325 2125 
Q 2519 2041 2645 1902 
Q 2772 1763 3006 1381 
L 3866 0 
z
M 1113 4128 
L 1113 2438 
L 1866 2438 
Q 2291 2438 2552 2686 
Q 2813 2934 2813 3334 
Q 2813 3709 2570 3918 
Q 2328 4128 1872 4128 
L 1113 4128 
z
" transform="scale(0.015625)"/>
       <path id="MalgunGothic-65" d="M 3156 1519 
L 828 1519 
Q 844 950 1133 648 
Q 1422 347 1909 347 
Q 2472 347 2934 719 
L 2934 244 
Q 2494 -78 1794 -78 
Q 1100 -78 708 376 
Q 316 831 316 1634 
Q 316 2381 747 2870 
Q 1178 3359 1816 3359 
Q 2453 3359 2804 2942 
Q 3156 2525 3156 1788 
L 3156 1519 
z
M 2644 1956 
Q 2644 2416 2423 2675 
Q 2203 2934 1809 2934 
Q 1438 2934 1169 2667 
Q 900 2400 834 1956 
L 2644 1956 
z
" transform="scale(0.015625)"/>
       <path id="MalgunGothic-61" d="M 616 3050 
Q 1097 3359 1722 3359 
Q 2866 3359 2866 2147 
L 2866 0 
L 2369 0 
L 2369 516 
L 2350 516 
Q 2009 -78 1341 -78 
Q 859 -78 576 180 
Q 294 438 294 869 
Q 294 1784 1375 1934 
L 2366 2078 
Q 2366 2934 1684 2934 
Q 1084 2934 616 2525 
L 616 3050 
z
M 1563 1559 
Q 1178 1509 993 1371 
Q 809 1234 809 903 
Q 809 653 986 500 
Q 1163 347 1450 347 
Q 1847 347 2106 628 
Q 2366 909 2366 1334 
L 2366 1666 
L 1563 1559 
z
" transform="scale(0.015625)"/>
       <path id="MalgunGothic-6c" d="M 541 0 
L 541 4859 
L 1034 4859 
L 1034 0 
L 541 0 
z
" transform="scale(0.015625)"/>
       <path id="MalgunGothic-20" transform="scale(0.015625)"/>
       <path id="MalgunGothic-28" d="M 1438 -1044 
Q 447 88 447 1753 
Q 447 3431 1438 4600 
L 1888 4600 
Q 878 3372 878 1759 
Q 878 153 1881 -1044 
L 1438 -1044 
z
" transform="scale(0.015625)"/>
       <path id="MalgunGothic-c2e4" d="M 4878 2450 
L 4878 5466 
L 5344 5466 
L 5344 2450 
L 4878 2450 
z
M 3653 2663 
Q 3266 2828 2845 3203 
Q 2425 3578 2241 3938 
Q 1884 3125 800 2509 
L 469 2822 
Q 1178 3159 1590 3681 
Q 2003 4203 2003 4813 
L 2003 5331 
L 2456 5331 
L 2456 4813 
Q 2456 4219 2907 3717 
Q 3359 3216 3969 3003 
L 3653 2663 
z
M 1631 -422 
L 1631 1069 
L 4884 1069 
L 4884 1716 
L 1631 1716 
L 1631 2131 
L 5344 2131 
L 5344 666 
L 2094 666 
L 2094 -6 
L 5509 -6 
L 5509 -422 
L 1631 -422 
z
" transform="scale(0.015625)"/>
       <path id="MalgunGothic-c218" d="M 5491 2994 
Q 4750 3097 4078 3498 
Q 3406 3900 3200 4275 
Q 2975 3891 2309 3491 
Q 1644 3091 922 2956 
L 634 3347 
Q 1559 3450 2261 3942 
Q 2963 4434 2963 5013 
L 2963 5275 
L 3431 5275 
L 3431 5013 
Q 3431 4431 4118 3948 
Q 4806 3466 5766 3378 
L 5491 2994 
z
M 3431 1838 
L 3431 -563 
L 2963 -563 
L 2963 1838 
L 403 1838 
L 403 2253 
L 5997 2253 
L 5997 1838 
L 3431 1838 
z
" transform="scale(0.015625)"/>
       <path id="MalgunGothic-cd95" d="M 5466 3116 
Q 4794 3184 4103 3512 
Q 3413 3841 3206 4141 
Q 2972 3816 2308 3505 
Q 1644 3194 966 3122 
L 697 3547 
Q 1359 3547 2046 3836 
Q 2734 4125 2919 4538 
L 1056 4538 
L 1056 4953 
L 2969 4953 
L 2969 5516 
L 3444 5516 
L 3444 4953 
L 5344 4953 
L 5344 4538 
L 3481 4538 
Q 3669 4119 4353 3836 
Q 5038 3553 5703 3553 
L 5466 3116 
z
M 4609 -563 
L 4609 1075 
L 1197 1075 
L 1197 1491 
L 2963 1491 
L 2963 2222 
L 403 2222 
L 403 2644 
L 5997 2644 
L 5997 2222 
L 3438 2222 
L 3438 1491 
L 5075 1491 
L 5075 -563 
L 4609 -563 
z
" transform="scale(0.015625)"/>
       <path id="MalgunGothic-29" d="M 81 -1044 
Q 1081 150 1081 1759 
Q 1081 3378 72 4600 
L 525 4600 
Q 1522 3431 1522 1753 
Q 1522 88 525 -1044 
L 81 -1044 
z
" transform="scale(0.015625)"/>
      </defs>
      <use xlink:href="#MalgunGothic-52"/>
      <use xlink:href="#MalgunGothic-65" transform="translate(57.986328 0)"/>
      <use xlink:href="#MalgunGothic-61" transform="translate(111.501953 0)"/>
      <use xlink:href="#MalgunGothic-6c" transform="translate(163.503906 0)"/>
      <use xlink:href="#MalgunGothic-20" transform="translate(188.113281 0)"/>
      <use xlink:href="#MalgunGothic-28" transform="translate(223.269531 0)"/>
      <use xlink:href="#MalgunGothic-c2e4" transform="translate(253.738281 0)"/>
      <use xlink:href="#MalgunGothic-c218" transform="translate(353.738281 0)"/>
      <use xlink:href="#MalgunGothic-cd95" transform="translate(453.738281 0)"/>
      <use xlink:href="#MalgunGothic-29" transform="translate(553.738281 0)"/>
     </g>
    </g>
   </g>
   <g id="matplotlib.axis_2">
    <g id="ytick_1">
     <g id="line2d_19">
      <path d="M 39.948906 361.990156 
L 372.588906 361.990156 
" clip-path="url(#pf763842c86)" style="fill: none; stroke-dasharray: 0.8,1.32; stroke-dashoffset: 0; stroke: #b0b0b0; stroke-opacity: 0.5; stroke-width: 0.8"/>
     </g>
     <g id="line2d_20">
      <defs>
       <path id="ma31f909237" d="M 0 0 
L -3.5 0 
" style="stroke: #000000; stroke-width: 0.8"/>
      </defs>
      <g>
       <use xlink:href="#ma31f909237" x="39.948906" y="361.990156" style="stroke: #000000; stroke-width: 0.8"/>
      </g>
     </g>
     <g id="text_11">
      <!-- -4 -->
      <g transform="translate(23.339531 365.78625) scale(0.1 -0.1)">
       <use xlink:href="#MalgunGothic-2d"/>
       <use xlink:href="#MalgunGothic-34" transform="translate(41.015625 0)"/>
      </g>
     </g>
    </g>
    <g id="ytick_2">
     <g id="line2d_21">
      <path d="M 39.948906 320.410156 
L 372.588906 320.410156 
" clip-path="url(#pf763842c86)" style="fill: none; stroke-dasharray: 0.8,1.32; stroke-dashoffset: 0; stroke: #b0b0b0; stroke-opacity: 0.5; stroke-width: 0.8"/>
     </g>
     <g id="line2d_22">
      <g>
       <use xlink:href="#ma31f909237" x="39.948906" y="320.410156" style="stroke: #000000; stroke-width: 0.8"/>
      </g>
     </g>
     <g id="text_12">
      <!-- -3 -->
      <g transform="translate(23.339531 324.20625) scale(0.1 -0.1)">
       <use xlink:href="#MalgunGothic-2d"/>
       <use xlink:href="#MalgunGothic-33" transform="translate(41.015625 0)"/>
      </g>
     </g>
    </g>
    <g id="ytick_3">
     <g id="line2d_23">
      <path d="M 39.948906 278.830156 
L 372.588906 278.830156 
" clip-path="url(#pf763842c86)" style="fill: none; stroke-dasharray: 0.8,1.32; stroke-dashoffset: 0; stroke: #b0b0b0; stroke-opacity: 0.5; stroke-width: 0.8"/>
     </g>
     <g id="line2d_24">
      <g>
       <use xlink:href="#ma31f909237" x="39.948906" y="278.830156" style="stroke: #000000; stroke-width: 0.8"/>
      </g>
     </g>
     <g id="text_13">
      <!-- -2 -->
      <g transform="translate(23.339531 282.62625) scale(0.1 -0.1)">
       <use xlink:href="#MalgunGothic-2d"/>
       <use xlink:href="#MalgunGothic-32" transform="translate(41.015625 0)"/>
      </g>
     </g>
    </g>
    <g id="ytick_4">
     <g id="line2d_25">
      <path d="M 39.948906 237.250156 
L 372.588906 237.250156 
" clip-path="url(#pf763842c86)" style="fill: none; stroke-dasharray: 0.8,1.32; stroke-dashoffset: 0; stroke: #b0b0b0; stroke-opacity: 0.5; stroke-width: 0.8"/>
     </g>
     <g id="line2d_26">
      <g>
       <use xlink:href="#ma31f909237" x="39.948906" y="237.250156" style="stroke: #000000; stroke-width: 0.8"/>
      </g>
     </g>
     <g id="text_14">
      <!-- -1 -->
      <g transform="translate(23.339531 241.04625) scale(0.1 -0.1)">
       <use xlink:href="#MalgunGothic-2d"/>
       <use xlink:href="#MalgunGothic-31" transform="translate(41.015625 0)"/>
      </g>
     </g>
    </g>
    <g id="ytick_5">
     <g id="line2d_27">
      <path d="M 39.948906 195.670156 
L 372.588906 195.670156 
" clip-path="url(#pf763842c86)" style="fill: none; stroke-dasharray: 0.8,1.32; stroke-dashoffset: 0; stroke: #b0b0b0; stroke-opacity: 0.5; stroke-width: 0.8"/>
     </g>
     <g id="line2d_28">
      <g>
       <use xlink:href="#ma31f909237" x="39.948906" y="195.670156" style="stroke: #000000; stroke-width: 0.8"/>
      </g>
     </g>
     <g id="text_15">
      <!-- 0 -->
      <g transform="translate(27.441094 199.46625) scale(0.1 -0.1)">
       <use xlink:href="#MalgunGothic-30"/>
      </g>
     </g>
    </g>
    <g id="ytick_6">
     <g id="line2d_29">
      <path d="M 39.948906 154.090156 
L 372.588906 154.090156 
" clip-path="url(#pf763842c86)" style="fill: none; stroke-dasharray: 0.8,1.32; stroke-dashoffset: 0; stroke: #b0b0b0; stroke-opacity: 0.5; stroke-width: 0.8"/>
     </g>
     <g id="line2d_30">
      <g>
       <use xlink:href="#ma31f909237" x="39.948906" y="154.090156" style="stroke: #000000; stroke-width: 0.8"/>
      </g>
     </g>
     <g id="text_16">
      <!-- 1 -->
      <g transform="translate(27.441094 157.88625) scale(0.1 -0.1)">
       <use xlink:href="#MalgunGothic-31"/>
      </g>
     </g>
    </g>
    <g id="ytick_7">
     <g id="line2d_31">
      <path d="M 39.948906 112.510156 
L 372.588906 112.510156 
" clip-path="url(#pf763842c86)" style="fill: none; stroke-dasharray: 0.8,1.32; stroke-dashoffset: 0; stroke: #b0b0b0; stroke-opacity: 0.5; stroke-width: 0.8"/>
     </g>
     <g id="line2d_32">
      <g>
       <use xlink:href="#ma31f909237" x="39.948906" y="112.510156" style="stroke: #000000; stroke-width: 0.8"/>
      </g>
     </g>
     <g id="text_17">
      <!-- 2 -->
      <g transform="translate(27.441094 116.30625) scale(0.1 -0.1)">
       <use xlink:href="#MalgunGothic-32"/>
      </g>
     </g>
    </g>
    <g id="ytick_8">
     <g id="line2d_33">
      <path d="M 39.948906 70.930156 
L 372.588906 70.930156 
" clip-path="url(#pf763842c86)" style="fill: none; stroke-dasharray: 0.8,1.32; stroke-dashoffset: 0; stroke: #b0b0b0; stroke-opacity: 0.5; stroke-width: 0.8"/>
     </g>
     <g id="line2d_34">
      <g>
       <use xlink:href="#ma31f909237" x="39.948906" y="70.930156" style="stroke: #000000; stroke-width: 0.8"/>
      </g>
     </g>
     <g id="text_18">
      <!-- 3 -->
      <g transform="translate(27.441094 74.72625) scale(0.1 -0.1)">
       <use xlink:href="#MalgunGothic-33"/>
      </g>
     </g>
    </g>
    <g id="ytick_9">
     <g id="line2d_35">
      <path d="M 39.948906 29.350156 
L 372.588906 29.350156 
" clip-path="url(#pf763842c86)" style="fill: none; stroke-dasharray: 0.8,1.32; stroke-dashoffset: 0; stroke: #b0b0b0; stroke-opacity: 0.5; stroke-width: 0.8"/>
     </g>
     <g id="line2d_36">
      <g>
       <use xlink:href="#ma31f909237" x="39.948906" y="29.350156" style="stroke: #000000; stroke-width: 0.8"/>
      </g>
     </g>
     <g id="text_19">
      <!-- 4 -->
      <g transform="translate(27.441094 33.14625) scale(0.1 -0.1)">
       <use xlink:href="#MalgunGothic-34"/>
      </g>
     </g>
    </g>
    <g id="text_20">
     <!-- Imaginary (허수축) -->
     <g transform="translate(16.680625 242.238828) rotate(-90) scale(0.11 -0.11)">
      <defs>
       <path id="MalgunGothic-49" d="M 1116 0 
L 613 0 
L 613 4600 
L 1116 4600 
L 1116 0 
z
" transform="scale(0.015625)"/>
       <path id="MalgunGothic-6d" d="M 5166 0 
L 4669 0 
L 4669 1884 
Q 4669 2463 4495 2702 
Q 4322 2941 3922 2941 
Q 3584 2941 3342 2623 
Q 3100 2306 3100 1875 
L 3100 0 
L 2606 0 
L 2606 1953 
Q 2606 2941 1844 2941 
Q 1497 2941 1265 2642 
Q 1034 2344 1034 1875 
L 1034 0 
L 538 0 
L 538 3284 
L 1034 3284 
L 1034 2763 
L 1047 2763 
Q 1391 3359 2063 3359 
Q 2381 3359 2636 3176 
Q 2891 2994 2991 2675 
Q 3356 3359 4081 3359 
Q 5166 3359 5166 2022 
L 5166 0 
z
" transform="scale(0.015625)"/>
       <path id="MalgunGothic-67" d="M 3313 259 
Q 3313 -1547 1603 -1547 
Q 1003 -1547 538 -1313 
L 538 -806 
Q 1088 -1116 1600 -1116 
Q 2822 -1116 2822 194 
L 2822 559 
L 2809 559 
Q 2422 -78 1675 -78 
Q 1066 -78 691 362 
Q 316 803 316 1534 
Q 316 2375 722 2867 
Q 1128 3359 1816 3359 
Q 2484 3359 2809 2822 
L 2822 2822 
L 2822 3284 
L 3313 3284 
L 3313 259 
z
M 2822 1978 
Q 2822 2378 2547 2659 
Q 2272 2941 1878 2941 
Q 1384 2941 1101 2577 
Q 819 2213 819 1572 
Q 819 1016 1092 680 
Q 1366 344 1803 344 
Q 2247 344 2534 666 
Q 2822 988 2822 1478 
L 2822 1978 
z
" transform="scale(0.015625)"/>
       <path id="MalgunGothic-69" d="M 472 4466 
Q 472 4606 565 4701 
Q 659 4797 794 4797 
Q 934 4797 1029 4700 
Q 1125 4603 1125 4466 
Q 1125 4325 1029 4231 
Q 934 4138 794 4138 
Q 659 4138 565 4230 
Q 472 4322 472 4466 
z
M 541 0 
L 541 3284 
L 1034 3284 
L 1034 0 
L 541 0 
z
" transform="scale(0.015625)"/>
       <path id="MalgunGothic-6e" d="M 3238 0 
L 2741 0 
L 2741 1875 
Q 2741 2941 1963 2941 
Q 1563 2941 1298 2639 
Q 1034 2338 1034 1872 
L 1034 0 
L 538 0 
L 538 3284 
L 1034 3284 
L 1034 2734 
L 1047 2734 
Q 1416 3359 2125 3359 
Q 2666 3359 2952 3012 
Q 3238 2666 3238 2006 
L 3238 0 
z
" transform="scale(0.015625)"/>
       <path id="MalgunGothic-72" d="M 2225 2775 
Q 2084 2881 1828 2881 
Q 1491 2881 1262 2553 
Q 1034 2225 1034 1681 
L 1034 0 
L 538 0 
L 538 3284 
L 1034 3284 
L 1034 2603 
L 1047 2603 
Q 1159 2950 1389 3145 
Q 1619 3341 1903 3341 
Q 2109 3341 2225 3297 
L 2225 2775 
z
" transform="scale(0.015625)"/>
       <path id="MalgunGothic-79" d="M 3119 3284 
L 1597 -544 
Q 1197 -1547 481 -1547 
Q 313 -1547 156 -1509 
L 156 -1056 
Q 316 -1109 459 -1109 
Q 859 -1109 1059 -628 
L 1328 6 
L 47 3284 
L 597 3284 
L 1503 722 
Q 1513 697 1572 488 
L 1588 488 
L 1650 716 
L 2603 3284 
L 3119 3284 
z
" transform="scale(0.015625)"/>
       <path id="MalgunGothic-d5c8" d="M 4941 -563 
L 4941 2272 
L 3884 2272 
L 3884 2688 
L 4941 2688 
L 4941 5466 
L 5409 5466 
L 5409 -563 
L 4941 -563 
z
M 422 4072 
L 422 4488 
L 2003 4488 
L 2003 5453 
L 2478 5453 
L 2478 4488 
L 4063 4488 
L 4063 4072 
L 422 4072 
z
M 2181 903 
Q 1519 903 1111 1300 
Q 703 1697 703 2284 
Q 703 2881 1109 3278 
Q 1516 3675 2181 3675 
Q 2847 3675 3253 3278 
Q 3659 2881 3659 2284 
Q 3659 1697 3251 1300 
Q 2844 903 2181 903 
z
M 2181 3263 
Q 1731 3263 1442 2978 
Q 1153 2694 1153 2284 
Q 1153 1878 1442 1595 
Q 1731 1313 2181 1313 
Q 2634 1313 2923 1595 
Q 3213 1878 3213 2284 
Q 3213 2694 2925 2978 
Q 2638 3263 2181 3263 
z
" transform="scale(0.015625)"/>
      </defs>
      <use xlink:href="#MalgunGothic-49"/>
      <use xlink:href="#MalgunGothic-6d" transform="translate(27.001953 0)"/>
      <use xlink:href="#MalgunGothic-61" transform="translate(114.990234 0)"/>
      <use xlink:href="#MalgunGothic-67" transform="translate(166.992188 0)"/>
      <use xlink:href="#MalgunGothic-69" transform="translate(227.197266 0)"/>
      <use xlink:href="#MalgunGothic-6e" transform="translate(251.806641 0)"/>
      <use xlink:href="#MalgunGothic-61" transform="translate(309.619141 0)"/>
      <use xlink:href="#MalgunGothic-72" transform="translate(361.621094 0)"/>
      <use xlink:href="#MalgunGothic-79" transform="translate(401.347656 0)"/>
      <use xlink:href="#MalgunGothic-20" transform="translate(450.615234 0)"/>
      <use xlink:href="#MalgunGothic-28" transform="translate(485.771484 0)"/>
      <use xlink:href="#MalgunGothic-d5c8" transform="translate(516.240234 0)"/>
      <use xlink:href="#MalgunGothic-c218" transform="translate(616.240234 0)"/>
      <use xlink:href="#MalgunGothic-cd95" transform="translate(716.240234 0)"/>
      <use xlink:href="#MalgunGothic-29" transform="translate(816.240234 0)"/>
     </g>
    </g>
   </g>
   <g id="line2d_37">
    <path d="M 39.948906 195.670156 
L 372.588906 195.670156 
" clip-path="url(#pf763842c86)" style="fill: none; stroke: #888888; stroke-width: 0.8; stroke-linecap: square"/>
   </g>
   <g id="line2d_38">
    <path d="M 206.268906 361.990156 
L 206.268906 29.350156 
" clip-path="url(#pf763842c86)" style="fill: none; stroke: #888888; stroke-width: 0.8; stroke-linecap: square"/>
   </g>
   <g id="line2d_39">
    <defs>
     <path id="m14e5480e79" d="M 0 5 
C 1.326016 5 2.597899 4.473168 3.535534 3.535534 
C 4.473168 2.597899 5 1.326016 5 0 
C 5 -1.326016 4.473168 -2.597899 3.535534 -3.535534 
C 2.597899 -4.473168 1.326016 -5 0 -5 
C -1.326016 -5 -2.597899 -4.473168 -3.535534 -3.535534 
C -4.473168 -2.597899 -5 -1.326016 -5 0 
C -5 1.326016 -4.473168 2.597899 -3.535534 3.535534 
C -2.597899 4.473168 -1.326016 5 0 5 
z
" style="stroke: #d62728"/>
    </defs>
    <g clip-path="url(#pf763842c86)">
     <use xlink:href="#m14e5480e79" x="331.008906" y="112.510156" style="fill: #d62728; stroke: #d62728"/>
    </g>
   </g>
   <g id="line2d_40">
    <path d="M 331.008906 195.670156 
L 331.008906 112.510156 
" clip-path="url(#pf763842c86)" style="fill: none; stroke-dasharray: 3.7,1.6; stroke-dashoffset: 0; stroke: #aaaaaa"/>
   </g>
   <g id="line2d_41">
    <path d="M 206.268906 112.510156 
L 331.008906 112.510156 
" clip-path="url(#pf763842c86)" style="fill: none; stroke-dasharray: 3.7,1.6; stroke-dashoffset: 0; stroke: #aaaaaa"/>
   </g>
   <g id="patch_3">
    <path d="M 39.948906 361.990156 
L 39.948906 29.350156 
" style="fill: none; stroke: #000000; stroke-width: 0.8; stroke-linejoin: miter; stroke-linecap: square"/>
   </g>
   <g id="patch_4">
    <path d="M 372.588906 361.990156 
L 372.588906 29.350156 
" style="fill: none; stroke: #000000; stroke-width: 0.8; stroke-linejoin: miter; stroke-linecap: square"/>
   </g>
   <g id="patch_5">
    <path d="M 39.948906 361.990156 
L 372.588906 361.990156 
" style="fill: none; stroke: #000000; stroke-width: 0.8; stroke-linejoin: miter; stroke-linecap: square"/>
   </g>
   <g id="patch_6">
    <path d="M 39.948906 29.350156 
L 372.588906 29.350156 
" style="fill: none; stroke: #000000; stroke-width: 0.8; stroke-linejoin: miter; stroke-linecap: square"/>
   </g>
   <g id="patch_7">
    <path d="M 207.932462 194.561119 
Q 268.638731 154.090273 327.484479 114.859774 
" style="fill: none; stroke: #d62728; stroke-width: 2; stroke-linecap: round"/>
    <path d="M 323.046878 115.414474 
L 327.484479 114.859774 
L 325.265679 118.742675 
" style="fill: none; stroke: #d62728; stroke-width: 2; stroke-linecap: round"/>
   </g>
   <g id="text_21">
    <!-- z = 3 + 2i -->
    <g style="fill: #d62728" transform="translate(337.245906 92.503531) scale(0.12 -0.12)">
     <defs>
      <path id="MalgunGothic-7a" d="M 2788 0 
L 109 0 
L 109 147 
L 2069 2856 
L 291 2856 
L 291 3284 
L 2809 3284 
L 2809 3156 
L 841 428 
L 2788 428 
L 2788 0 
z
" transform="scale(0.015625)"/>
      <path id="MalgunGothic-3d" d="M 3750 2397 
L 744 2397 
L 744 2803 
L 3750 2803 
L 3750 2397 
z
M 3750 1031 
L 744 1031 
L 744 1441 
L 3750 1441 
L 3750 1031 
z
" transform="scale(0.015625)"/>
      <path id="MalgunGothic-2b" d="M 3750 1706 
L 2450 1706 
L 2450 413 
L 2041 413 
L 2041 1706 
L 744 1706 
L 744 2122 
L 2041 2122 
L 2041 3416 
L 2450 3416 
L 2450 2122 
L 3750 2122 
L 3750 1706 
z
" transform="scale(0.015625)"/>
     </defs>
     <use xlink:href="#MalgunGothic-7a"/>
     <use xlink:href="#MalgunGothic-20" transform="translate(46.191406 0)"/>
     <use xlink:href="#MalgunGothic-3d" transform="translate(81.347656 0)"/>
     <use xlink:href="#MalgunGothic-20" transform="translate(151.416016 0)"/>
     <use xlink:href="#MalgunGothic-33" transform="translate(186.572266 0)"/>
     <use xlink:href="#MalgunGothic-20" transform="translate(241.650391 0)"/>
     <use xlink:href="#MalgunGothic-2b" transform="translate(276.806641 0)"/>
     <use xlink:href="#MalgunGothic-20" transform="translate(346.875 0)"/>
     <use xlink:href="#MalgunGothic-32" transform="translate(382.03125 0)"/>
     <use xlink:href="#MalgunGothic-69" transform="translate(437.109375 0)"/>
    </g>
    <!-- (a=3, b=2) -->
    <g style="fill: #d62728" transform="translate(337.245906 106.273156) scale(0.12 -0.12)">
     <defs>
      <path id="MalgunGothic-2c" d="M 988 725 
L 472 -850 
L 125 -850 
L 503 725 
L 988 725 
z
" transform="scale(0.015625)"/>
      <path id="MalgunGothic-62" d="M 1034 481 
L 1034 0 
L 538 0 
L 538 4859 
L 1034 4859 
L 1034 2703 
L 1047 2703 
Q 1438 3359 2184 3359 
Q 2813 3359 3173 2917 
Q 3534 2475 3534 1738 
Q 3534 906 3126 414 
Q 2719 -78 2034 -78 
Q 1384 -78 1047 481 
L 1034 481 
z
M 1034 1334 
Q 1034 922 1307 633 
Q 1581 344 1991 344 
Q 2475 344 2751 716 
Q 3028 1088 3028 1753 
Q 3028 2303 2767 2622 
Q 2506 2941 2072 2941 
Q 1616 2941 1325 2616 
Q 1034 2291 1034 1803 
L 1034 1334 
z
" transform="scale(0.015625)"/>
     </defs>
     <use xlink:href="#MalgunGothic-28"/>
     <use xlink:href="#MalgunGothic-61" transform="translate(30.46875 0)"/>
     <use xlink:href="#MalgunGothic-3d" transform="translate(82.470703 0)"/>
     <use xlink:href="#MalgunGothic-33" transform="translate(152.539062 0)"/>
     <use xlink:href="#MalgunGothic-2c" transform="translate(207.617188 0)"/>
     <use xlink:href="#MalgunGothic-20" transform="translate(229.492188 0)"/>
     <use xlink:href="#MalgunGothic-62" transform="translate(264.648438 0)"/>
     <use xlink:href="#MalgunGothic-3d" transform="translate(324.707031 0)"/>
     <use xlink:href="#MalgunGothic-32" transform="translate(394.775391 0)"/>
     <use xlink:href="#MalgunGothic-29" transform="translate(449.853516 0)"/>
    </g>
   </g>
   <g id="text_22">
    <!-- a -->
    <g style="fill: #555555" transform="translate(328.148906 208.144156) scale(0.11 -0.11)">
     <use xlink:href="#MalgunGothic-61"/>
    </g>
   </g>
   <g id="text_23">
    <!-- b -->
    <g style="fill: #555555" transform="translate(193.794906 115.385625) scale(0.11 -0.11)">
     <use xlink:href="#MalgunGothic-62"/>
    </g>
   </g>
   <g id="text_24">
    <!-- 복소평면: z = a + bi → 점 (a, b) -->
    <g transform="translate(111.94375 17.350156) scale(0.13 -0.13)">
     <defs>
      <path id="MalgunGothic-bcf5" d="M 403 1984 
L 403 2400 
L 2963 2400 
L 2963 3097 
L 1356 3097 
L 1356 5350 
L 1819 5350 
L 1819 4647 
L 4581 4647 
L 4581 5350 
L 5044 5350 
L 5044 3097 
L 3438 3097 
L 3438 2400 
L 5997 2400 
L 5997 1984 
L 403 1984 
z
M 4581 4231 
L 1819 4231 
L 1819 3506 
L 4581 3506 
L 4581 4231 
z
M 4609 -563 
L 4609 966 
L 1197 966 
L 1197 1381 
L 5075 1381 
L 5075 -563 
L 4609 -563 
z
" transform="scale(0.015625)"/>
      <path id="MalgunGothic-c18c" d="M 3194 3909 
Q 2963 3416 2330 2941 
Q 1697 2466 959 2259 
L 641 2631 
Q 1700 2872 2328 3497 
Q 2956 4122 2956 4666 
L 2956 4984 
L 3438 4984 
L 3438 4666 
Q 3438 4131 4069 3506 
Q 4700 2881 5759 2631 
L 5428 2266 
Q 4719 2481 4072 2957 
Q 3425 3434 3194 3909 
z
M 403 384 
L 403 800 
L 2963 800 
L 2963 2266 
L 3438 2266 
L 3438 800 
L 5997 800 
L 5997 384 
L 403 384 
z
" transform="scale(0.015625)"/>
      <path id="MalgunGothic-d3c9" d="M 3884 2994 
L 3884 3391 
L 4947 3391 
L 4947 3969 
L 3884 3969 
L 3884 4366 
L 4947 4366 
L 4947 5466 
L 5416 5466 
L 5416 1881 
L 4947 1881 
L 4947 2994 
L 3884 2994 
z
M 794 4750 
L 794 5159 
L 4056 5159 
L 4056 4750 
L 794 4750 
z
M 4306 2247 
Q 3913 2169 3231 2169 
L 647 2169 
L 647 2578 
L 1466 2578 
L 1394 4475 
L 1850 4475 
L 1906 2578 
L 2900 2578 
L 2956 4475 
L 3413 4475 
L 3334 2584 
Q 3897 2584 4275 2650 
L 4306 2247 
z
M 3547 -538 
Q 2594 -538 2081 -227 
Q 1569 84 1569 594 
Q 1569 1100 2076 1411 
Q 2584 1722 3547 1722 
Q 4506 1722 5017 1411 
Q 5528 1100 5528 594 
Q 5528 84 5012 -227 
Q 4497 -538 3547 -538 
z
M 3547 1325 
Q 2834 1325 2451 1128 
Q 2069 931 2069 594 
Q 2069 259 2453 62 
Q 2838 -134 3547 -134 
Q 4256 -134 4647 62 
Q 5038 259 5038 594 
Q 5038 931 4648 1128 
Q 4259 1325 3547 1325 
z
" transform="scale(0.015625)"/>
      <path id="MalgunGothic-ba74" d="M 4953 1063 
L 4953 2753 
L 3750 2753 
L 3750 2163 
L 984 2163 
L 984 5125 
L 3750 5125 
L 3750 4531 
L 4953 4531 
L 4953 5466 
L 5422 5466 
L 5422 1063 
L 4953 1063 
z
M 3284 4709 
L 1453 4709 
L 1453 2578 
L 3284 2578 
L 3284 4709 
z
M 4953 4128 
L 3750 4128 
L 3750 3156 
L 4953 3156 
L 4953 4128 
z
M 1734 -391 
L 1734 1509 
L 2203 1509 
L 2203 25 
L 5606 25 
L 5606 -391 
L 1734 -391 
z
" transform="scale(0.015625)"/>
      <path id="MalgunGothic-3a" d="M 356 3006 
Q 356 3153 459 3254 
Q 563 3356 700 3356 
Q 838 3356 941 3254 
Q 1044 3153 1044 3006 
Q 1044 2863 942 2761 
Q 841 2659 700 2659 
Q 559 2659 457 2761 
Q 356 2863 356 3006 
z
M 356 275 
Q 356 422 459 523 
Q 563 625 700 625 
Q 838 625 941 523 
Q 1044 422 1044 275 
Q 1044 138 942 33 
Q 841 -72 700 -72 
Q 559 -72 457 29 
Q 356 131 356 275 
z
" transform="scale(0.015625)"/>
      <path id="MalgunGothic-2192" d="M 4697 2106 
Q 4269 2403 4050 2881 
L 4347 3028 
Q 4522 2616 4886 2337 
Q 5250 2059 5625 2059 
L 5625 1778 
Q 5253 1778 4887 1503 
Q 4522 1228 4347 813 
L 4050 959 
Q 4247 1406 4703 1741 
L 453 1741 
L 453 2106 
L 4697 2106 
z
" transform="scale(0.015625)"/>
      <path id="MalgunGothic-c810" d="M 4884 2113 
L 4884 3675 
L 3444 3675 
L 3444 4097 
L 4884 4097 
L 4884 5466 
L 5350 5466 
L 5350 2113 
L 4884 2113 
z
M 3653 2328 
Q 3244 2550 2831 2950 
Q 2419 3350 2253 3700 
Q 2075 3303 1659 2858 
Q 1244 2413 819 2175 
L 488 2497 
Q 1134 2806 1571 3393 
Q 2009 3981 2009 4628 
L 2009 4781 
L 684 4781 
L 684 5197 
L 3788 5197 
L 3788 4781 
L 2463 4781 
L 2463 4628 
Q 2463 4025 2916 3472 
Q 3369 2919 3969 2669 
L 3653 2328 
z
M 1625 -397 
L 1625 1766 
L 5350 1766 
L 5350 -397 
L 1625 -397 
z
M 4891 1356 
L 2088 1356 
L 2088 13 
L 4891 13 
L 4891 1356 
z
" transform="scale(0.015625)"/>
     </defs>
     <use xlink:href="#MalgunGothic-bcf5"/>
     <use xlink:href="#MalgunGothic-c18c" transform="translate(100 0)"/>
     <use xlink:href="#MalgunGothic-d3c9" transform="translate(200 0)"/>
     <use xlink:href="#MalgunGothic-ba74" transform="translate(300 0)"/>
     <use xlink:href="#MalgunGothic-3a" transform="translate(400 0)"/>
     <use xlink:href="#MalgunGothic-20" transform="translate(421.875 0)"/>
     <use xlink:href="#MalgunGothic-7a" transform="translate(457.03125 0)"/>
     <use xlink:href="#MalgunGothic-20" transform="translate(503.222656 0)"/>
     <use xlink:href="#MalgunGothic-3d" transform="translate(538.378906 0)"/>
     <use xlink:href="#MalgunGothic-20" transform="translate(608.447266 0)"/>
     <use xlink:href="#MalgunGothic-61" transform="translate(643.603516 0)"/>
     <use xlink:href="#MalgunGothic-20" transform="translate(695.605469 0)"/>
     <use xlink:href="#MalgunGothic-2b" transform="translate(730.761719 0)"/>
     <use xlink:href="#MalgunGothic-20" transform="translate(800.830078 0)"/>
     <use xlink:href="#MalgunGothic-62" transform="translate(835.986328 0)"/>
     <use xlink:href="#MalgunGothic-69" transform="translate(896.044922 0)"/>
     <use xlink:href="#MalgunGothic-20" transform="translate(920.654297 0)"/>
     <use xlink:href="#MalgunGothic-2192" transform="translate(955.810547 0)"/>
     <use xlink:href="#MalgunGothic-20" transform="translate(1050.830078 0)"/>
     <use xlink:href="#MalgunGothic-c810" transform="translate(1085.986328 0)"/>
     <use xlink:href="#MalgunGothic-20" transform="translate(1185.986328 0)"/>
     <use xlink:href="#MalgunGothic-28" transform="translate(1221.142578 0)"/>
     <use xlink:href="#MalgunGothic-61" transform="translate(1251.611328 0)"/>
     <use xlink:href="#MalgunGothic-2c" transform="translate(1303.613281 0)"/>
     <use xlink:href="#MalgunGothic-20" transform="translate(1325.488281 0)"/>
     <use xlink:href="#MalgunGothic-62" transform="translate(1360.644531 0)"/>
     <use xlink:href="#MalgunGothic-29" transform="translate(1420.703125 0)"/>
    </g>
   </g>
  </g>
 </g>
 <defs>
  <clipPath id="pf763842c86">
   <rect x="39.948906" y="29.350156" width="332.64" height="332.64"/>
  </clipPath>
 </defs>
</svg>
