<?xml version="1.0" encoding="utf-8" standalone="no"?>
<!DOCTYPE svg PUBLIC "-//W3C//DTD SVG 1.1//EN"
  "http://www.w3.org/Graphics/SVG/1.1/DTD/svg11.dtd">
<svg xmlns:xlink="http://www.w3.org/1999/xlink" width="387.484219pt" height="401.141094pt" viewBox="0 0 387.484219 401.141094" xmlns="http://www.w3.org/2000/svg" version="1.1">
 <metadata>
  <rdf:RDF xmlns:dc="http://purl.org/dc/elements/1.1/" xmlns:cc="http://creativecommons.org/ns#" xmlns:rdf="http://www.w3.org/1999/02/22-rdf-syntax-ns#">
   <cc:Work>
    <dc:type rdf:resource="http://purl.org/dc/dcmitype/StillImage"/>
    <dc:date>2026-05-05T20:13:38.051680</dc:date>
    <dc:format>image/svg+xml</dc:format>
    <dc:creator>
     <cc:Agent>
      <dc:title>Matplotlib v3.10.7, https://matplotlib.org/</dc:title>
     </cc:Agent>
    </dc:creator>
   </cc:Work>
  </rdf:RDF>
 </metadata>
 <defs>
  <style type="text/css">*{stroke-linejoin: round; stroke-linecap: butt}</style>
 </defs>
 <g id="figure_1">
  <g id="patch_1">
   <path d="M 0 401.141094 
L 387.484219 401.141094 
L 387.484219 0 
L 0 0 
z
" style="fill: #ffffff"/>
  </g>
  <g id="axes_1">
   <g id="patch_2">
    <path d="M 47.644219 361.709844 
L 380.284219 361.709844 
L 380.284219 29.069844 
L 47.644219 29.069844 
z
" style="fill: #ffffff"/>
   </g>
   <g id="matplotlib.axis_1">
    <g id="xtick_1">
     <g id="line2d_1">
      <path d="M 67.211278 361.709844 
L 67.211278 29.069844 
" clip-path="url(#p572beb473f)" style="fill: none; stroke-dasharray: 0.8,1.32; stroke-dashoffset: 0; stroke: #b0b0b0; stroke-opacity: 0.5; stroke-width: 0.8"/>
     </g>
     <g id="line2d_2">
      <defs>
       <path id="m7d8754fe42" d="M 0 0 
L 0 3.5 
" style="stroke: #000000; stroke-width: 0.8"/>
      </defs>
      <g>
       <use xlink:href="#m7d8754fe42" x="67.211278" y="361.709844" style="stroke: #000000; stroke-width: 0.8"/>
      </g>
     </g>
     <g id="text_1">
      <!-- -1.5 -->
      <g transform="translate(58.558934 376.302031) scale(0.1 -0.1)">
       <defs>
        <path id="MalgunGothic-2d" d="M 2213 1634 
L 463 1634 
L 463 2031 
L 2213 2031 
L 2213 1634 
z
" transform="scale(0.015625)"/>
        <path id="MalgunGothic-31" d="M 2231 0 
L 1734 0 
L 1734 3972 
Q 1591 3828 1266 3661 
Q 941 3494 672 3428 
L 672 3959 
Q 1016 4056 1409 4275 
Q 1803 4494 2031 4700 
L 2231 4700 
L 2231 0 
z
" transform="scale(0.015625)"/>
        <path id="MalgunGothic-2e" d="M 356 275 
Q 356 422 459 523 
Q 563 625 700 625 
Q 838 625 941 523 
Q 1044 422 1044 275 
Q 1044 138 942 33 
Q 841 -72 700 -72 
Q 559 -72 457 29 
Q 356 131 356 275 
z
" transform="scale(0.015625)"/>
        <path id="MalgunGothic-35" d="M 3072 1403 
Q 3072 722 2636 322 
Q 2200 -78 1469 -78 
Q 828 -78 516 113 
L 516 650 
Q 994 344 1475 344 
Q 1969 344 2270 630 
Q 2572 916 2572 1372 
Q 2572 1838 2265 2092 
Q 1959 2347 1381 2347 
Q 994 2347 603 2300 
L 759 4600 
L 2869 4600 
L 2869 4147 
L 1206 4147 
L 1106 2763 
Q 1347 2784 1547 2784 
Q 2263 2784 2667 2414 
Q 3072 2044 3072 1403 
z
" transform="scale(0.015625)"/>
       </defs>
       <use xlink:href="#MalgunGothic-2d"/>
       <use xlink:href="#MalgunGothic-31" transform="translate(41.015625 0)"/>
       <use xlink:href="#MalgunGothic-2e" transform="translate(96.09375 0)"/>
       <use xlink:href="#MalgunGothic-35" transform="translate(117.96875 0)"/>
      </g>
     </g>
    </g>
    <g id="xtick_2">
     <g id="line2d_3">
      <path d="M 116.128925 361.709844 
L 116.128925 29.069844 
" clip-path="url(#p572beb473f)" style="fill: none; stroke-dasharray: 0.8,1.32; stroke-dashoffset: 0; stroke: #b0b0b0; stroke-opacity: 0.5; stroke-width: 0.8"/>
     </g>
     <g id="line2d_4">
      <g>
       <use xlink:href="#m7d8754fe42" x="116.128925" y="361.709844" style="stroke: #000000; stroke-width: 0.8"/>
      </g>
     </g>
     <g id="text_2">
      <!-- -1.0 -->
      <g transform="translate(107.476581 376.302031) scale(0.1 -0.1)">
       <defs>
        <path id="MalgunGothic-30" d="M 278 2206 
Q 278 3425 675 4050 
Q 1072 4675 1819 4675 
Q 3253 4675 3253 2319 
Q 3253 1156 2854 539 
Q 2456 -78 1716 -78 
Q 1016 -78 647 520 
Q 278 1119 278 2206 
z
M 784 2231 
Q 784 344 1769 344 
Q 2747 344 2747 2259 
Q 2747 4250 1794 4250 
Q 784 4250 784 2231 
z
" transform="scale(0.015625)"/>
       </defs>
       <use xlink:href="#MalgunGothic-2d"/>
       <use xlink:href="#MalgunGothic-31" transform="translate(41.015625 0)"/>
       <use xlink:href="#MalgunGothic-2e" transform="translate(96.09375 0)"/>
       <use xlink:href="#MalgunGothic-30" transform="translate(117.96875 0)"/>
      </g>
     </g>
    </g>
    <g id="xtick_3">
     <g id="line2d_5">
      <path d="M 165.046572 361.709844 
L 165.046572 29.069844 
" clip-path="url(#p572beb473f)" style="fill: none; stroke-dasharray: 0.8,1.32; stroke-dashoffset: 0; stroke: #b0b0b0; stroke-opacity: 0.5; stroke-width: 0.8"/>
     </g>
     <g id="line2d_6">
      <g>
       <use xlink:href="#m7d8754fe42" x="165.046572" y="361.709844" style="stroke: #000000; stroke-width: 0.8"/>
      </g>
     </g>
     <g id="text_3">
      <!-- -0.5 -->
      <g transform="translate(156.394228 376.302031) scale(0.1 -0.1)">
       <use xlink:href="#MalgunGothic-2d"/>
       <use xlink:href="#MalgunGothic-30" transform="translate(41.015625 0)"/>
       <use xlink:href="#MalgunGothic-2e" transform="translate(96.09375 0)"/>
       <use xlink:href="#MalgunGothic-35" transform="translate(117.96875 0)"/>
      </g>
     </g>
    </g>
    <g id="xtick_4">
     <g id="line2d_7">
      <path d="M 213.964219 361.709844 
L 213.964219 29.069844 
" clip-path="url(#p572beb473f)" style="fill: none; stroke-dasharray: 0.8,1.32; stroke-dashoffset: 0; stroke: #b0b0b0; stroke-opacity: 0.5; stroke-width: 0.8"/>
     </g>
     <g id="line2d_8">
      <g>
       <use xlink:href="#m7d8754fe42" x="213.964219" y="361.709844" style="stroke: #000000; stroke-width: 0.8"/>
      </g>
     </g>
     <g id="text_4">
      <!-- 0.0 -->
      <g transform="translate(207.362656 376.302031) scale(0.1 -0.1)">
       <use xlink:href="#MalgunGothic-30"/>
       <use xlink:href="#MalgunGothic-2e" transform="translate(55.078125 0)"/>
       <use xlink:href="#MalgunGothic-30" transform="translate(76.953125 0)"/>
      </g>
     </g>
    </g>
    <g id="xtick_5">
     <g id="line2d_9">
      <path d="M 262.881866 361.709844 
L 262.881866 29.069844 
" clip-path="url(#p572beb473f)" style="fill: none; stroke-dasharray: 0.8,1.32; stroke-dashoffset: 0; stroke: #b0b0b0; stroke-opacity: 0.5; stroke-width: 0.8"/>
     </g>
     <g id="line2d_10">
      <g>
       <use xlink:href="#m7d8754fe42" x="262.881866" y="361.709844" style="stroke: #000000; stroke-width: 0.8"/>
      </g>
     </g>
     <g id="text_5">
      <!-- 0.5 -->
      <g transform="translate(256.280303 376.302031) scale(0.1 -0.1)">
       <use xlink:href="#MalgunGothic-30"/>
       <use xlink:href="#MalgunGothic-2e" transform="translate(55.078125 0)"/>
       <use xlink:href="#MalgunGothic-35" transform="translate(76.953125 0)"/>
      </g>
     </g>
    </g>
    <g id="xtick_6">
     <g id="line2d_11">
      <path d="M 311.799513 361.709844 
L 311.799513 29.069844 
" clip-path="url(#p572beb473f)" style="fill: none; stroke-dasharray: 0.8,1.32; stroke-dashoffset: 0; stroke: #b0b0b0; stroke-opacity: 0.5; stroke-width: 0.8"/>
     </g>
     <g id="line2d_12">
      <g>
       <use xlink:href="#m7d8754fe42" x="311.799513" y="361.709844" style="stroke: #000000; stroke-width: 0.8"/>
      </g>
     </g>
     <g id="text_6">
      <!-- 1.0 -->
      <g transform="translate(305.19795 376.302031) scale(0.1 -0.1)">
       <use xlink:href="#MalgunGothic-31"/>
       <use xlink:href="#MalgunGothic-2e" transform="translate(55.078125 0)"/>
       <use xlink:href="#MalgunGothic-30" transform="translate(76.953125 0)"/>
      </g>
     </g>
    </g>
    <g id="xtick_7">
     <g id="line2d_13">
      <path d="M 360.71716 361.709844 
L 360.71716 29.069844 
" clip-path="url(#p572beb473f)" style="fill: none; stroke-dasharray: 0.8,1.32; stroke-dashoffset: 0; stroke: #b0b0b0; stroke-opacity: 0.5; stroke-width: 0.8"/>
     </g>
     <g id="line2d_14">
      <g>
       <use xlink:href="#m7d8754fe42" x="360.71716" y="361.709844" style="stroke: #000000; stroke-width: 0.8"/>
      </g>
     </g>
     <g id="text_7">
      <!-- 1.5 -->
      <g transform="translate(354.115597 376.302031) scale(0.1 -0.1)">
       <use xlink:href="#MalgunGothic-31"/>
       <use xlink:href="#MalgunGothic-2e" transform="translate(55.078125 0)"/>
       <use xlink:href="#MalgunGothic-35" transform="translate(76.953125 0)"/>
      </g>
     </g>
    </g>
    <g id="text_8">
     <!-- Real (실수축) -->
     <g transform="translate(181.833047 391.340625) scale(0.11 -0.11)">
      <defs>
       <path id="MalgunGothic-52" d="M 3866 0 
L 3259 0 
L 2488 1294 
Q 2241 1706 2044 1837 
Q 1847 1969 1569 1969 
L 1113 1969 
L 1113 0 
L 609 0 
L 609 4600 
L 1963 4600 
Q 2597 4600 2970 4272 
Q 3344 3944 3344 3375 
Q 3344 2422 2325 2138 
L 2325 2125 
Q 2519 2041 2645 1902 
Q 2772 1763 3006 1381 
L 3866 0 
z
M 1113 4128 
L 1113 2438 
L 1866 2438 
Q 2291 2438 2552 2686 
Q 2813 2934 2813 3334 
Q 2813 3709 2570 3918 
Q 2328 4128 1872 4128 
L 1113 4128 
z
" transform="scale(0.015625)"/>
       <path id="MalgunGothic-65" d="M 3156 1519 
L 828 1519 
Q 844 950 1133 648 
Q 1422 347 1909 347 
Q 2472 347 2934 719 
L 2934 244 
Q 2494 -78 1794 -78 
Q 1100 -78 708 376 
Q 316 831 316 1634 
Q 316 2381 747 2870 
Q 1178 3359 1816 3359 
Q 2453 3359 2804 2942 
Q 3156 2525 3156 1788 
L 3156 1519 
z
M 2644 1956 
Q 2644 2416 2423 2675 
Q 2203 2934 1809 2934 
Q 1438 2934 1169 2667 
Q 900 2400 834 1956 
L 2644 1956 
z
" transform="scale(0.015625)"/>
       <path id="MalgunGothic-61" d="M 616 3050 
Q 1097 3359 1722 3359 
Q 2866 3359 2866 2147 
L 2866 0 
L 2369 0 
L 2369 516 
L 2350 516 
Q 2009 -78 1341 -78 
Q 859 -78 576 180 
Q 294 438 294 869 
Q 294 1784 1375 1934 
L 2366 2078 
Q 2366 2934 1684 2934 
Q 1084 2934 616 2525 
L 616 3050 
z
M 1563 1559 
Q 1178 1509 993 1371 
Q 809 1234 809 903 
Q 809 653 986 500 
Q 1163 347 1450 347 
Q 1847 347 2106 628 
Q 2366 909 2366 1334 
L 2366 1666 
L 1563 1559 
z
" transform="scale(0.015625)"/>
       <path id="MalgunGothic-6c" d="M 541 0 
L 541 4859 
L 1034 4859 
L 1034 0 
L 541 0 
z
" transform="scale(0.015625)"/>
       <path id="MalgunGothic-20" transform="scale(0.015625)"/>
       <path id="MalgunGothic-28" d="M 1438 -1044 
Q 447 88 447 1753 
Q 447 3431 1438 4600 
L 1888 4600 
Q 878 3372 878 1759 
Q 878 153 1881 -1044 
L 1438 -1044 
z
" transform="scale(0.015625)"/>
       <path id="MalgunGothic-c2e4" d="M 4878 2450 
L 4878 5466 
L 5344 5466 
L 5344 2450 
L 4878 2450 
z
M 3653 2663 
Q 3266 2828 2845 3203 
Q 2425 3578 2241 3938 
Q 1884 3125 800 2509 
L 469 2822 
Q 1178 3159 1590 3681 
Q 2003 4203 2003 4813 
L 2003 5331 
L 2456 5331 
L 2456 4813 
Q 2456 4219 2907 3717 
Q 3359 3216 3969 3003 
L 3653 2663 
z
M 1631 -422 
L 1631 1069 
L 4884 1069 
L 4884 1716 
L 1631 1716 
L 1631 2131 
L 5344 2131 
L 5344 666 
L 2094 666 
L 2094 -6 
L 5509 -6 
L 5509 -422 
L 1631 -422 
z
" transform="scale(0.015625)"/>
       <path id="MalgunGothic-c218" d="M 5491 2994 
Q 4750 3097 4078 3498 
Q 3406 3900 3200 4275 
Q 2975 3891 2309 3491 
Q 1644 3091 922 2956 
L 634 3347 
Q 1559 3450 2261 3942 
Q 2963 4434 2963 5013 
L 2963 5275 
L 3431 5275 
L 3431 5013 
Q 3431 4431 4118 3948 
Q 4806 3466 5766 3378 
L 5491 2994 
z
M 3431 1838 
L 3431 -563 
L 2963 -563 
L 2963 1838 
L 403 1838 
L 403 2253 
L 5997 2253 
L 5997 1838 
L 3431 1838 
z
" transform="scale(0.015625)"/>
       <path id="MalgunGothic-cd95" d="M 5466 3116 
Q 4794 3184 4103 3512 
Q 3413 3841 3206 4141 
Q 2972 3816 2308 3505 
Q 1644 3194 966 3122 
L 697 3547 
Q 1359 3547 2046 3836 
Q 2734 4125 2919 4538 
L 1056 4538 
L 1056 4953 
L 2969 4953 
L 2969 5516 
L 3444 5516 
L 3444 4953 
L 5344 4953 
L 5344 4538 
L 3481 4538 
Q 3669 4119 4353 3836 
Q 5038 3553 5703 3553 
L 5466 3116 
z
M 4609 -563 
L 4609 1075 
L 1197 1075 
L 1197 1491 
L 2963 1491 
L 2963 2222 
L 403 2222 
L 403 2644 
L 5997 2644 
L 5997 2222 
L 3438 2222 
L 3438 1491 
L 5075 1491 
L 5075 -563 
L 4609 -563 
z
" transform="scale(0.015625)"/>
       <path id="MalgunGothic-29" d="M 81 -1044 
Q 1081 150 1081 1759 
Q 1081 3378 72 4600 
L 525 4600 
Q 1522 3431 1522 1753 
Q 1522 88 525 -1044 
L 81 -1044 
z
" transform="scale(0.015625)"/>
      </defs>
      <use xlink:href="#MalgunGothic-52"/>
      <use xlink:href="#MalgunGothic-65" transform="translate(57.986328 0)"/>
      <use xlink:href="#MalgunGothic-61" transform="translate(111.501953 0)"/>
      <use xlink:href="#MalgunGothic-6c" transform="translate(163.503906 0)"/>
      <use xlink:href="#MalgunGothic-20" transform="translate(188.113281 0)"/>
      <use xlink:href="#MalgunGothic-28" transform="translate(223.269531 0)"/>
      <use xlink:href="#MalgunGothic-c2e4" transform="translate(253.738281 0)"/>
      <use xlink:href="#MalgunGothic-c218" transform="translate(353.738281 0)"/>
      <use xlink:href="#MalgunGothic-cd95" transform="translate(453.738281 0)"/>
      <use xlink:href="#MalgunGothic-29" transform="translate(553.738281 0)"/>
     </g>
    </g>
   </g>
   <g id="matplotlib.axis_2">
    <g id="ytick_1">
     <g id="line2d_15">
      <path d="M 47.644219 342.142785 
L 380.284219 342.142785 
" clip-path="url(#p572beb473f)" style="fill: none; stroke-dasharray: 0.8,1.32; stroke-dashoffset: 0; stroke: #b0b0b0; stroke-opacity: 0.5; stroke-width: 0.8"/>
     </g>
     <g id="line2d_16">
      <defs>
       <path id="mec2e396e16" d="M 0 0 
L -3.5 0 
" style="stroke: #000000; stroke-width: 0.8"/>
      </defs>
      <g>
       <use xlink:href="#mec2e396e16" x="47.644219" y="342.142785" style="stroke: #000000; stroke-width: 0.8"/>
      </g>
     </g>
     <g id="text_9">
      <!-- -1.5 -->
      <g transform="translate(23.339531 345.938879) scale(0.1 -0.1)">
       <use xlink:href="#MalgunGothic-2d"/>
       <use xlink:href="#MalgunGothic-31" transform="translate(41.015625 0)"/>
       <use xlink:href="#MalgunGothic-2e" transform="translate(96.09375 0)"/>
       <use xlink:href="#MalgunGothic-35" transform="translate(117.96875 0)"/>
      </g>
     </g>
    </g>
    <g id="ytick_2">
     <g id="line2d_17">
      <path d="M 47.644219 293.225138 
L 380.284219 293.225138 
" clip-path="url(#p572beb473f)" style="fill: none; stroke-dasharray: 0.8,1.32; stroke-dashoffset: 0; stroke: #b0b0b0; stroke-opacity: 0.5; stroke-width: 0.8"/>
     </g>
     <g id="line2d_18">
      <g>
       <use xlink:href="#mec2e396e16" x="47.644219" y="293.225138" style="stroke: #000000; stroke-width: 0.8"/>
      </g>
     </g>
     <g id="text_10">
      <!-- -1.0 -->
      <g transform="translate(23.339531 297.021232) scale(0.1 -0.1)">
       <use xlink:href="#MalgunGothic-2d"/>
       <use xlink:href="#MalgunGothic-31" transform="translate(41.015625 0)"/>
       <use xlink:href="#MalgunGothic-2e" transform="translate(96.09375 0)"/>
       <use xlink:href="#MalgunGothic-30" transform="translate(117.96875 0)"/>
      </g>
     </g>
    </g>
    <g id="ytick_3">
     <g id="line2d_19">
      <path d="M 47.644219 244.307491 
L 380.284219 244.307491 
" clip-path="url(#p572beb473f)" style="fill: none; stroke-dasharray: 0.8,1.32; stroke-dashoffset: 0; stroke: #b0b0b0; stroke-opacity: 0.5; stroke-width: 0.8"/>
     </g>
     <g id="line2d_20">
      <g>
       <use xlink:href="#mec2e396e16" x="47.644219" y="244.307491" style="stroke: #000000; stroke-width: 0.8"/>
      </g>
     </g>
     <g id="text_11">
      <!-- -0.5 -->
      <g transform="translate(23.339531 248.103585) scale(0.1 -0.1)">
       <use xlink:href="#MalgunGothic-2d"/>
       <use xlink:href="#MalgunGothic-30" transform="translate(41.015625 0)"/>
       <use xlink:href="#MalgunGothic-2e" transform="translate(96.09375 0)"/>
       <use xlink:href="#MalgunGothic-35" transform="translate(117.96875 0)"/>
      </g>
     </g>
    </g>
    <g id="ytick_4">
     <g id="line2d_21">
      <path d="M 47.644219 195.389844 
L 380.284219 195.389844 
" clip-path="url(#p572beb473f)" style="fill: none; stroke-dasharray: 0.8,1.32; stroke-dashoffset: 0; stroke: #b0b0b0; stroke-opacity: 0.5; stroke-width: 0.8"/>
     </g>
     <g id="line2d_22">
      <g>
       <use xlink:href="#mec2e396e16" x="47.644219" y="195.389844" style="stroke: #000000; stroke-width: 0.8"/>
      </g>
     </g>
     <g id="text_12">
      <!-- 0.0 -->
      <g transform="translate(27.441094 199.185937) scale(0.1 -0.1)">
       <use xlink:href="#MalgunGothic-30"/>
       <use xlink:href="#MalgunGothic-2e" transform="translate(55.078125 0)"/>
       <use xlink:href="#MalgunGothic-30" transform="translate(76.953125 0)"/>
      </g>
     </g>
    </g>
    <g id="ytick_5">
     <g id="line2d_23">
      <path d="M 47.644219 146.472197 
L 380.284219 146.472197 
" clip-path="url(#p572beb473f)" style="fill: none; stroke-dasharray: 0.8,1.32; stroke-dashoffset: 0; stroke: #b0b0b0; stroke-opacity: 0.5; stroke-width: 0.8"/>
     </g>
     <g id="line2d_24">
      <g>
       <use xlink:href="#mec2e396e16" x="47.644219" y="146.472197" style="stroke: #000000; stroke-width: 0.8"/>
      </g>
     </g>
     <g id="text_13">
      <!-- 0.5 -->
      <g transform="translate(27.441094 150.26829) scale(0.1 -0.1)">
       <use xlink:href="#MalgunGothic-30"/>
       <use xlink:href="#MalgunGothic-2e" transform="translate(55.078125 0)"/>
       <use xlink:href="#MalgunGothic-35" transform="translate(76.953125 0)"/>
      </g>
     </g>
    </g>
    <g id="ytick_6">
     <g id="line2d_25">
      <path d="M 47.644219 97.55455 
L 380.284219 97.55455 
" clip-path="url(#p572beb473f)" style="fill: none; stroke-dasharray: 0.8,1.32; stroke-dashoffset: 0; stroke: #b0b0b0; stroke-opacity: 0.5; stroke-width: 0.8"/>
     </g>
     <g id="line2d_26">
      <g>
       <use xlink:href="#mec2e396e16" x="47.644219" y="97.55455" style="stroke: #000000; stroke-width: 0.8"/>
      </g>
     </g>
     <g id="text_14">
      <!-- 1.0 -->
      <g transform="translate(27.441094 101.350643) scale(0.1 -0.1)">
       <use xlink:href="#MalgunGothic-31"/>
       <use xlink:href="#MalgunGothic-2e" transform="translate(55.078125 0)"/>
       <use xlink:href="#MalgunGothic-30" transform="translate(76.953125 0)"/>
      </g>
     </g>
    </g>
    <g id="ytick_7">
     <g id="line2d_27">
      <path d="M 47.644219 48.636903 
L 380.284219 48.636903 
" clip-path="url(#p572beb473f)" style="fill: none; stroke-dasharray: 0.8,1.32; stroke-dashoffset: 0; stroke: #b0b0b0; stroke-opacity: 0.5; stroke-width: 0.8"/>
     </g>
     <g id="line2d_28">
      <g>
       <use xlink:href="#mec2e396e16" x="47.644219" y="48.636903" style="stroke: #000000; stroke-width: 0.8"/>
      </g>
     </g>
     <g id="text_15">
      <!-- 1.5 -->
      <g transform="translate(27.441094 52.432996) scale(0.1 -0.1)">
       <use xlink:href="#MalgunGothic-31"/>
       <use xlink:href="#MalgunGothic-2e" transform="translate(55.078125 0)"/>
       <use xlink:href="#MalgunGothic-35" transform="translate(76.953125 0)"/>
      </g>
     </g>
    </g>
    <g id="text_16">
     <!-- Imaginary (허수축) -->
     <g transform="translate(16.680625 241.958516) rotate(-90) scale(0.11 -0.11)">
      <defs>
       <path id="MalgunGothic-49" d="M 1116 0 
L 613 0 
L 613 4600 
L 1116 4600 
L 1116 0 
z
" transform="scale(0.015625)"/>
       <path id="MalgunGothic-6d" d="M 5166 0 
L 4669 0 
L 4669 1884 
Q 4669 2463 4495 2702 
Q 4322 2941 3922 2941 
Q 3584 2941 3342 2623 
Q 3100 2306 3100 1875 
L 3100 0 
L 2606 0 
L 2606 1953 
Q 2606 2941 1844 2941 
Q 1497 2941 1265 2642 
Q 1034 2344 1034 1875 
L 1034 0 
L 538 0 
L 538 3284 
L 1034 3284 
L 1034 2763 
L 1047 2763 
Q 1391 3359 2063 3359 
Q 2381 3359 2636 3176 
Q 2891 2994 2991 2675 
Q 3356 3359 4081 3359 
Q 5166 3359 5166 2022 
L 5166 0 
z
" transform="scale(0.015625)"/>
       <path id="MalgunGothic-67" d="M 3313 259 
Q 3313 -1547 1603 -1547 
Q 1003 -1547 538 -1313 
L 538 -806 
Q 1088 -1116 1600 -1116 
Q 2822 -1116 2822 194 
L 2822 559 
L 2809 559 
Q 2422 -78 1675 -78 
Q 1066 -78 691 362 
Q 316 803 316 1534 
Q 316 2375 722 2867 
Q 1128 3359 1816 3359 
Q 2484 3359 2809 2822 
L 2822 2822 
L 2822 3284 
L 3313 3284 
L 3313 259 
z
M 2822 1978 
Q 2822 2378 2547 2659 
Q 2272 2941 1878 2941 
Q 1384 2941 1101 2577 
Q 819 2213 819 1572 
Q 819 1016 1092 680 
Q 1366 344 1803 344 
Q 2247 344 2534 666 
Q 2822 988 2822 1478 
L 2822 1978 
z
" transform="scale(0.015625)"/>
       <path id="MalgunGothic-69" d="M 472 4466 
Q 472 4606 565 4701 
Q 659 4797 794 4797 
Q 934 4797 1029 4700 
Q 1125 4603 1125 4466 
Q 1125 4325 1029 4231 
Q 934 4138 794 4138 
Q 659 4138 565 4230 
Q 472 4322 472 4466 
z
M 541 0 
L 541 3284 
L 1034 3284 
L 1034 0 
L 541 0 
z
" transform="scale(0.015625)"/>
       <path id="MalgunGothic-6e" d="M 3238 0 
L 2741 0 
L 2741 1875 
Q 2741 2941 1963 2941 
Q 1563 2941 1298 2639 
Q 1034 2338 1034 1872 
L 1034 0 
L 538 0 
L 538 3284 
L 1034 3284 
L 1034 2734 
L 1047 2734 
Q 1416 3359 2125 3359 
Q 2666 3359 2952 3012 
Q 3238 2666 3238 2006 
L 3238 0 
z
" transform="scale(0.015625)"/>
       <path id="MalgunGothic-72" d="M 2225 2775 
Q 2084 2881 1828 2881 
Q 1491 2881 1262 2553 
Q 1034 2225 1034 1681 
L 1034 0 
L 538 0 
L 538 3284 
L 1034 3284 
L 1034 2603 
L 1047 2603 
Q 1159 2950 1389 3145 
Q 1619 3341 1903 3341 
Q 2109 3341 2225 3297 
L 2225 2775 
z
" transform="scale(0.015625)"/>
       <path id="MalgunGothic-79" d="M 3119 3284 
L 1597 -544 
Q 1197 -1547 481 -1547 
Q 313 -1547 156 -1509 
L 156 -1056 
Q 316 -1109 459 -1109 
Q 859 -1109 1059 -628 
L 1328 6 
L 47 3284 
L 597 3284 
L 1503 722 
Q 1513 697 1572 488 
L 1588 488 
L 1650 716 
L 2603 3284 
L 3119 3284 
z
" transform="scale(0.015625)"/>
       <path id="MalgunGothic-d5c8" d="M 4941 -563 
L 4941 2272 
L 3884 2272 
L 3884 2688 
L 4941 2688 
L 4941 5466 
L 5409 5466 
L 5409 -563 
L 4941 -563 
z
M 422 4072 
L 422 4488 
L 2003 4488 
L 2003 5453 
L 2478 5453 
L 2478 4488 
L 4063 4488 
L 4063 4072 
L 422 4072 
z
M 2181 903 
Q 1519 903 1111 1300 
Q 703 1697 703 2284 
Q 703 2881 1109 3278 
Q 1516 3675 2181 3675 
Q 2847 3675 3253 3278 
Q 3659 2881 3659 2284 
Q 3659 1697 3251 1300 
Q 2844 903 2181 903 
z
M 2181 3263 
Q 1731 3263 1442 2978 
Q 1153 2694 1153 2284 
Q 1153 1878 1442 1595 
Q 1731 1313 2181 1313 
Q 2634 1313 2923 1595 
Q 3213 1878 3213 2284 
Q 3213 2694 2925 2978 
Q 2638 3263 2181 3263 
z
" transform="scale(0.015625)"/>
      </defs>
      <use xlink:href="#MalgunGothic-49"/>
      <use xlink:href="#MalgunGothic-6d" transform="translate(27.001953 0)"/>
      <use xlink:href="#MalgunGothic-61" transform="translate(114.990234 0)"/>
      <use xlink:href="#MalgunGothic-67" transform="translate(166.992188 0)"/>
      <use xlink:href="#MalgunGothic-69" transform="translate(227.197266 0)"/>
      <use xlink:href="#MalgunGothic-6e" transform="translate(251.806641 0)"/>
      <use xlink:href="#MalgunGothic-61" transform="translate(309.619141 0)"/>
      <use xlink:href="#MalgunGothic-72" transform="translate(361.621094 0)"/>
      <use xlink:href="#MalgunGothic-79" transform="translate(401.347656 0)"/>
      <use xlink:href="#MalgunGothic-20" transform="translate(450.615234 0)"/>
      <use xlink:href="#MalgunGothic-28" transform="translate(485.771484 0)"/>
      <use xlink:href="#MalgunGothic-d5c8" transform="translate(516.240234 0)"/>
      <use xlink:href="#MalgunGothic-c218" transform="translate(616.240234 0)"/>
      <use xlink:href="#MalgunGothic-cd95" transform="translate(716.240234 0)"/>
      <use xlink:href="#MalgunGothic-29" transform="translate(816.240234 0)"/>
     </g>
    </g>
   </g>
   <g id="line2d_29">
    <path d="M 47.644219 195.389844 
L 380.284219 195.389844 
" clip-path="url(#p572beb473f)" style="fill: none; stroke: #888888; stroke-width: 0.8; stroke-linecap: square"/>
   </g>
   <g id="line2d_30">
    <path d="M 213.964219 361.709844 
L 213.964219 29.069844 
" clip-path="url(#p572beb473f)" style="fill: none; stroke: #888888; stroke-width: 0.8; stroke-linecap: square"/>
   </g>
   <g id="line2d_31">
    <defs>
     <path id="m1e44cd713b" d="M 0 5 
C 1.326016 5 2.597899 4.473168 3.535534 3.535534 
C 4.473168 2.597899 5 1.326016 5 0 
C 5 -1.326016 4.473168 -2.597899 3.535534 -3.535534 
C 2.597899 -4.473168 1.326016 -5 0 -5 
C -1.326016 -5 -2.597899 -4.473168 -3.535534 -3.535534 
C -4.473168 -2.597899 -5 -1.326016 -5 0 
C -5 1.326016 -4.473168 2.597899 -3.535534 3.535534 
C -2.597899 4.473168 -1.326016 5 0 5 
z
" style="stroke: #1f77b4"/>
    </defs>
    <g clip-path="url(#p572beb473f)">
     <use xlink:href="#m1e44cd713b" x="311.799513" y="195.389844" style="fill: #1f77b4; stroke: #1f77b4"/>
    </g>
   </g>
   <g id="line2d_32">
    <defs>
     <path id="m18250ea21d" d="M 0 5 
C 1.326016 5 2.597899 4.473168 3.535534 3.535534 
C 4.473168 2.597899 5 1.326016 5 0 
C 5 -1.326016 4.473168 -2.597899 3.535534 -3.535534 
C 2.597899 -4.473168 1.326016 -5 0 -5 
C -1.326016 -5 -2.597899 -4.473168 -3.535534 -3.535534 
C -4.473168 -2.597899 -5 -1.326016 -5 0 
C -5 1.326016 -4.473168 2.597899 -3.535534 3.535534 
C -2.597899 4.473168 -1.326016 5 0 5 
z
" style="stroke: #2ca02c"/>
    </defs>
    <g clip-path="url(#p572beb473f)">
     <use xlink:href="#m18250ea21d" x="213.964219" y="97.55455" style="fill: #2ca02c; stroke: #2ca02c"/>
    </g>
   </g>
   <g id="line2d_33">
    <defs>
     <path id="m84d6dd67fe" d="M 0 5 
C 1.326016 5 2.597899 4.473168 3.535534 3.535534 
C 4.473168 2.597899 5 1.326016 5 0 
C 5 -1.326016 4.473168 -2.597899 3.535534 -3.535534 
C 2.597899 -4.473168 1.326016 -5 0 -5 
C -1.326016 -5 -2.597899 -4.473168 -3.535534 -3.535534 
C -4.473168 -2.597899 -5 -1.326016 -5 0 
C -5 1.326016 -4.473168 2.597899 -3.535534 3.535534 
C -2.597899 4.473168 -1.326016 5 0 5 
z
" style="stroke: #d62728"/>
    </defs>
    <g clip-path="url(#p572beb473f)">
     <use xlink:href="#m84d6dd67fe" x="116.128925" y="195.389844" style="fill: #d62728; stroke: #d62728"/>
    </g>
   </g>
   <g id="line2d_34">
    <defs>
     <path id="me0489aa6b9" d="M 0 5 
C 1.326016 5 2.597899 4.473168 3.535534 3.535534 
C 4.473168 2.597899 5 1.326016 5 0 
C 5 -1.326016 4.473168 -2.597899 3.535534 -3.535534 
C 2.597899 -4.473168 1.326016 -5 0 -5 
C -1.326016 -5 -2.597899 -4.473168 -3.535534 -3.535534 
C -4.473168 -2.597899 -5 -1.326016 -5 0 
C -5 1.326016 -4.473168 2.597899 -3.535534 3.535534 
C -2.597899 4.473168 -1.326016 5 0 5 
z
" style="stroke: #9467bd"/>
    </defs>
    <g clip-path="url(#p572beb473f)">
     <use xlink:href="#me0489aa6b9" x="213.964219" y="293.225138" style="fill: #9467bd; stroke: #9467bd"/>
    </g>
   </g>
   <g id="line2d_35">
    <path d="M 341.150101 195.389844 
L 340.963572 188.504139 
L 340.404532 181.638631 
L 339.474621 174.813458 
L 338.176566 168.048639 
L 336.514175 161.364016 
L 334.492323 154.779197 
L 332.116943 148.313496 
L 329.394999 141.985878 
L 326.334478 135.814903 
L 322.944355 129.818672 
L 319.234574 124.014772 
L 315.216018 118.420227 
L 310.900472 113.051448 
L 306.300596 107.924181 
L 301.429881 103.053467 
L 296.302615 98.45359 
L 290.933835 94.138045 
L 285.339291 90.119488 
L 279.535391 86.409708 
L 273.53916 83.019585 
L 267.368185 79.959063 
L 261.040567 77.23712 
L 254.574866 74.861739 
L 247.990047 72.839888 
L 241.305424 71.177497 
L 234.540605 69.879442 
L 227.715432 68.94953 
L 220.849924 68.39049 
L 213.964219 68.203961 
" clip-path="url(#p572beb473f)" style="fill: none; stroke: #ff7f0e; stroke-opacity: 0.6; stroke-width: 1.2; stroke-linecap: square"/>
   </g>
   <g id="line2d_36">
    <path d="M 213.964219 68.203961 
L 207.078514 68.39049 
L 200.213006 68.94953 
L 193.387833 69.879442 
L 186.623014 71.177497 
L 179.938391 72.839888 
L 173.353572 74.861739 
L 166.887871 77.23712 
L 160.560253 79.959063 
L 154.389278 83.019585 
L 148.393047 86.409708 
L 142.589147 90.119488 
L 136.994602 94.138045 
L 131.625823 98.45359 
L 126.498556 103.053467 
L 121.627842 107.924181 
L 117.027965 113.051448 
L 112.71242 118.420227 
L 108.693863 124.014772 
L 104.984083 129.818672 
L 101.59396 135.814903 
L 98.533438 141.985878 
L 95.811495 148.313496 
L 93.436114 154.779197 
L 91.414263 161.364016 
L 89.751872 168.048639 
L 88.453817 174.813458 
L 87.523905 181.638631 
L 86.964865 188.504139 
L 86.778336 195.389844 
" clip-path="url(#p572beb473f)" style="fill: none; stroke: #ff7f0e; stroke-opacity: 0.6; stroke-width: 1.2; stroke-linecap: square"/>
   </g>
   <g id="line2d_37">
    <path d="M 86.778336 195.389844 
L 86.964865 202.275549 
L 87.523905 209.141057 
L 88.453817 215.96623 
L 89.751872 222.731049 
L 91.414263 229.415672 
L 93.436114 236.000491 
L 95.811495 242.466192 
L 98.533438 248.79381 
L 101.59396 254.964785 
L 104.984083 260.961016 
L 108.693863 266.764916 
L 112.71242 272.35946 
L 117.027965 277.72824 
L 121.627842 282.855506 
L 126.498556 287.726221 
L 131.625823 292.326097 
L 136.994602 296.641643 
L 142.589147 300.660199 
L 148.393047 304.36998 
L 154.389278 307.760103 
L 160.560253 310.820624 
L 166.887871 313.542568 
L 173.353572 315.917948 
L 179.938391 317.9398 
L 186.623014 319.602191 
L 193.387833 320.900246 
L 200.213006 321.830157 
L 207.078514 322.389197 
L 213.964219 322.575726 
" clip-path="url(#p572beb473f)" style="fill: none; stroke: #ff7f0e; stroke-opacity: 0.6; stroke-width: 1.2; stroke-linecap: square"/>
   </g>
   <g id="line2d_38">
    <path d="M 213.964219 322.575726 
L 220.849924 322.389197 
L 227.715432 321.830157 
L 234.540605 320.900246 
L 241.305424 319.602191 
L 247.990047 317.9398 
L 254.574866 315.917948 
L 261.040567 313.542568 
L 267.368185 310.820624 
L 273.53916 307.760103 
L 279.535391 304.36998 
L 285.339291 300.660199 
L 290.933835 296.641643 
L 296.302615 292.326097 
L 301.429881 287.726221 
L 306.300596 282.855506 
L 310.900472 277.72824 
L 315.216018 272.35946 
L 319.234574 266.764916 
L 322.944355 260.961016 
L 326.334478 254.964785 
L 329.394999 248.79381 
L 332.116943 242.466192 
L 334.492323 236.000491 
L 336.514175 229.415672 
L 338.176566 222.731049 
L 339.474621 215.96623 
L 340.404532 209.141057 
L 340.963572 202.275549 
L 341.150101 195.389844 
" clip-path="url(#p572beb473f)" style="fill: none; stroke: #ff7f0e; stroke-opacity: 0.6; stroke-width: 1.2; stroke-linecap: square"/>
   </g>
   <g id="patch_3">
    <path d="M 47.644219 361.709844 
L 47.644219 29.069844 
" style="fill: none; stroke: #000000; stroke-width: 0.8; stroke-linejoin: miter; stroke-linecap: square"/>
   </g>
   <g id="patch_4">
    <path d="M 380.284219 361.709844 
L 380.284219 29.069844 
" style="fill: none; stroke: #000000; stroke-width: 0.8; stroke-linejoin: miter; stroke-linecap: square"/>
   </g>
   <g id="patch_5">
    <path d="M 47.644219 361.709844 
L 380.284219 361.709844 
" style="fill: none; stroke: #000000; stroke-width: 0.8; stroke-linejoin: miter; stroke-linecap: square"/>
   </g>
   <g id="patch_6">
    <path d="M 47.644219 29.069844 
L 380.284219 29.069844 
" style="fill: none; stroke: #000000; stroke-width: 0.8; stroke-linejoin: miter; stroke-linecap: square"/>
   </g>
   <g id="patch_7">
    <path d="M 215.96165 195.389844 
Q 262.881783 195.389844 307.565848 195.389844 
" style="fill: none; stroke: #1f77b4; stroke-width: 2; stroke-linecap: round"/>
    <path d="M 303.565848 193.389844 
L 307.565848 195.389844 
L 303.565848 197.389844 
" style="fill: none; stroke: #1f77b4; stroke-width: 2; stroke-linecap: round"/>
   </g>
   <g id="text_17">
    <!-- 1 -->
    <g style="fill: #1f77b4" transform="translate(326.474807 180.71455) scale(0.14 -0.14)">
     <defs>
      <path id="MalgunGothicBold-31" d="M 2534 4675 
L 2534 0 
L 1663 0 
L 1663 3616 
Q 1516 3481 1247 3365 
Q 978 3250 688 3216 
L 688 3988 
Q 1375 4194 1984 4675 
L 2534 4675 
z
" transform="scale(0.015625)"/>
     </defs>
     <use xlink:href="#MalgunGothicBold-31"/>
    </g>
   </g>
   <g id="patch_8">
    <path d="M 213.964219 193.392413 
Q 213.964219 146.47228 213.964219 101.788215 
" style="fill: none; stroke: #2ca02c; stroke-width: 2; stroke-linecap: round"/>
    <path d="M 211.964219 105.788215 
L 213.964219 101.788215 
L 215.964219 105.788215 
" style="fill: none; stroke: #2ca02c; stroke-width: 2; stroke-linecap: round"/>
   </g>
   <g id="text_18">
    <!-- i -->
    <g style="fill: #2ca02c" transform="translate(228.639513 82.879256) scale(0.14 -0.14)">
     <defs>
      <path id="MalgunGothicBold-69" d="M 375 4366 
Q 375 4566 517 4700 
Q 659 4834 884 4834 
Q 1103 4834 1250 4701 
Q 1397 4569 1397 4366 
Q 1397 4163 1251 4028 
Q 1106 3894 884 3894 
Q 663 3894 519 4031 
Q 375 4169 375 4366 
z
M 444 0 
L 444 3284 
L 1313 3284 
L 1313 0 
L 444 0 
z
" transform="scale(0.015625)"/>
     </defs>
     <use xlink:href="#MalgunGothicBold-69"/>
    </g>
   </g>
   <g id="patch_9">
    <path d="M 211.966788 195.389844 
Q 165.046655 195.389844 120.36259 195.389844 
" style="fill: none; stroke: #d62728; stroke-width: 2; stroke-linecap: round"/>
    <path d="M 124.36259 197.389844 
L 120.36259 195.389844 
L 124.36259 193.389844 
" style="fill: none; stroke: #d62728; stroke-width: 2; stroke-linecap: round"/>
   </g>
   <g id="text_19">
    <!-- -1 -->
    <g style="fill: #d62728" transform="translate(101.453631 180.71455) scale(0.14 -0.14)">
     <defs>
      <path id="MalgunGothicBold-2d" d="M 2213 1463 
L 459 1463 
L 459 2088 
L 2213 2088 
L 2213 1463 
z
" transform="scale(0.015625)"/>
     </defs>
     <use xlink:href="#MalgunGothicBold-2d"/>
     <use xlink:href="#MalgunGothicBold-31" transform="translate(41.357422 0)"/>
    </g>
   </g>
   <g id="patch_10">
    <path d="M 213.964219 197.387275 
Q 213.964219 244.307408 213.964219 288.991473 
" style="fill: none; stroke: #9467bd; stroke-width: 2; stroke-linecap: round"/>
    <path d="M 215.964219 284.991473 
L 213.964219 288.991473 
L 211.964219 284.991473 
" style="fill: none; stroke: #9467bd; stroke-width: 2; stroke-linecap: round"/>
   </g>
   <g id="text_20">
    <!-- -i -->
    <g style="fill: #9467bd" transform="translate(228.639513 307.900432) scale(0.14 -0.14)">
     <use xlink:href="#MalgunGothicBold-2d"/>
     <use xlink:href="#MalgunGothicBold-69" transform="translate(41.357422 0)"/>
    </g>
   </g>
   <g id="patch_11">
    <path d="M 218.318893 68.312851 
Q 217.143046 68.283449 217.643726 68.295968 
" style="fill: none; stroke: #ff7f0e; stroke-width: 1.5; stroke-linecap: round"/>
    <path d="M 221.592481 70.395333 
L 217.643726 68.295968 
L 221.692471 66.396583 
" style="fill: none; stroke: #ff7f0e; stroke-width: 1.5; stroke-linecap: round"/>
   </g>
   <g id="patch_12">
    <path d="M 86.887226 191.03517 
Q 86.857824 192.211017 86.870343 191.710337 
" style="fill: none; stroke: #ff7f0e; stroke-width: 1.5; stroke-linecap: round"/>
    <path d="M 88.969708 187.761582 
L 86.870343 191.710337 
L 84.970958 187.661592 
" style="fill: none; stroke: #ff7f0e; stroke-width: 1.5; stroke-linecap: round"/>
   </g>
   <g id="patch_13">
    <path d="M 209.609545 322.466837 
Q 210.785392 322.496239 210.284712 322.483719 
" style="fill: none; stroke: #ff7f0e; stroke-width: 1.5; stroke-linecap: round"/>
    <path d="M 206.335957 320.384355 
L 210.284712 322.483719 
L 206.235967 324.383105 
" style="fill: none; stroke: #ff7f0e; stroke-width: 1.5; stroke-linecap: round"/>
   </g>
   <g id="patch_14">
    <path d="M 341.041212 199.744518 
Q 341.070614 198.568671 341.058094 199.069351 
" style="fill: none; stroke: #ff7f0e; stroke-width: 1.5; stroke-linecap: round"/>
    <path d="M 338.95873 203.018106 
L 341.058094 199.069351 
L 342.95748 203.118096 
" style="fill: none; stroke: #ff7f0e; stroke-width: 1.5; stroke-linecap: round"/>
   </g>
   <g id="text_21">
    <!-- ×i -->
    <g style="fill: #ff7f0e" transform="translate(316.691278 92.662785) scale(0.11 -0.11)">
     <defs>
      <path id="MalgunGothic-d7" d="M 3622 831 
L 3328 538 
L 2238 1628 
L 1156 538 
L 863 831 
L 1956 1916 
L 863 3003 
L 1159 3294 
L 2238 2203 
L 3328 3294 
L 3622 3003 
L 2531 1916 
L 3622 831 
z
" transform="scale(0.015625)"/>
     </defs>
     <use xlink:href="#MalgunGothic-d7"/>
     <use xlink:href="#MalgunGothic-69" transform="translate(70.068359 0)"/>
    </g>
   </g>
   <g id="text_22">
    <!-- i 곱셈 = 90° 시계반대방향 회전 -->
    <g transform="translate(121.710937 17.069844) scale(0.13 -0.13)">
     <defs>
      <path id="MalgunGothic-acf1" d="M 5166 5300 
Q 5166 4075 5088 3413 
L 4641 3438 
Q 4703 4041 4703 4891 
L 1369 4891 
L 1369 5300 
L 5166 5300 
z
M 403 2578 
L 403 2994 
L 2778 2994 
L 2778 4134 
L 3238 4134 
L 3238 2994 
L 5997 2994 
L 5997 2578 
L 403 2578 
z
M 1331 -397 
L 1331 1984 
L 1791 1984 
L 1791 1197 
L 4609 1197 
L 4609 1984 
L 5069 1984 
L 5069 -397 
L 1331 -397 
z
M 4609 788 
L 1791 788 
L 1791 13 
L 4609 13 
L 4609 788 
z
" transform="scale(0.015625)"/>
      <path id="MalgunGothic-c148" d="M 5056 2125 
L 5056 5466 
L 5522 5466 
L 5522 2125 
L 5056 2125 
z
M 3975 2125 
L 3975 3788 
L 2994 3788 
L 2994 4213 
L 3975 4213 
L 3975 5344 
L 4434 5344 
L 4434 2125 
L 3975 2125 
z
M 3169 2406 
Q 2834 2597 2479 3001 
Q 2125 3406 1991 3725 
Q 1875 3363 1525 2927 
Q 1175 2491 794 2253 
L 453 2566 
Q 1025 2859 1389 3421 
Q 1753 3984 1753 4616 
L 1753 5253 
L 2209 5253 
L 2209 4616 
Q 2209 4031 2582 3507 
Q 2956 2984 3475 2753 
L 3169 2406 
z
M 1747 -397 
L 1747 1784 
L 5522 1784 
L 5522 -397 
L 1747 -397 
z
M 5063 1369 
L 2209 1369 
L 2209 13 
L 5063 13 
L 5063 1369 
z
" transform="scale(0.015625)"/>
      <path id="MalgunGothic-3d" d="M 3750 2397 
L 744 2397 
L 744 2803 
L 3750 2803 
L 3750 2397 
z
M 3750 1031 
L 744 1031 
L 744 1441 
L 3750 1441 
L 3750 1031 
z
" transform="scale(0.015625)"/>
      <path id="MalgunGothic-39" d="M 556 563 
Q 941 344 1366 344 
Q 1994 344 2347 855 
Q 2700 1366 2700 2313 
Q 2694 2306 2688 2313 
Q 2388 1713 1653 1713 
Q 1059 1713 682 2120 
Q 306 2528 306 3144 
Q 306 3806 711 4240 
Q 1116 4675 1772 4675 
Q 2466 4675 2833 4131 
Q 3200 3588 3200 2578 
Q 3200 1319 2717 620 
Q 2234 -78 1344 -78 
Q 881 -78 556 78 
L 556 563 
z
M 813 3219 
Q 813 2741 1063 2450 
Q 1313 2159 1759 2159 
Q 2147 2159 2406 2417 
Q 2666 2675 2666 3047 
Q 2666 3556 2411 3903 
Q 2156 4250 1725 4250 
Q 1322 4250 1067 3948 
Q 813 3647 813 3219 
z
" transform="scale(0.015625)"/>
      <path id="MalgunGothic-b0" d="M 1234 4675 
Q 1597 4675 1858 4415 
Q 2119 4156 2119 3788 
Q 2119 3422 1859 3162 
Q 1600 2903 1234 2903 
Q 872 2903 611 3161 
Q 350 3419 350 3788 
Q 350 4156 611 4415 
Q 872 4675 1234 4675 
z
M 1234 3278 
Q 1441 3278 1594 3428 
Q 1747 3578 1747 3788 
Q 1747 3997 1595 4148 
Q 1444 4300 1234 4300 
Q 1025 4300 875 4147 
Q 725 3994 725 3788 
Q 725 3578 875 3428 
Q 1025 3278 1234 3278 
z
" transform="scale(0.015625)"/>
      <path id="MalgunGothic-c2dc" d="M 4947 -563 
L 4947 5466 
L 5416 5466 
L 5416 -563 
L 4947 -563 
z
M 3769 966 
Q 3263 1353 2820 1939 
Q 2378 2525 2259 2950 
Q 2116 2463 1687 1872 
Q 1259 1281 756 891 
L 397 1203 
Q 1141 1703 1581 2479 
Q 2022 3256 2022 4063 
L 2022 5050 
L 2484 5050 
L 2484 4084 
Q 2484 3303 2920 2556 
Q 3356 1809 4097 1331 
L 3769 966 
z
" transform="scale(0.015625)"/>
      <path id="MalgunGothic-acc4" d="M 5044 -563 
L 5044 5466 
L 5509 5466 
L 5509 -563 
L 5044 -563 
z
M 3938 -366 
L 3938 1925 
L 2700 1925 
L 2700 2344 
L 3938 2344 
L 3938 3616 
L 2869 3616 
Q 2366 1953 813 878 
L 441 1197 
Q 1263 1634 1891 2575 
Q 2519 3516 2584 4531 
L 800 4531 
L 800 4941 
L 3078 4941 
Q 3056 4409 2969 4031 
L 3938 4031 
L 3938 5344 
L 4397 5344 
L 4397 -366 
L 3938 -366 
z
" transform="scale(0.015625)"/>
      <path id="MalgunGothic-bc18" d="M 5125 3169 
L 5125 1063 
L 4659 1063 
L 4659 5466 
L 5125 5466 
L 5125 3591 
L 6034 3591 
L 6034 3169 
L 5125 3169 
z
M 756 2119 
L 756 5178 
L 1216 5178 
L 1216 4019 
L 3059 4019 
L 3059 5178 
L 3519 5178 
L 3519 2119 
L 756 2119 
z
M 3059 3603 
L 1216 3603 
L 1216 2534 
L 3059 2534 
L 3059 3603 
z
M 1453 -372 
L 1453 1478 
L 1919 1478 
L 1919 44 
L 5294 44 
L 5294 -372 
L 1453 -372 
z
" transform="scale(0.015625)"/>
      <path id="MalgunGothic-b300" d="M 5069 -563 
L 5069 2572 
L 4294 2572 
L 4294 -378 
L 3834 -378 
L 3834 5344 
L 4294 5344 
L 4294 2988 
L 5069 2988 
L 5069 5466 
L 5538 5466 
L 5538 -563 
L 5069 -563 
z
M 3391 1153 
Q 2516 1063 825 1063 
L 825 4934 
L 3138 4934 
L 3138 4519 
L 1288 4519 
L 1288 1478 
L 1844 1478 
Q 2791 1478 3359 1550 
L 3391 1153 
z
" transform="scale(0.015625)"/>
      <path id="MalgunGothic-bc29" d="M 5125 3378 
L 5125 1900 
L 4659 1900 
L 4659 5466 
L 5125 5466 
L 5125 3794 
L 6034 3794 
L 6034 3378 
L 5125 3378 
z
M 756 2344 
L 756 5184 
L 1216 5184 
L 1216 4141 
L 3059 4141 
L 3059 5184 
L 3519 5184 
L 3519 2344 
L 756 2344 
z
M 3059 3731 
L 1216 3731 
L 1216 2753 
L 3059 2753 
L 3059 3731 
z
M 3263 -481 
Q 2319 -481 1809 -176 
Q 1300 128 1300 641 
Q 1300 1144 1808 1445 
Q 2316 1747 3263 1747 
Q 4213 1747 4720 1448 
Q 5228 1150 5228 641 
Q 5228 122 4717 -179 
Q 4206 -481 3263 -481 
z
M 3263 1344 
Q 2547 1344 2172 1159 
Q 1797 975 1797 641 
Q 1797 303 2176 112 
Q 2556 -78 3263 -78 
Q 3978 -78 4358 114 
Q 4738 306 4738 641 
Q 4738 972 4363 1158 
Q 3988 1344 3263 1344 
z
" transform="scale(0.015625)"/>
      <path id="MalgunGothic-d5a5" d="M 447 4325 
L 447 4744 
L 1997 4744 
L 1997 5497 
L 2463 5497 
L 2463 4744 
L 4013 4744 
L 4013 4325 
L 447 4325 
z
M 5125 2559 
L 5125 1678 
L 4659 1678 
L 4659 5466 
L 5125 5466 
L 5125 4281 
L 6034 4281 
L 6034 3878 
L 5125 3878 
L 5125 2969 
L 6034 2969 
L 6034 2559 
L 5125 2559 
z
M 2241 1966 
Q 1544 1966 1150 2252 
Q 756 2538 756 2994 
Q 756 3453 1154 3742 
Q 1553 4031 2247 4031 
Q 2941 4031 3339 3742 
Q 3738 3453 3738 2994 
Q 3738 2544 3339 2255 
Q 2941 1966 2241 1966 
z
M 2247 3634 
Q 1763 3634 1489 3456 
Q 1216 3278 1216 2994 
Q 1216 2713 1487 2538 
Q 1759 2363 2247 2363 
Q 2734 2363 3006 2538 
Q 3278 2713 3278 2994 
Q 3278 3278 3004 3456 
Q 2731 3634 2247 3634 
z
M 3263 -519 
Q 2306 -519 1803 -244 
Q 1300 31 1300 531 
Q 1300 1034 1803 1320 
Q 2306 1606 3263 1606 
Q 4222 1606 4725 1322 
Q 5228 1038 5228 531 
Q 5228 28 4723 -245 
Q 4219 -519 3263 -519 
z
M 3263 1209 
Q 1797 1209 1797 531 
Q 1797 -147 3263 -147 
Q 4738 -147 4738 531 
Q 4738 1209 3263 1209 
z
" transform="scale(0.015625)"/>
      <path id="MalgunGothic-d68c" d="M 4997 -563 
L 4997 5466 
L 5466 5466 
L 5466 -563 
L 4997 -563 
z
M 2247 5453 
L 2713 5453 
L 2713 4666 
L 4275 4666 
L 4275 4250 
L 672 4250 
L 672 4666 
L 2247 4666 
L 2247 5453 
z
M 2706 1728 
L 2706 863 
L 3838 900 
Q 4341 916 4531 934 
L 4556 531 
Q 4063 491 2667 459 
Q 1272 428 513 428 
L 469 838 
Q 1413 838 2247 856 
L 2247 1728 
Q 1628 1784 1293 2082 
Q 959 2381 959 2816 
Q 959 3313 1368 3620 
Q 1778 3928 2484 3928 
Q 3184 3928 3589 3622 
Q 3994 3316 3994 2853 
Q 3994 2400 3656 2092 
Q 3319 1784 2706 1728 
z
M 2484 3534 
Q 2003 3534 1718 3332 
Q 1434 3131 1434 2816 
Q 1434 2506 1711 2312 
Q 1988 2119 2484 2119 
Q 2978 2119 3251 2314 
Q 3525 2509 3525 2816 
Q 3525 3128 3245 3331 
Q 2966 3534 2484 3534 
z
" transform="scale(0.015625)"/>
      <path id="MalgunGothic-c804" d="M 4878 1178 
L 4878 3525 
L 3469 3525 
L 3469 3944 
L 4878 3944 
L 4878 5466 
L 5344 5466 
L 5344 1178 
L 4878 1178 
z
M 3675 2069 
Q 3228 2344 2829 2776 
Q 2431 3209 2266 3566 
Q 2091 3150 1662 2648 
Q 1234 2147 819 1913 
L 481 2234 
Q 1125 2559 1573 3198 
Q 2022 3838 2022 4494 
L 2022 4716 
L 684 4716 
L 684 5141 
L 3788 5141 
L 3788 4716 
L 2478 4716 
L 2478 4494 
Q 2478 3894 2943 3286 
Q 3409 2678 3988 2406 
L 3675 2069 
z
M 1631 -366 
L 1631 1606 
L 2100 1606 
L 2100 44 
L 5503 44 
L 5503 -366 
L 1631 -366 
z
" transform="scale(0.015625)"/>
     </defs>
     <use xlink:href="#MalgunGothic-69"/>
     <use xlink:href="#MalgunGothic-20" transform="translate(24.609375 0)"/>
     <use xlink:href="#MalgunGothic-acf1" transform="translate(59.765625 0)"/>
     <use xlink:href="#MalgunGothic-c148" transform="translate(159.765625 0)"/>
     <use xlink:href="#MalgunGothic-20" transform="translate(259.765625 0)"/>
     <use xlink:href="#MalgunGothic-3d" transform="translate(294.921875 0)"/>
     <use xlink:href="#MalgunGothic-20" transform="translate(364.990234 0)"/>
     <use xlink:href="#MalgunGothic-39" transform="translate(400.146484 0)"/>
     <use xlink:href="#MalgunGothic-30" transform="translate(455.224609 0)"/>
     <use xlink:href="#MalgunGothic-b0" transform="translate(510.302734 0)"/>
     <use xlink:href="#MalgunGothic-20" transform="translate(548.974609 0)"/>
     <use xlink:href="#MalgunGothic-c2dc" transform="translate(584.130859 0)"/>
     <use xlink:href="#MalgunGothic-acc4" transform="translate(684.130859 0)"/>
     <use xlink:href="#MalgunGothic-bc18" transform="translate(784.130859 0)"/>
     <use xlink:href="#MalgunGothic-b300" transform="translate(884.130859 0)"/>
     <use xlink:href="#MalgunGothic-bc29" transform="translate(984.130859 0)"/>
     <use xlink:href="#MalgunGothic-d5a5" transform="translate(1084.130859 0)"/>
     <use xlink:href="#MalgunGothic-20" transform="translate(1184.130859 0)"/>
     <use xlink:href="#MalgunGothic-d68c" transform="translate(1219.287109 0)"/>
     <use xlink:href="#MalgunGothic-c804" transform="translate(1319.287109 0)"/>
    </g>
   </g>
  </g>
 </g>
 <defs>
  <clipPath id="p572beb473f">
   <rect x="47.644219" y="29.069844" width="332.64" height="332.64"/>
  </clipPath>
 </defs>
</svg>
