<?xml version="1.0" encoding="utf-8" standalone="no"?>
<!DOCTYPE svg PUBLIC "-//W3C//DTD SVG 1.1//EN"
  "http://www.w3.org/Graphics/SVG/1.1/DTD/svg11.dtd">
<svg xmlns:xlink="http://www.w3.org/1999/xlink" width="399.850281pt" height="401.141094pt" viewBox="0 0 399.850281 401.141094" xmlns="http://www.w3.org/2000/svg" version="1.1">
 <metadata>
  <rdf:RDF xmlns:dc="http://purl.org/dc/elements/1.1/" xmlns:cc="http://creativecommons.org/ns#" xmlns:rdf="http://www.w3.org/1999/02/22-rdf-syntax-ns#">
   <cc:Work>
    <dc:type rdf:resource="http://purl.org/dc/dcmitype/StillImage"/>
    <dc:date>2026-05-05T20:13:38.309019</dc:date>
    <dc:format>image/svg+xml</dc:format>
    <dc:creator>
     <cc:Agent>
      <dc:title>Matplotlib v3.10.7, https://matplotlib.org/</dc:title>
     </cc:Agent>
    </dc:creator>
   </cc:Work>
  </rdf:RDF>
 </metadata>
 <defs>
  <style type="text/css">*{stroke-linejoin: round; stroke-linecap: butt}</style>
 </defs>
 <g id="figure_1">
  <g id="patch_1">
   <path d="M 0 401.141094 
L 399.850281 401.141094 
L 399.850281 0 
L 0 0 
z
" style="fill: #ffffff"/>
  </g>
  <g id="axes_1">
   <g id="patch_2">
    <path d="M 39.948906 361.709844 
L 372.588906 361.709844 
L 372.588906 29.069844 
L 39.948906 29.069844 
z
" style="fill: #ffffff"/>
   </g>
   <g id="matplotlib.axis_1">
    <g id="xtick_1">
     <g id="line2d_1">
      <path d="M 39.948906 361.709844 
L 39.948906 29.069844 
" clip-path="url(#pe5969be0f1)" style="fill: none; stroke-dasharray: 0.8,1.32; stroke-dashoffset: 0; stroke: #b0b0b0; stroke-opacity: 0.5; stroke-width: 0.8"/>
     </g>
     <g id="line2d_2">
      <defs>
       <path id="mf578e2b562" d="M 0 0 
L 0 3.5 
" style="stroke: #000000; stroke-width: 0.8"/>
      </defs>
      <g>
       <use xlink:href="#mf578e2b562" x="39.948906" y="361.709844" style="stroke: #000000; stroke-width: 0.8"/>
      </g>
     </g>
     <g id="text_1">
      <!-- -4 -->
      <g transform="translate(35.144219 376.302031) scale(0.1 -0.1)">
       <defs>
        <path id="MalgunGothic-2d" d="M 2213 1634 
L 463 1634 
L 463 2031 
L 2213 2031 
L 2213 1634 
z
" transform="scale(0.015625)"/>
        <path id="MalgunGothic-34" d="M 2703 4600 
L 2703 1563 
L 3309 1563 
L 3309 1113 
L 2703 1113 
L 2703 0 
L 2213 0 
L 2213 1113 
L 50 1113 
L 50 1534 
Q 728 2297 1295 3109 
Q 1863 3922 2172 4600 
L 2703 4600 
z
M 625 1563 
L 2213 1563 
L 2213 3831 
Q 1613 2788 959 1981 
L 625 1563 
z
" transform="scale(0.015625)"/>
       </defs>
       <use xlink:href="#MalgunGothic-2d"/>
       <use xlink:href="#MalgunGothic-34" transform="translate(41.015625 0)"/>
      </g>
     </g>
    </g>
    <g id="xtick_2">
     <g id="line2d_3">
      <path d="M 81.528906 361.709844 
L 81.528906 29.069844 
" clip-path="url(#pe5969be0f1)" style="fill: none; stroke-dasharray: 0.8,1.32; stroke-dashoffset: 0; stroke: #b0b0b0; stroke-opacity: 0.5; stroke-width: 0.8"/>
     </g>
     <g id="line2d_4">
      <g>
       <use xlink:href="#mf578e2b562" x="81.528906" y="361.709844" style="stroke: #000000; stroke-width: 0.8"/>
      </g>
     </g>
     <g id="text_2">
      <!-- -3 -->
      <g transform="translate(76.724219 376.302031) scale(0.1 -0.1)">
       <defs>
        <path id="MalgunGothic-33" d="M 416 719 
Q 891 344 1478 344 
Q 1959 344 2254 587 
Q 2550 831 2550 1247 
Q 2550 2169 1253 2169 
L 872 2169 
L 872 2591 
L 1234 2591 
Q 2388 2591 2388 3453 
Q 2388 4250 1509 4250 
Q 1022 4250 594 3916 
L 594 4413 
Q 1031 4675 1634 4675 
Q 2184 4675 2539 4372 
Q 2894 4069 2894 3581 
Q 2894 2678 1972 2409 
L 1972 2400 
Q 2469 2356 2764 2053 
Q 3059 1750 3059 1300 
Q 3059 672 2604 297 
Q 2150 -78 1450 -78 
Q 806 -78 416 169 
L 416 719 
z
" transform="scale(0.015625)"/>
       </defs>
       <use xlink:href="#MalgunGothic-2d"/>
       <use xlink:href="#MalgunGothic-33" transform="translate(41.015625 0)"/>
      </g>
     </g>
    </g>
    <g id="xtick_3">
     <g id="line2d_5">
      <path d="M 123.108906 361.709844 
L 123.108906 29.069844 
" clip-path="url(#pe5969be0f1)" style="fill: none; stroke-dasharray: 0.8,1.32; stroke-dashoffset: 0; stroke: #b0b0b0; stroke-opacity: 0.5; stroke-width: 0.8"/>
     </g>
     <g id="line2d_6">
      <g>
       <use xlink:href="#mf578e2b562" x="123.108906" y="361.709844" style="stroke: #000000; stroke-width: 0.8"/>
      </g>
     </g>
     <g id="text_3">
      <!-- -2 -->
      <g transform="translate(118.304219 376.302031) scale(0.1 -0.1)">
       <defs>
        <path id="MalgunGothic-32" d="M 2519 3372 
Q 2519 3784 2275 4018 
Q 2031 4253 1628 4253 
Q 1341 4253 1053 4104 
Q 766 3956 534 3697 
L 534 4234 
Q 981 4675 1691 4675 
Q 2281 4675 2642 4334 
Q 3003 3994 3003 3416 
Q 3003 2919 2772 2545 
Q 2541 2172 1984 1775 
Q 1459 1406 1254 1215 
Q 1050 1025 967 854 
Q 884 684 884 450 
L 3116 450 
L 3116 0 
L 356 0 
L 356 225 
Q 356 603 461 870 
Q 566 1138 811 1392 
Q 1056 1647 1597 2022 
Q 2091 2363 2305 2670 
Q 2519 2978 2519 3372 
z
" transform="scale(0.015625)"/>
       </defs>
       <use xlink:href="#MalgunGothic-2d"/>
       <use xlink:href="#MalgunGothic-32" transform="translate(41.015625 0)"/>
      </g>
     </g>
    </g>
    <g id="xtick_4">
     <g id="line2d_7">
      <path d="M 164.688906 361.709844 
L 164.688906 29.069844 
" clip-path="url(#pe5969be0f1)" style="fill: none; stroke-dasharray: 0.8,1.32; stroke-dashoffset: 0; stroke: #b0b0b0; stroke-opacity: 0.5; stroke-width: 0.8"/>
     </g>
     <g id="line2d_8">
      <g>
       <use xlink:href="#mf578e2b562" x="164.688906" y="361.709844" style="stroke: #000000; stroke-width: 0.8"/>
      </g>
     </g>
     <g id="text_4">
      <!-- -1 -->
      <g transform="translate(159.884219 376.302031) scale(0.1 -0.1)">
       <defs>
        <path id="MalgunGothic-31" d="M 2231 0 
L 1734 0 
L 1734 3972 
Q 1591 3828 1266 3661 
Q 941 3494 672 3428 
L 672 3959 
Q 1016 4056 1409 4275 
Q 1803 4494 2031 4700 
L 2231 4700 
L 2231 0 
z
" transform="scale(0.015625)"/>
       </defs>
       <use xlink:href="#MalgunGothic-2d"/>
       <use xlink:href="#MalgunGothic-31" transform="translate(41.015625 0)"/>
      </g>
     </g>
    </g>
    <g id="xtick_5">
     <g id="line2d_9">
      <path d="M 206.268906 361.709844 
L 206.268906 29.069844 
" clip-path="url(#pe5969be0f1)" style="fill: none; stroke-dasharray: 0.8,1.32; stroke-dashoffset: 0; stroke: #b0b0b0; stroke-opacity: 0.5; stroke-width: 0.8"/>
     </g>
     <g id="line2d_10">
      <g>
       <use xlink:href="#mf578e2b562" x="206.268906" y="361.709844" style="stroke: #000000; stroke-width: 0.8"/>
      </g>
     </g>
     <g id="text_5">
      <!-- 0 -->
      <g transform="translate(203.515 376.302031) scale(0.1 -0.1)">
       <defs>
        <path id="MalgunGothic-30" d="M 278 2206 
Q 278 3425 675 4050 
Q 1072 4675 1819 4675 
Q 3253 4675 3253 2319 
Q 3253 1156 2854 539 
Q 2456 -78 1716 -78 
Q 1016 -78 647 520 
Q 278 1119 278 2206 
z
M 784 2231 
Q 784 344 1769 344 
Q 2747 344 2747 2259 
Q 2747 4250 1794 4250 
Q 784 4250 784 2231 
z
" transform="scale(0.015625)"/>
       </defs>
       <use xlink:href="#MalgunGothic-30"/>
      </g>
     </g>
    </g>
    <g id="xtick_6">
     <g id="line2d_11">
      <path d="M 247.848906 361.709844 
L 247.848906 29.069844 
" clip-path="url(#pe5969be0f1)" style="fill: none; stroke-dasharray: 0.8,1.32; stroke-dashoffset: 0; stroke: #b0b0b0; stroke-opacity: 0.5; stroke-width: 0.8"/>
     </g>
     <g id="line2d_12">
      <g>
       <use xlink:href="#mf578e2b562" x="247.848906" y="361.709844" style="stroke: #000000; stroke-width: 0.8"/>
      </g>
     </g>
     <g id="text_6">
      <!-- 1 -->
      <g transform="translate(245.095 376.302031) scale(0.1 -0.1)">
       <use xlink:href="#MalgunGothic-31"/>
      </g>
     </g>
    </g>
    <g id="xtick_7">
     <g id="line2d_13">
      <path d="M 289.428906 361.709844 
L 289.428906 29.069844 
" clip-path="url(#pe5969be0f1)" style="fill: none; stroke-dasharray: 0.8,1.32; stroke-dashoffset: 0; stroke: #b0b0b0; stroke-opacity: 0.5; stroke-width: 0.8"/>
     </g>
     <g id="line2d_14">
      <g>
       <use xlink:href="#mf578e2b562" x="289.428906" y="361.709844" style="stroke: #000000; stroke-width: 0.8"/>
      </g>
     </g>
     <g id="text_7">
      <!-- 2 -->
      <g transform="translate(286.675 376.302031) scale(0.1 -0.1)">
       <use xlink:href="#MalgunGothic-32"/>
      </g>
     </g>
    </g>
    <g id="xtick_8">
     <g id="line2d_15">
      <path d="M 331.008906 361.709844 
L 331.008906 29.069844 
" clip-path="url(#pe5969be0f1)" style="fill: none; stroke-dasharray: 0.8,1.32; stroke-dashoffset: 0; stroke: #b0b0b0; stroke-opacity: 0.5; stroke-width: 0.8"/>
     </g>
     <g id="line2d_16">
      <g>
       <use xlink:href="#mf578e2b562" x="331.008906" y="361.709844" style="stroke: #000000; stroke-width: 0.8"/>
      </g>
     </g>
     <g id="text_8">
      <!-- 3 -->
      <g transform="translate(328.255 376.302031) scale(0.1 -0.1)">
       <use xlink:href="#MalgunGothic-33"/>
      </g>
     </g>
    </g>
    <g id="xtick_9">
     <g id="line2d_17">
      <path d="M 372.588906 361.709844 
L 372.588906 29.069844 
" clip-path="url(#pe5969be0f1)" style="fill: none; stroke-dasharray: 0.8,1.32; stroke-dashoffset: 0; stroke: #b0b0b0; stroke-opacity: 0.5; stroke-width: 0.8"/>
     </g>
     <g id="line2d_18">
      <g>
       <use xlink:href="#mf578e2b562" x="372.588906" y="361.709844" style="stroke: #000000; stroke-width: 0.8"/>
      </g>
     </g>
     <g id="text_9">
      <!-- 4 -->
      <g transform="translate(369.835 376.302031) scale(0.1 -0.1)">
       <use xlink:href="#MalgunGothic-34"/>
      </g>
     </g>
    </g>
    <g id="text_10">
     <!-- Real (실수축) -->
     <g transform="translate(174.137734 391.340625) scale(0.11 -0.11)">
      <defs>
       <path id="MalgunGothic-52" d="M 3866 0 
L 3259 0 
L 2488 1294 
Q 2241 1706 2044 1837 
Q 1847 1969 1569 1969 
L 1113 1969 
L 1113 0 
L 609 0 
L 609 4600 
L 1963 4600 
Q 2597 4600 2970 4272 
Q 3344 3944 3344 3375 
Q 3344 2422 2325 2138 
L 2325 2125 
Q 2519 2041 2645 1902 
Q 2772 1763 3006 1381 
L 3866 0 
z
M 1113 4128 
L 1113 2438 
L 1866 2438 
Q 2291 2438 2552 2686 
Q 2813 2934 2813 3334 
Q 2813 3709 2570 3918 
Q 2328 4128 1872 4128 
L 1113 4128 
z
" transform="scale(0.015625)"/>
       <path id="MalgunGothic-65" d="M 3156 1519 
L 828 1519 
Q 844 950 1133 648 
Q 1422 347 1909 347 
Q 2472 347 2934 719 
L 2934 244 
Q 2494 -78 1794 -78 
Q 1100 -78 708 376 
Q 316 831 316 1634 
Q 316 2381 747 2870 
Q 1178 3359 1816 3359 
Q 2453 3359 2804 2942 
Q 3156 2525 3156 1788 
L 3156 1519 
z
M 2644 1956 
Q 2644 2416 2423 2675 
Q 2203 2934 1809 2934 
Q 1438 2934 1169 2667 
Q 900 2400 834 1956 
L 2644 1956 
z
" transform="scale(0.015625)"/>
       <path id="MalgunGothic-61" d="M 616 3050 
Q 1097 3359 1722 3359 
Q 2866 3359 2866 2147 
L 2866 0 
L 2369 0 
L 2369 516 
L 2350 516 
Q 2009 -78 1341 -78 
Q 859 -78 576 180 
Q 294 438 294 869 
Q 294 1784 1375 1934 
L 2366 2078 
Q 2366 2934 1684 2934 
Q 1084 2934 616 2525 
L 616 3050 
z
M 1563 1559 
Q 1178 1509 993 1371 
Q 809 1234 809 903 
Q 809 653 986 500 
Q 1163 347 1450 347 
Q 1847 347 2106 628 
Q 2366 909 2366 1334 
L 2366 1666 
L 1563 1559 
z
" transform="scale(0.015625)"/>
       <path id="MalgunGothic-6c" d="M 541 0 
L 541 4859 
L 1034 4859 
L 1034 0 
L 541 0 
z
" transform="scale(0.015625)"/>
       <path id="MalgunGothic-20" transform="scale(0.015625)"/>
       <path id="MalgunGothic-28" d="M 1438 -1044 
Q 447 88 447 1753 
Q 447 3431 1438 4600 
L 1888 4600 
Q 878 3372 878 1759 
Q 878 153 1881 -1044 
L 1438 -1044 
z
" transform="scale(0.015625)"/>
       <path id="MalgunGothic-c2e4" d="M 4878 2450 
L 4878 5466 
L 5344 5466 
L 5344 2450 
L 4878 2450 
z
M 3653 2663 
Q 3266 2828 2845 3203 
Q 2425 3578 2241 3938 
Q 1884 3125 800 2509 
L 469 2822 
Q 1178 3159 1590 3681 
Q 2003 4203 2003 4813 
L 2003 5331 
L 2456 5331 
L 2456 4813 
Q 2456 4219 2907 3717 
Q 3359 3216 3969 3003 
L 3653 2663 
z
M 1631 -422 
L 1631 1069 
L 4884 1069 
L 4884 1716 
L 1631 1716 
L 1631 2131 
L 5344 2131 
L 5344 666 
L 2094 666 
L 2094 -6 
L 5509 -6 
L 5509 -422 
L 1631 -422 
z
" transform="scale(0.015625)"/>
       <path id="MalgunGothic-c218" d="M 5491 2994 
Q 4750 3097 4078 3498 
Q 3406 3900 3200 4275 
Q 2975 3891 2309 3491 
Q 1644 3091 922 2956 
L 634 3347 
Q 1559 3450 2261 3942 
Q 2963 4434 2963 5013 
L 2963 5275 
L 3431 5275 
L 3431 5013 
Q 3431 4431 4118 3948 
Q 4806 3466 5766 3378 
L 5491 2994 
z
M 3431 1838 
L 3431 -563 
L 2963 -563 
L 2963 1838 
L 403 1838 
L 403 2253 
L 5997 2253 
L 5997 1838 
L 3431 1838 
z
" transform="scale(0.015625)"/>
       <path id="MalgunGothic-cd95" d="M 5466 3116 
Q 4794 3184 4103 3512 
Q 3413 3841 3206 4141 
Q 2972 3816 2308 3505 
Q 1644 3194 966 3122 
L 697 3547 
Q 1359 3547 2046 3836 
Q 2734 4125 2919 4538 
L 1056 4538 
L 1056 4953 
L 2969 4953 
L 2969 5516 
L 3444 5516 
L 3444 4953 
L 5344 4953 
L 5344 4538 
L 3481 4538 
Q 3669 4119 4353 3836 
Q 5038 3553 5703 3553 
L 5466 3116 
z
M 4609 -563 
L 4609 1075 
L 1197 1075 
L 1197 1491 
L 2963 1491 
L 2963 2222 
L 403 2222 
L 403 2644 
L 5997 2644 
L 5997 2222 
L 3438 2222 
L 3438 1491 
L 5075 1491 
L 5075 -563 
L 4609 -563 
z
" transform="scale(0.015625)"/>
       <path id="MalgunGothic-29" d="M 81 -1044 
Q 1081 150 1081 1759 
Q 1081 3378 72 4600 
L 525 4600 
Q 1522 3431 1522 1753 
Q 1522 88 525 -1044 
L 81 -1044 
z
" transform="scale(0.015625)"/>
      </defs>
      <use xlink:href="#MalgunGothic-52"/>
      <use xlink:href="#MalgunGothic-65" transform="translate(57.986328 0)"/>
      <use xlink:href="#MalgunGothic-61" transform="translate(111.501953 0)"/>
      <use xlink:href="#MalgunGothic-6c" transform="translate(163.503906 0)"/>
      <use xlink:href="#MalgunGothic-20" transform="translate(188.113281 0)"/>
      <use xlink:href="#MalgunGothic-28" transform="translate(223.269531 0)"/>
      <use xlink:href="#MalgunGothic-c2e4" transform="translate(253.738281 0)"/>
      <use xlink:href="#MalgunGothic-c218" transform="translate(353.738281 0)"/>
      <use xlink:href="#MalgunGothic-cd95" transform="translate(453.738281 0)"/>
      <use xlink:href="#MalgunGothic-29" transform="translate(553.738281 0)"/>
     </g>
    </g>
   </g>
   <g id="matplotlib.axis_2">
    <g id="ytick_1">
     <g id="line2d_19">
      <path d="M 39.948906 361.709844 
L 372.588906 361.709844 
" clip-path="url(#pe5969be0f1)" style="fill: none; stroke-dasharray: 0.8,1.32; stroke-dashoffset: 0; stroke: #b0b0b0; stroke-opacity: 0.5; stroke-width: 0.8"/>
     </g>
     <g id="line2d_20">
      <defs>
       <path id="m3248718dc8" d="M 0 0 
L -3.5 0 
" style="stroke: #000000; stroke-width: 0.8"/>
      </defs>
      <g>
       <use xlink:href="#m3248718dc8" x="39.948906" y="361.709844" style="stroke: #000000; stroke-width: 0.8"/>
      </g>
     </g>
     <g id="text_11">
      <!-- -4 -->
      <g transform="translate(23.339531 365.505937) scale(0.1 -0.1)">
       <use xlink:href="#MalgunGothic-2d"/>
       <use xlink:href="#MalgunGothic-34" transform="translate(41.015625 0)"/>
      </g>
     </g>
    </g>
    <g id="ytick_2">
     <g id="line2d_21">
      <path d="M 39.948906 320.129844 
L 372.588906 320.129844 
" clip-path="url(#pe5969be0f1)" style="fill: none; stroke-dasharray: 0.8,1.32; stroke-dashoffset: 0; stroke: #b0b0b0; stroke-opacity: 0.5; stroke-width: 0.8"/>
     </g>
     <g id="line2d_22">
      <g>
       <use xlink:href="#m3248718dc8" x="39.948906" y="320.129844" style="stroke: #000000; stroke-width: 0.8"/>
      </g>
     </g>
     <g id="text_12">
      <!-- -3 -->
      <g transform="translate(23.339531 323.925937) scale(0.1 -0.1)">
       <use xlink:href="#MalgunGothic-2d"/>
       <use xlink:href="#MalgunGothic-33" transform="translate(41.015625 0)"/>
      </g>
     </g>
    </g>
    <g id="ytick_3">
     <g id="line2d_23">
      <path d="M 39.948906 278.549844 
L 372.588906 278.549844 
" clip-path="url(#pe5969be0f1)" style="fill: none; stroke-dasharray: 0.8,1.32; stroke-dashoffset: 0; stroke: #b0b0b0; stroke-opacity: 0.5; stroke-width: 0.8"/>
     </g>
     <g id="line2d_24">
      <g>
       <use xlink:href="#m3248718dc8" x="39.948906" y="278.549844" style="stroke: #000000; stroke-width: 0.8"/>
      </g>
     </g>
     <g id="text_13">
      <!-- -2 -->
      <g transform="translate(23.339531 282.345937) scale(0.1 -0.1)">
       <use xlink:href="#MalgunGothic-2d"/>
       <use xlink:href="#MalgunGothic-32" transform="translate(41.015625 0)"/>
      </g>
     </g>
    </g>
    <g id="ytick_4">
     <g id="line2d_25">
      <path d="M 39.948906 236.969844 
L 372.588906 236.969844 
" clip-path="url(#pe5969be0f1)" style="fill: none; stroke-dasharray: 0.8,1.32; stroke-dashoffset: 0; stroke: #b0b0b0; stroke-opacity: 0.5; stroke-width: 0.8"/>
     </g>
     <g id="line2d_26">
      <g>
       <use xlink:href="#m3248718dc8" x="39.948906" y="236.969844" style="stroke: #000000; stroke-width: 0.8"/>
      </g>
     </g>
     <g id="text_14">
      <!-- -1 -->
      <g transform="translate(23.339531 240.765938) scale(0.1 -0.1)">
       <use xlink:href="#MalgunGothic-2d"/>
       <use xlink:href="#MalgunGothic-31" transform="translate(41.015625 0)"/>
      </g>
     </g>
    </g>
    <g id="ytick_5">
     <g id="line2d_27">
      <path d="M 39.948906 195.389844 
L 372.588906 195.389844 
" clip-path="url(#pe5969be0f1)" style="fill: none; stroke-dasharray: 0.8,1.32; stroke-dashoffset: 0; stroke: #b0b0b0; stroke-opacity: 0.5; stroke-width: 0.8"/>
     </g>
     <g id="line2d_28">
      <g>
       <use xlink:href="#m3248718dc8" x="39.948906" y="195.389844" style="stroke: #000000; stroke-width: 0.8"/>
      </g>
     </g>
     <g id="text_15">
      <!-- 0 -->
      <g transform="translate(27.441094 199.185937) scale(0.1 -0.1)">
       <use xlink:href="#MalgunGothic-30"/>
      </g>
     </g>
    </g>
    <g id="ytick_6">
     <g id="line2d_29">
      <path d="M 39.948906 153.809844 
L 372.588906 153.809844 
" clip-path="url(#pe5969be0f1)" style="fill: none; stroke-dasharray: 0.8,1.32; stroke-dashoffset: 0; stroke: #b0b0b0; stroke-opacity: 0.5; stroke-width: 0.8"/>
     </g>
     <g id="line2d_30">
      <g>
       <use xlink:href="#m3248718dc8" x="39.948906" y="153.809844" style="stroke: #000000; stroke-width: 0.8"/>
      </g>
     </g>
     <g id="text_16">
      <!-- 1 -->
      <g transform="translate(27.441094 157.605937) scale(0.1 -0.1)">
       <use xlink:href="#MalgunGothic-31"/>
      </g>
     </g>
    </g>
    <g id="ytick_7">
     <g id="line2d_31">
      <path d="M 39.948906 112.229844 
L 372.588906 112.229844 
" clip-path="url(#pe5969be0f1)" style="fill: none; stroke-dasharray: 0.8,1.32; stroke-dashoffset: 0; stroke: #b0b0b0; stroke-opacity: 0.5; stroke-width: 0.8"/>
     </g>
     <g id="line2d_32">
      <g>
       <use xlink:href="#m3248718dc8" x="39.948906" y="112.229844" style="stroke: #000000; stroke-width: 0.8"/>
      </g>
     </g>
     <g id="text_17">
      <!-- 2 -->
      <g transform="translate(27.441094 116.025937) scale(0.1 -0.1)">
       <use xlink:href="#MalgunGothic-32"/>
      </g>
     </g>
    </g>
    <g id="ytick_8">
     <g id="line2d_33">
      <path d="M 39.948906 70.649844 
L 372.588906 70.649844 
" clip-path="url(#pe5969be0f1)" style="fill: none; stroke-dasharray: 0.8,1.32; stroke-dashoffset: 0; stroke: #b0b0b0; stroke-opacity: 0.5; stroke-width: 0.8"/>
     </g>
     <g id="line2d_34">
      <g>
       <use xlink:href="#m3248718dc8" x="39.948906" y="70.649844" style="stroke: #000000; stroke-width: 0.8"/>
      </g>
     </g>
     <g id="text_18">
      <!-- 3 -->
      <g transform="translate(27.441094 74.445938) scale(0.1 -0.1)">
       <use xlink:href="#MalgunGothic-33"/>
      </g>
     </g>
    </g>
    <g id="ytick_9">
     <g id="line2d_35">
      <path d="M 39.948906 29.069844 
L 372.588906 29.069844 
" clip-path="url(#pe5969be0f1)" style="fill: none; stroke-dasharray: 0.8,1.32; stroke-dashoffset: 0; stroke: #b0b0b0; stroke-opacity: 0.5; stroke-width: 0.8"/>
     </g>
     <g id="line2d_36">
      <g>
       <use xlink:href="#m3248718dc8" x="39.948906" y="29.069844" style="stroke: #000000; stroke-width: 0.8"/>
      </g>
     </g>
     <g id="text_19">
      <!-- 4 -->
      <g transform="translate(27.441094 32.865938) scale(0.1 -0.1)">
       <use xlink:href="#MalgunGothic-34"/>
      </g>
     </g>
    </g>
    <g id="text_20">
     <!-- Imaginary (허수축) -->
     <g transform="translate(16.680625 241.958516) rotate(-90) scale(0.11 -0.11)">
      <defs>
       <path id="MalgunGothic-49" d="M 1116 0 
L 613 0 
L 613 4600 
L 1116 4600 
L 1116 0 
z
" transform="scale(0.015625)"/>
       <path id="MalgunGothic-6d" d="M 5166 0 
L 4669 0 
L 4669 1884 
Q 4669 2463 4495 2702 
Q 4322 2941 3922 2941 
Q 3584 2941 3342 2623 
Q 3100 2306 3100 1875 
L 3100 0 
L 2606 0 
L 2606 1953 
Q 2606 2941 1844 2941 
Q 1497 2941 1265 2642 
Q 1034 2344 1034 1875 
L 1034 0 
L 538 0 
L 538 3284 
L 1034 3284 
L 1034 2763 
L 1047 2763 
Q 1391 3359 2063 3359 
Q 2381 3359 2636 3176 
Q 2891 2994 2991 2675 
Q 3356 3359 4081 3359 
Q 5166 3359 5166 2022 
L 5166 0 
z
" transform="scale(0.015625)"/>
       <path id="MalgunGothic-67" d="M 3313 259 
Q 3313 -1547 1603 -1547 
Q 1003 -1547 538 -1313 
L 538 -806 
Q 1088 -1116 1600 -1116 
Q 2822 -1116 2822 194 
L 2822 559 
L 2809 559 
Q 2422 -78 1675 -78 
Q 1066 -78 691 362 
Q 316 803 316 1534 
Q 316 2375 722 2867 
Q 1128 3359 1816 3359 
Q 2484 3359 2809 2822 
L 2822 2822 
L 2822 3284 
L 3313 3284 
L 3313 259 
z
M 2822 1978 
Q 2822 2378 2547 2659 
Q 2272 2941 1878 2941 
Q 1384 2941 1101 2577 
Q 819 2213 819 1572 
Q 819 1016 1092 680 
Q 1366 344 1803 344 
Q 2247 344 2534 666 
Q 2822 988 2822 1478 
L 2822 1978 
z
" transform="scale(0.015625)"/>
       <path id="MalgunGothic-69" d="M 472 4466 
Q 472 4606 565 4701 
Q 659 4797 794 4797 
Q 934 4797 1029 4700 
Q 1125 4603 1125 4466 
Q 1125 4325 1029 4231 
Q 934 4138 794 4138 
Q 659 4138 565 4230 
Q 472 4322 472 4466 
z
M 541 0 
L 541 3284 
L 1034 3284 
L 1034 0 
L 541 0 
z
" transform="scale(0.015625)"/>
       <path id="MalgunGothic-6e" d="M 3238 0 
L 2741 0 
L 2741 1875 
Q 2741 2941 1963 2941 
Q 1563 2941 1298 2639 
Q 1034 2338 1034 1872 
L 1034 0 
L 538 0 
L 538 3284 
L 1034 3284 
L 1034 2734 
L 1047 2734 
Q 1416 3359 2125 3359 
Q 2666 3359 2952 3012 
Q 3238 2666 3238 2006 
L 3238 0 
z
" transform="scale(0.015625)"/>
       <path id="MalgunGothic-72" d="M 2225 2775 
Q 2084 2881 1828 2881 
Q 1491 2881 1262 2553 
Q 1034 2225 1034 1681 
L 1034 0 
L 538 0 
L 538 3284 
L 1034 3284 
L 1034 2603 
L 1047 2603 
Q 1159 2950 1389 3145 
Q 1619 3341 1903 3341 
Q 2109 3341 2225 3297 
L 2225 2775 
z
" transform="scale(0.015625)"/>
       <path id="MalgunGothic-79" d="M 3119 3284 
L 1597 -544 
Q 1197 -1547 481 -1547 
Q 313 -1547 156 -1509 
L 156 -1056 
Q 316 -1109 459 -1109 
Q 859 -1109 1059 -628 
L 1328 6 
L 47 3284 
L 597 3284 
L 1503 722 
Q 1513 697 1572 488 
L 1588 488 
L 1650 716 
L 2603 3284 
L 3119 3284 
z
" transform="scale(0.015625)"/>
       <path id="MalgunGothic-d5c8" d="M 4941 -563 
L 4941 2272 
L 3884 2272 
L 3884 2688 
L 4941 2688 
L 4941 5466 
L 5409 5466 
L 5409 -563 
L 4941 -563 
z
M 422 4072 
L 422 4488 
L 2003 4488 
L 2003 5453 
L 2478 5453 
L 2478 4488 
L 4063 4488 
L 4063 4072 
L 422 4072 
z
M 2181 903 
Q 1519 903 1111 1300 
Q 703 1697 703 2284 
Q 703 2881 1109 3278 
Q 1516 3675 2181 3675 
Q 2847 3675 3253 3278 
Q 3659 2881 3659 2284 
Q 3659 1697 3251 1300 
Q 2844 903 2181 903 
z
M 2181 3263 
Q 1731 3263 1442 2978 
Q 1153 2694 1153 2284 
Q 1153 1878 1442 1595 
Q 1731 1313 2181 1313 
Q 2634 1313 2923 1595 
Q 3213 1878 3213 2284 
Q 3213 2694 2925 2978 
Q 2638 3263 2181 3263 
z
" transform="scale(0.015625)"/>
      </defs>
      <use xlink:href="#MalgunGothic-49"/>
      <use xlink:href="#MalgunGothic-6d" transform="translate(27.001953 0)"/>
      <use xlink:href="#MalgunGothic-61" transform="translate(114.990234 0)"/>
      <use xlink:href="#MalgunGothic-67" transform="translate(166.992188 0)"/>
      <use xlink:href="#MalgunGothic-69" transform="translate(227.197266 0)"/>
      <use xlink:href="#MalgunGothic-6e" transform="translate(251.806641 0)"/>
      <use xlink:href="#MalgunGothic-61" transform="translate(309.619141 0)"/>
      <use xlink:href="#MalgunGothic-72" transform="translate(361.621094 0)"/>
      <use xlink:href="#MalgunGothic-79" transform="translate(401.347656 0)"/>
      <use xlink:href="#MalgunGothic-20" transform="translate(450.615234 0)"/>
      <use xlink:href="#MalgunGothic-28" transform="translate(485.771484 0)"/>
      <use xlink:href="#MalgunGothic-d5c8" transform="translate(516.240234 0)"/>
      <use xlink:href="#MalgunGothic-c218" transform="translate(616.240234 0)"/>
      <use xlink:href="#MalgunGothic-cd95" transform="translate(716.240234 0)"/>
      <use xlink:href="#MalgunGothic-29" transform="translate(816.240234 0)"/>
     </g>
    </g>
   </g>
   <g id="line2d_37">
    <path d="M 39.948906 195.389844 
L 372.588906 195.389844 
" clip-path="url(#pe5969be0f1)" style="fill: none; stroke: #888888; stroke-width: 0.8; stroke-linecap: square"/>
   </g>
   <g id="line2d_38">
    <path d="M 206.268906 361.709844 
L 206.268906 29.069844 
" clip-path="url(#pe5969be0f1)" style="fill: none; stroke: #888888; stroke-width: 0.8; stroke-linecap: square"/>
   </g>
   <g id="line2d_39">
    <defs>
     <path id="m7265a6d23f" d="M 0 5 
C 1.326016 5 2.597899 4.473168 3.535534 3.535534 
C 4.473168 2.597899 5 1.326016 5 0 
C 5 -1.326016 4.473168 -2.597899 3.535534 -3.535534 
C 2.597899 -4.473168 1.326016 -5 0 -5 
C -1.326016 -5 -2.597899 -4.473168 -3.535534 -3.535534 
C -4.473168 -2.597899 -5 -1.326016 -5 0 
C -5 1.326016 -4.473168 2.597899 -3.535534 3.535534 
C -2.597899 4.473168 -1.326016 5 0 5 
z
" style="stroke: #d62728"/>
    </defs>
    <g clip-path="url(#pe5969be0f1)">
     <use xlink:href="#m7265a6d23f" x="331.008906" y="112.229844" style="fill: #d62728; stroke: #d62728"/>
    </g>
   </g>
   <g id="line2d_40">
    <defs>
     <path id="md30aa81662" d="M 0 5 
C 1.326016 5 2.597899 4.473168 3.535534 3.535534 
C 4.473168 2.597899 5 1.326016 5 0 
C 5 -1.326016 4.473168 -2.597899 3.535534 -3.535534 
C 2.597899 -4.473168 1.326016 -5 0 -5 
C -1.326016 -5 -2.597899 -4.473168 -3.535534 -3.535534 
C -4.473168 -2.597899 -5 -1.326016 -5 0 
C -5 1.326016 -4.473168 2.597899 -3.535534 3.535534 
C -2.597899 4.473168 -1.326016 5 0 5 
z
" style="stroke: #1f77b4"/>
    </defs>
    <g clip-path="url(#pe5969be0f1)">
     <use xlink:href="#md30aa81662" x="331.008906" y="278.549844" style="fill: #1f77b4; stroke: #1f77b4"/>
    </g>
   </g>
   <g id="line2d_41">
    <path d="M 331.008906 112.229844 
L 331.008906 278.549844 
" clip-path="url(#pe5969be0f1)" style="fill: none; stroke-dasharray: 1.5,2.475; stroke-dashoffset: 0; stroke: #888888; stroke-width: 1.5"/>
   </g>
   <g id="patch_3">
    <path d="M 39.948906 361.709844 
L 39.948906 29.069844 
" style="fill: none; stroke: #000000; stroke-width: 0.8; stroke-linejoin: miter; stroke-linecap: square"/>
   </g>
   <g id="patch_4">
    <path d="M 372.588906 361.709844 
L 372.588906 29.069844 
" style="fill: none; stroke: #000000; stroke-width: 0.8; stroke-linejoin: miter; stroke-linecap: square"/>
   </g>
   <g id="patch_5">
    <path d="M 39.948906 361.709844 
L 372.588906 361.709844 
" style="fill: none; stroke: #000000; stroke-width: 0.8; stroke-linejoin: miter; stroke-linecap: square"/>
   </g>
   <g id="patch_6">
    <path d="M 39.948906 29.069844 
L 372.588906 29.069844 
" style="fill: none; stroke: #000000; stroke-width: 0.8; stroke-linejoin: miter; stroke-linecap: square"/>
   </g>
   <g id="patch_7">
    <path d="M 207.932462 194.280807 
Q 268.638731 153.809961 327.484479 114.579462 
" style="fill: none; stroke: #d62728; stroke-width: 2; stroke-linecap: round"/>
    <path d="M 323.046878 115.134162 
L 327.484479 114.579462 
L 325.265679 118.462363 
" style="fill: none; stroke: #d62728; stroke-width: 2; stroke-linecap: round"/>
   </g>
   <g id="text_21">
    <!-- z = 3 + 2i -->
    <g style="fill: #d62728" transform="translate(337.245906 105.992844) scale(0.12 -0.12)">
     <defs>
      <path id="MalgunGothic-7a" d="M 2788 0 
L 109 0 
L 109 147 
L 2069 2856 
L 291 2856 
L 291 3284 
L 2809 3284 
L 2809 3156 
L 841 428 
L 2788 428 
L 2788 0 
z
" transform="scale(0.015625)"/>
      <path id="MalgunGothic-3d" d="M 3750 2397 
L 744 2397 
L 744 2803 
L 3750 2803 
L 3750 2397 
z
M 3750 1031 
L 744 1031 
L 744 1441 
L 3750 1441 
L 3750 1031 
z
" transform="scale(0.015625)"/>
      <path id="MalgunGothic-2b" d="M 3750 1706 
L 2450 1706 
L 2450 413 
L 2041 413 
L 2041 1706 
L 744 1706 
L 744 2122 
L 2041 2122 
L 2041 3416 
L 2450 3416 
L 2450 2122 
L 3750 2122 
L 3750 1706 
z
" transform="scale(0.015625)"/>
     </defs>
     <use xlink:href="#MalgunGothic-7a"/>
     <use xlink:href="#MalgunGothic-20" transform="translate(46.191406 0)"/>
     <use xlink:href="#MalgunGothic-3d" transform="translate(81.347656 0)"/>
     <use xlink:href="#MalgunGothic-20" transform="translate(151.416016 0)"/>
     <use xlink:href="#MalgunGothic-33" transform="translate(186.572266 0)"/>
     <use xlink:href="#MalgunGothic-20" transform="translate(241.650391 0)"/>
     <use xlink:href="#MalgunGothic-2b" transform="translate(276.806641 0)"/>
     <use xlink:href="#MalgunGothic-20" transform="translate(346.875 0)"/>
     <use xlink:href="#MalgunGothic-32" transform="translate(382.03125 0)"/>
     <use xlink:href="#MalgunGothic-69" transform="translate(437.109375 0)"/>
    </g>
   </g>
   <g id="patch_8">
    <path d="M 207.932462 196.498881 
Q 268.638731 236.969727 327.484479 276.200226 
" style="fill: none; stroke: #1f77b4; stroke-width: 2; stroke-linecap: round"/>
    <path d="M 325.265679 272.317325 
L 327.484479 276.200226 
L 323.046878 275.645526 
" style="fill: none; stroke: #1f77b4; stroke-width: 2; stroke-linecap: round"/>
   </g>
   <g id="text_22">
    <!-- $\bar{z}$ = 3 - 2i -->
    <g style="fill: #1f77b4" transform="translate(337.245906 295.181844) scale(0.12 -0.12)">
     <defs>
      <path id="DejaVuSans-304" d="M -2518 4769 
L -650 4769 
L -650 4306 
L -2518 4306 
L -2518 4769 
z
" transform="scale(0.015625)"/>
      <path id="DejaVuSans-Oblique-7a" d="M 744 3500 
L 3475 3500 
L 3372 2975 
L 738 459 
L 2913 459 
L 2822 0 
L -19 0 
L 84 525 
L 2719 3041 
L 653 3041 
L 744 3500 
z
" transform="scale(0.015625)"/>
     </defs>
     <use xlink:href="#DejaVuSans-304" transform="translate(57.466309 -0.046875)"/>
     <use xlink:href="#DejaVuSans-Oblique-7a" transform="translate(0 0.046875)"/>
     <use xlink:href="#MalgunGothic-20" transform="translate(52.490234 0.046875)"/>
     <use xlink:href="#MalgunGothic-3d" transform="translate(87.646484 0.046875)"/>
     <use xlink:href="#MalgunGothic-20" transform="translate(157.714844 0.046875)"/>
     <use xlink:href="#MalgunGothic-33" transform="translate(192.871094 0.046875)"/>
     <use xlink:href="#MalgunGothic-20" transform="translate(247.949219 0.046875)"/>
     <use xlink:href="#MalgunGothic-2d" transform="translate(283.105469 0.046875)"/>
     <use xlink:href="#MalgunGothic-20" transform="translate(324.121094 0.046875)"/>
     <use xlink:href="#MalgunGothic-32" transform="translate(359.277344 0.046875)"/>
     <use xlink:href="#MalgunGothic-69" transform="translate(414.355469 0.046875)"/>
    </g>
   </g>
   <g id="text_23">
    <!-- 대칭 -->
    <g style="fill: #888888" transform="translate(335.166906 195.389844) scale(0.1 -0.1)">
     <defs>
      <path id="MalgunGothic-b300" d="M 5069 -563 
L 5069 2572 
L 4294 2572 
L 4294 -378 
L 3834 -378 
L 3834 5344 
L 4294 5344 
L 4294 2988 
L 5069 2988 
L 5069 5466 
L 5538 5466 
L 5538 -563 
L 5069 -563 
z
M 3391 1153 
Q 2516 1063 825 1063 
L 825 4934 
L 3138 4934 
L 3138 4519 
L 1288 4519 
L 1288 1478 
L 1844 1478 
Q 2791 1478 3359 1550 
L 3391 1153 
z
" transform="scale(0.015625)"/>
      <path id="MalgunGothic-ce6d" d="M 3853 2125 
Q 3384 2341 2968 2702 
Q 2553 3063 2375 3406 
Q 2175 3006 1748 2612 
Q 1322 2219 884 2003 
L 538 2363 
Q 1178 2591 1654 3114 
Q 2131 3638 2131 4116 
L 2131 4409 
L 738 4409 
L 738 4819 
L 2131 4819 
L 2131 5522 
L 2606 5522 
L 2606 4819 
L 3994 4819 
L 3994 4409 
L 2606 4409 
L 2606 4122 
Q 2606 3659 3086 3170 
Q 3566 2681 4159 2509 
L 3853 2125 
z
M 4884 1984 
L 4884 5466 
L 5350 5466 
L 5350 1984 
L 4884 1984 
z
M 3500 -475 
Q 2556 -475 2042 -148 
Q 1528 178 1528 697 
Q 1528 1216 2040 1539 
Q 2553 1863 3500 1863 
Q 4447 1863 4959 1539 
Q 5472 1216 5472 697 
Q 5472 178 4958 -148 
Q 4444 -475 3500 -475 
z
M 3500 1466 
Q 2784 1466 2406 1248 
Q 2028 1031 2028 697 
Q 2028 359 2408 143 
Q 2788 -72 3500 -72 
Q 4209 -72 4590 142 
Q 4972 356 4972 697 
Q 4972 1034 4594 1250 
Q 4216 1466 3500 1466 
z
" transform="scale(0.015625)"/>
     </defs>
     <use xlink:href="#MalgunGothic-b300"/>
     <use xlink:href="#MalgunGothic-ce6d" transform="translate(100 0)"/>
    </g>
   </g>
   <g id="text_24">
    <!-- 켤레 복소수: $\bar{z}$ = 실수축 대칭 -->
    <g transform="translate(120.403906 17.069844) scale(0.13 -0.13)">
     <defs>
      <path id="MalgunGothic-cf24" d="M 3669 2931 
L 3669 3341 
L 4947 3341 
L 4947 4103 
L 3719 4103 
L 3719 4513 
L 4947 4513 
L 4947 5466 
L 5416 5466 
L 5416 2297 
L 4947 2297 
L 4947 2931 
L 3669 2931 
z
M 3603 5209 
Q 3547 4166 2787 3325 
Q 2028 2484 878 2047 
L 550 2419 
Q 1884 2878 2566 3756 
L 878 3572 
L 709 4006 
L 2834 4153 
Q 3022 4494 3072 4800 
L 941 4800 
L 941 5209 
L 3603 5209 
z
M 1722 -422 
L 1722 1013 
L 4953 1013 
L 4953 1556 
L 1722 1556 
L 1722 1966 
L 5416 1966 
L 5416 603 
L 2181 603 
L 2181 -6 
L 5581 -6 
L 5581 -422 
L 1722 -422 
z
" transform="scale(0.015625)"/>
      <path id="MalgunGothic-b808" d="M 5088 -563 
L 5088 5466 
L 5563 5466 
L 5563 -563 
L 5088 -563 
z
M 4000 -403 
L 4000 2509 
L 3144 2509 
L 3144 2925 
L 4000 2925 
L 4000 5344 
L 4459 5344 
L 4459 -403 
L 4000 -403 
z
M 769 722 
L 769 3144 
L 2438 3144 
L 2438 4506 
L 769 4506 
L 769 4922 
L 2906 4922 
L 2906 2741 
L 1234 2741 
L 1234 1141 
Q 2822 1141 3284 1222 
L 3334 825 
Q 2728 722 769 722 
z
" transform="scale(0.015625)"/>
      <path id="MalgunGothic-bcf5" d="M 403 1984 
L 403 2400 
L 2963 2400 
L 2963 3097 
L 1356 3097 
L 1356 5350 
L 1819 5350 
L 1819 4647 
L 4581 4647 
L 4581 5350 
L 5044 5350 
L 5044 3097 
L 3438 3097 
L 3438 2400 
L 5997 2400 
L 5997 1984 
L 403 1984 
z
M 4581 4231 
L 1819 4231 
L 1819 3506 
L 4581 3506 
L 4581 4231 
z
M 4609 -563 
L 4609 966 
L 1197 966 
L 1197 1381 
L 5075 1381 
L 5075 -563 
L 4609 -563 
z
" transform="scale(0.015625)"/>
      <path id="MalgunGothic-c18c" d="M 3194 3909 
Q 2963 3416 2330 2941 
Q 1697 2466 959 2259 
L 641 2631 
Q 1700 2872 2328 3497 
Q 2956 4122 2956 4666 
L 2956 4984 
L 3438 4984 
L 3438 4666 
Q 3438 4131 4069 3506 
Q 4700 2881 5759 2631 
L 5428 2266 
Q 4719 2481 4072 2957 
Q 3425 3434 3194 3909 
z
M 403 384 
L 403 800 
L 2963 800 
L 2963 2266 
L 3438 2266 
L 3438 800 
L 5997 800 
L 5997 384 
L 403 384 
z
" transform="scale(0.015625)"/>
      <path id="MalgunGothic-3a" d="M 356 3006 
Q 356 3153 459 3254 
Q 563 3356 700 3356 
Q 838 3356 941 3254 
Q 1044 3153 1044 3006 
Q 1044 2863 942 2761 
Q 841 2659 700 2659 
Q 559 2659 457 2761 
Q 356 2863 356 3006 
z
M 356 275 
Q 356 422 459 523 
Q 563 625 700 625 
Q 838 625 941 523 
Q 1044 422 1044 275 
Q 1044 138 942 33 
Q 841 -72 700 -72 
Q 559 -72 457 29 
Q 356 131 356 275 
z
" transform="scale(0.015625)"/>
     </defs>
     <use xlink:href="#MalgunGothic-cf24" transform="translate(0 0.71875)"/>
     <use xlink:href="#MalgunGothic-b808" transform="translate(100 0.71875)"/>
     <use xlink:href="#MalgunGothic-20" transform="translate(200 0.71875)"/>
     <use xlink:href="#MalgunGothic-bcf5" transform="translate(235.15625 0.71875)"/>
     <use xlink:href="#MalgunGothic-c18c" transform="translate(335.15625 0.71875)"/>
     <use xlink:href="#MalgunGothic-c218" transform="translate(435.15625 0.71875)"/>
     <use xlink:href="#MalgunGothic-3a" transform="translate(535.15625 0.71875)"/>
     <use xlink:href="#MalgunGothic-20" transform="translate(557.03125 0.71875)"/>
     <use xlink:href="#DejaVuSans-304" transform="translate(649.653809 0.625)"/>
     <use xlink:href="#DejaVuSans-Oblique-7a" transform="translate(592.1875 0.71875)"/>
     <use xlink:href="#MalgunGothic-20" transform="translate(644.677734 0.71875)"/>
     <use xlink:href="#MalgunGothic-3d" transform="translate(679.833984 0.71875)"/>
     <use xlink:href="#MalgunGothic-20" transform="translate(749.902344 0.71875)"/>
     <use xlink:href="#MalgunGothic-c2e4" transform="translate(785.058594 0.71875)"/>
     <use xlink:href="#MalgunGothic-c218" transform="translate(885.058594 0.71875)"/>
     <use xlink:href="#MalgunGothic-cd95" transform="translate(985.058594 0.71875)"/>
     <use xlink:href="#MalgunGothic-20" transform="translate(1085.058594 0.71875)"/>
     <use xlink:href="#MalgunGothic-b300" transform="translate(1120.214844 0.71875)"/>
     <use xlink:href="#MalgunGothic-ce6d" transform="translate(1220.214844 0.71875)"/>
    </g>
   </g>
  </g>
 </g>
 <defs>
  <clipPath id="pe5969be0f1">
   <rect x="39.948906" y="29.069844" width="332.64" height="332.64"/>
  </clipPath>
 </defs>
</svg>
