<?xml version="1.0" encoding="utf-8" standalone="no"?>
<!DOCTYPE svg PUBLIC "-//W3C//DTD SVG 1.1//EN"
  "http://www.w3.org/Graphics/SVG/1.1/DTD/svg11.dtd">
<svg xmlns:xlink="http://www.w3.org/1999/xlink" width="382.542812pt" height="401.457969pt" viewBox="0 0 382.542812 401.457969" xmlns="http://www.w3.org/2000/svg" version="1.1">
 <metadata>
  <rdf:RDF xmlns:dc="http://purl.org/dc/elements/1.1/" xmlns:cc="http://creativecommons.org/ns#" xmlns:rdf="http://www.w3.org/1999/02/22-rdf-syntax-ns#">
   <cc:Work>
    <dc:type rdf:resource="http://purl.org/dc/dcmitype/StillImage"/>
    <dc:date>2026-05-05T20:13:38.741020</dc:date>
    <dc:format>image/svg+xml</dc:format>
    <dc:creator>
     <cc:Agent>
      <dc:title>Matplotlib v3.10.7, https://matplotlib.org/</dc:title>
     </cc:Agent>
    </dc:creator>
   </cc:Work>
  </rdf:RDF>
 </metadata>
 <defs>
  <style type="text/css">*{stroke-linejoin: round; stroke-linecap: butt}</style>
 </defs>
 <g id="figure_1">
  <g id="patch_1">
   <path d="M 0 401.457969 
L 382.542812 401.457969 
L 382.542812 0 
L 0 0 
z
" style="fill: #ffffff"/>
  </g>
  <g id="axes_1">
   <g id="patch_2">
    <path d="M 39.948906 362.026719 
L 372.588906 362.026719 
L 372.588906 29.386719 
L 39.948906 29.386719 
z
" style="fill: #ffffff"/>
   </g>
   <g id="patch_3">
    <path d="M 206.268906 320.446719 
C 239.350341 320.446719 271.081299 307.303325 294.473406 283.911219 
C 317.865513 260.519112 331.008906 228.788153 331.008906 195.706719 
C 331.008906 162.625284 317.865513 130.894326 294.473406 107.502219 
C 271.081299 84.110112 239.350341 70.966719 206.268906 70.966719 
C 173.187472 70.966719 141.456513 84.110112 118.064406 107.502219 
C 94.6723 130.894326 81.528906 162.625284 81.528906 195.706719 
C 81.528906 228.788153 94.6723 260.519112 118.064406 283.911219 
C 141.456513 307.303325 173.187472 320.446719 206.268906 320.446719 
L 206.268906 320.446719 
z
" clip-path="url(#p8d7e826c6e)" style="fill: none; stroke-dasharray: 1,1.65; stroke-dashoffset: 0; stroke: #aaaaaa; stroke-linejoin: miter"/>
   </g>
   <g id="matplotlib.axis_1">
    <g id="xtick_1">
     <g id="line2d_1">
      <path d="M 39.948906 362.026719 
L 39.948906 29.386719 
" clip-path="url(#p8d7e826c6e)" style="fill: none; stroke-dasharray: 0.8,1.32; stroke-dashoffset: 0; stroke: #b0b0b0; stroke-opacity: 0.5; stroke-width: 0.8"/>
     </g>
     <g id="line2d_2">
      <defs>
       <path id="mf186e0219e" d="M 0 0 
L 0 3.5 
" style="stroke: #000000; stroke-width: 0.8"/>
      </defs>
      <g>
       <use xlink:href="#mf186e0219e" x="39.948906" y="362.026719" style="stroke: #000000; stroke-width: 0.8"/>
      </g>
     </g>
     <g id="text_1">
      <!-- -4 -->
      <g transform="translate(35.144219 376.618906) scale(0.1 -0.1)">
       <defs>
        <path id="MalgunGothic-2d" d="M 2213 1634 
L 463 1634 
L 463 2031 
L 2213 2031 
L 2213 1634 
z
" transform="scale(0.015625)"/>
        <path id="MalgunGothic-34" d="M 2703 4600 
L 2703 1563 
L 3309 1563 
L 3309 1113 
L 2703 1113 
L 2703 0 
L 2213 0 
L 2213 1113 
L 50 1113 
L 50 1534 
Q 728 2297 1295 3109 
Q 1863 3922 2172 4600 
L 2703 4600 
z
M 625 1563 
L 2213 1563 
L 2213 3831 
Q 1613 2788 959 1981 
L 625 1563 
z
" transform="scale(0.015625)"/>
       </defs>
       <use xlink:href="#MalgunGothic-2d"/>
       <use xlink:href="#MalgunGothic-34" transform="translate(41.015625 0)"/>
      </g>
     </g>
    </g>
    <g id="xtick_2">
     <g id="line2d_3">
      <path d="M 81.528906 362.026719 
L 81.528906 29.386719 
" clip-path="url(#p8d7e826c6e)" style="fill: none; stroke-dasharray: 0.8,1.32; stroke-dashoffset: 0; stroke: #b0b0b0; stroke-opacity: 0.5; stroke-width: 0.8"/>
     </g>
     <g id="line2d_4">
      <g>
       <use xlink:href="#mf186e0219e" x="81.528906" y="362.026719" style="stroke: #000000; stroke-width: 0.8"/>
      </g>
     </g>
     <g id="text_2">
      <!-- -3 -->
      <g transform="translate(76.724219 376.618906) scale(0.1 -0.1)">
       <defs>
        <path id="MalgunGothic-33" d="M 416 719 
Q 891 344 1478 344 
Q 1959 344 2254 587 
Q 2550 831 2550 1247 
Q 2550 2169 1253 2169 
L 872 2169 
L 872 2591 
L 1234 2591 
Q 2388 2591 2388 3453 
Q 2388 4250 1509 4250 
Q 1022 4250 594 3916 
L 594 4413 
Q 1031 4675 1634 4675 
Q 2184 4675 2539 4372 
Q 2894 4069 2894 3581 
Q 2894 2678 1972 2409 
L 1972 2400 
Q 2469 2356 2764 2053 
Q 3059 1750 3059 1300 
Q 3059 672 2604 297 
Q 2150 -78 1450 -78 
Q 806 -78 416 169 
L 416 719 
z
" transform="scale(0.015625)"/>
       </defs>
       <use xlink:href="#MalgunGothic-2d"/>
       <use xlink:href="#MalgunGothic-33" transform="translate(41.015625 0)"/>
      </g>
     </g>
    </g>
    <g id="xtick_3">
     <g id="line2d_5">
      <path d="M 123.108906 362.026719 
L 123.108906 29.386719 
" clip-path="url(#p8d7e826c6e)" style="fill: none; stroke-dasharray: 0.8,1.32; stroke-dashoffset: 0; stroke: #b0b0b0; stroke-opacity: 0.5; stroke-width: 0.8"/>
     </g>
     <g id="line2d_6">
      <g>
       <use xlink:href="#mf186e0219e" x="123.108906" y="362.026719" style="stroke: #000000; stroke-width: 0.8"/>
      </g>
     </g>
     <g id="text_3">
      <!-- -2 -->
      <g transform="translate(118.304219 376.618906) scale(0.1 -0.1)">
       <defs>
        <path id="MalgunGothic-32" d="M 2519 3372 
Q 2519 3784 2275 4018 
Q 2031 4253 1628 4253 
Q 1341 4253 1053 4104 
Q 766 3956 534 3697 
L 534 4234 
Q 981 4675 1691 4675 
Q 2281 4675 2642 4334 
Q 3003 3994 3003 3416 
Q 3003 2919 2772 2545 
Q 2541 2172 1984 1775 
Q 1459 1406 1254 1215 
Q 1050 1025 967 854 
Q 884 684 884 450 
L 3116 450 
L 3116 0 
L 356 0 
L 356 225 
Q 356 603 461 870 
Q 566 1138 811 1392 
Q 1056 1647 1597 2022 
Q 2091 2363 2305 2670 
Q 2519 2978 2519 3372 
z
" transform="scale(0.015625)"/>
       </defs>
       <use xlink:href="#MalgunGothic-2d"/>
       <use xlink:href="#MalgunGothic-32" transform="translate(41.015625 0)"/>
      </g>
     </g>
    </g>
    <g id="xtick_4">
     <g id="line2d_7">
      <path d="M 164.688906 362.026719 
L 164.688906 29.386719 
" clip-path="url(#p8d7e826c6e)" style="fill: none; stroke-dasharray: 0.8,1.32; stroke-dashoffset: 0; stroke: #b0b0b0; stroke-opacity: 0.5; stroke-width: 0.8"/>
     </g>
     <g id="line2d_8">
      <g>
       <use xlink:href="#mf186e0219e" x="164.688906" y="362.026719" style="stroke: #000000; stroke-width: 0.8"/>
      </g>
     </g>
     <g id="text_4">
      <!-- -1 -->
      <g transform="translate(159.884219 376.618906) scale(0.1 -0.1)">
       <defs>
        <path id="MalgunGothic-31" d="M 2231 0 
L 1734 0 
L 1734 3972 
Q 1591 3828 1266 3661 
Q 941 3494 672 3428 
L 672 3959 
Q 1016 4056 1409 4275 
Q 1803 4494 2031 4700 
L 2231 4700 
L 2231 0 
z
" transform="scale(0.015625)"/>
       </defs>
       <use xlink:href="#MalgunGothic-2d"/>
       <use xlink:href="#MalgunGothic-31" transform="translate(41.015625 0)"/>
      </g>
     </g>
    </g>
    <g id="xtick_5">
     <g id="line2d_9">
      <path d="M 206.268906 362.026719 
L 206.268906 29.386719 
" clip-path="url(#p8d7e826c6e)" style="fill: none; stroke-dasharray: 0.8,1.32; stroke-dashoffset: 0; stroke: #b0b0b0; stroke-opacity: 0.5; stroke-width: 0.8"/>
     </g>
     <g id="line2d_10">
      <g>
       <use xlink:href="#mf186e0219e" x="206.268906" y="362.026719" style="stroke: #000000; stroke-width: 0.8"/>
      </g>
     </g>
     <g id="text_5">
      <!-- 0 -->
      <g transform="translate(203.515 376.618906) scale(0.1 -0.1)">
       <defs>
        <path id="MalgunGothic-30" d="M 278 2206 
Q 278 3425 675 4050 
Q 1072 4675 1819 4675 
Q 3253 4675 3253 2319 
Q 3253 1156 2854 539 
Q 2456 -78 1716 -78 
Q 1016 -78 647 520 
Q 278 1119 278 2206 
z
M 784 2231 
Q 784 344 1769 344 
Q 2747 344 2747 2259 
Q 2747 4250 1794 4250 
Q 784 4250 784 2231 
z
" transform="scale(0.015625)"/>
       </defs>
       <use xlink:href="#MalgunGothic-30"/>
      </g>
     </g>
    </g>
    <g id="xtick_6">
     <g id="line2d_11">
      <path d="M 247.848906 362.026719 
L 247.848906 29.386719 
" clip-path="url(#p8d7e826c6e)" style="fill: none; stroke-dasharray: 0.8,1.32; stroke-dashoffset: 0; stroke: #b0b0b0; stroke-opacity: 0.5; stroke-width: 0.8"/>
     </g>
     <g id="line2d_12">
      <g>
       <use xlink:href="#mf186e0219e" x="247.848906" y="362.026719" style="stroke: #000000; stroke-width: 0.8"/>
      </g>
     </g>
     <g id="text_6">
      <!-- 1 -->
      <g transform="translate(245.095 376.618906) scale(0.1 -0.1)">
       <use xlink:href="#MalgunGothic-31"/>
      </g>
     </g>
    </g>
    <g id="xtick_7">
     <g id="line2d_13">
      <path d="M 289.428906 362.026719 
L 289.428906 29.386719 
" clip-path="url(#p8d7e826c6e)" style="fill: none; stroke-dasharray: 0.8,1.32; stroke-dashoffset: 0; stroke: #b0b0b0; stroke-opacity: 0.5; stroke-width: 0.8"/>
     </g>
     <g id="line2d_14">
      <g>
       <use xlink:href="#mf186e0219e" x="289.428906" y="362.026719" style="stroke: #000000; stroke-width: 0.8"/>
      </g>
     </g>
     <g id="text_7">
      <!-- 2 -->
      <g transform="translate(286.675 376.618906) scale(0.1 -0.1)">
       <use xlink:href="#MalgunGothic-32"/>
      </g>
     </g>
    </g>
    <g id="xtick_8">
     <g id="line2d_15">
      <path d="M 331.008906 362.026719 
L 331.008906 29.386719 
" clip-path="url(#p8d7e826c6e)" style="fill: none; stroke-dasharray: 0.8,1.32; stroke-dashoffset: 0; stroke: #b0b0b0; stroke-opacity: 0.5; stroke-width: 0.8"/>
     </g>
     <g id="line2d_16">
      <g>
       <use xlink:href="#mf186e0219e" x="331.008906" y="362.026719" style="stroke: #000000; stroke-width: 0.8"/>
      </g>
     </g>
     <g id="text_8">
      <!-- 3 -->
      <g transform="translate(328.255 376.618906) scale(0.1 -0.1)">
       <use xlink:href="#MalgunGothic-33"/>
      </g>
     </g>
    </g>
    <g id="xtick_9">
     <g id="line2d_17">
      <path d="M 372.588906 362.026719 
L 372.588906 29.386719 
" clip-path="url(#p8d7e826c6e)" style="fill: none; stroke-dasharray: 0.8,1.32; stroke-dashoffset: 0; stroke: #b0b0b0; stroke-opacity: 0.5; stroke-width: 0.8"/>
     </g>
     <g id="line2d_18">
      <g>
       <use xlink:href="#mf186e0219e" x="372.588906" y="362.026719" style="stroke: #000000; stroke-width: 0.8"/>
      </g>
     </g>
     <g id="text_9">
      <!-- 4 -->
      <g transform="translate(369.835 376.618906) scale(0.1 -0.1)">
       <use xlink:href="#MalgunGothic-34"/>
      </g>
     </g>
    </g>
    <g id="text_10">
     <!-- Real (실수축) -->
     <g transform="translate(174.137734 391.6575) scale(0.11 -0.11)">
      <defs>
       <path id="MalgunGothic-52" d="M 3866 0 
L 3259 0 
L 2488 1294 
Q 2241 1706 2044 1837 
Q 1847 1969 1569 1969 
L 1113 1969 
L 1113 0 
L 609 0 
L 609 4600 
L 1963 4600 
Q 2597 4600 2970 4272 
Q 3344 3944 3344 3375 
Q 3344 2422 2325 2138 
L 2325 2125 
Q 2519 2041 2645 1902 
Q 2772 1763 3006 1381 
L 3866 0 
z
M 1113 4128 
L 1113 2438 
L 1866 2438 
Q 2291 2438 2552 2686 
Q 2813 2934 2813 3334 
Q 2813 3709 2570 3918 
Q 2328 4128 1872 4128 
L 1113 4128 
z
" transform="scale(0.015625)"/>
       <path id="MalgunGothic-65" d="M 3156 1519 
L 828 1519 
Q 844 950 1133 648 
Q 1422 347 1909 347 
Q 2472 347 2934 719 
L 2934 244 
Q 2494 -78 1794 -78 
Q 1100 -78 708 376 
Q 316 831 316 1634 
Q 316 2381 747 2870 
Q 1178 3359 1816 3359 
Q 2453 3359 2804 2942 
Q 3156 2525 3156 1788 
L 3156 1519 
z
M 2644 1956 
Q 2644 2416 2423 2675 
Q 2203 2934 1809 2934 
Q 1438 2934 1169 2667 
Q 900 2400 834 1956 
L 2644 1956 
z
" transform="scale(0.015625)"/>
       <path id="MalgunGothic-61" d="M 616 3050 
Q 1097 3359 1722 3359 
Q 2866 3359 2866 2147 
L 2866 0 
L 2369 0 
L 2369 516 
L 2350 516 
Q 2009 -78 1341 -78 
Q 859 -78 576 180 
Q 294 438 294 869 
Q 294 1784 1375 1934 
L 2366 2078 
Q 2366 2934 1684 2934 
Q 1084 2934 616 2525 
L 616 3050 
z
M 1563 1559 
Q 1178 1509 993 1371 
Q 809 1234 809 903 
Q 809 653 986 500 
Q 1163 347 1450 347 
Q 1847 347 2106 628 
Q 2366 909 2366 1334 
L 2366 1666 
L 1563 1559 
z
" transform="scale(0.015625)"/>
       <path id="MalgunGothic-6c" d="M 541 0 
L 541 4859 
L 1034 4859 
L 1034 0 
L 541 0 
z
" transform="scale(0.015625)"/>
       <path id="MalgunGothic-20" transform="scale(0.015625)"/>
       <path id="MalgunGothic-28" d="M 1438 -1044 
Q 447 88 447 1753 
Q 447 3431 1438 4600 
L 1888 4600 
Q 878 3372 878 1759 
Q 878 153 1881 -1044 
L 1438 -1044 
z
" transform="scale(0.015625)"/>
       <path id="MalgunGothic-c2e4" d="M 4878 2450 
L 4878 5466 
L 5344 5466 
L 5344 2450 
L 4878 2450 
z
M 3653 2663 
Q 3266 2828 2845 3203 
Q 2425 3578 2241 3938 
Q 1884 3125 800 2509 
L 469 2822 
Q 1178 3159 1590 3681 
Q 2003 4203 2003 4813 
L 2003 5331 
L 2456 5331 
L 2456 4813 
Q 2456 4219 2907 3717 
Q 3359 3216 3969 3003 
L 3653 2663 
z
M 1631 -422 
L 1631 1069 
L 4884 1069 
L 4884 1716 
L 1631 1716 
L 1631 2131 
L 5344 2131 
L 5344 666 
L 2094 666 
L 2094 -6 
L 5509 -6 
L 5509 -422 
L 1631 -422 
z
" transform="scale(0.015625)"/>
       <path id="MalgunGothic-c218" d="M 5491 2994 
Q 4750 3097 4078 3498 
Q 3406 3900 3200 4275 
Q 2975 3891 2309 3491 
Q 1644 3091 922 2956 
L 634 3347 
Q 1559 3450 2261 3942 
Q 2963 4434 2963 5013 
L 2963 5275 
L 3431 5275 
L 3431 5013 
Q 3431 4431 4118 3948 
Q 4806 3466 5766 3378 
L 5491 2994 
z
M 3431 1838 
L 3431 -563 
L 2963 -563 
L 2963 1838 
L 403 1838 
L 403 2253 
L 5997 2253 
L 5997 1838 
L 3431 1838 
z
" transform="scale(0.015625)"/>
       <path id="MalgunGothic-cd95" d="M 5466 3116 
Q 4794 3184 4103 3512 
Q 3413 3841 3206 4141 
Q 2972 3816 2308 3505 
Q 1644 3194 966 3122 
L 697 3547 
Q 1359 3547 2046 3836 
Q 2734 4125 2919 4538 
L 1056 4538 
L 1056 4953 
L 2969 4953 
L 2969 5516 
L 3444 5516 
L 3444 4953 
L 5344 4953 
L 5344 4538 
L 3481 4538 
Q 3669 4119 4353 3836 
Q 5038 3553 5703 3553 
L 5466 3116 
z
M 4609 -563 
L 4609 1075 
L 1197 1075 
L 1197 1491 
L 2963 1491 
L 2963 2222 
L 403 2222 
L 403 2644 
L 5997 2644 
L 5997 2222 
L 3438 2222 
L 3438 1491 
L 5075 1491 
L 5075 -563 
L 4609 -563 
z
" transform="scale(0.015625)"/>
       <path id="MalgunGothic-29" d="M 81 -1044 
Q 1081 150 1081 1759 
Q 1081 3378 72 4600 
L 525 4600 
Q 1522 3431 1522 1753 
Q 1522 88 525 -1044 
L 81 -1044 
z
" transform="scale(0.015625)"/>
      </defs>
      <use xlink:href="#MalgunGothic-52"/>
      <use xlink:href="#MalgunGothic-65" transform="translate(57.986328 0)"/>
      <use xlink:href="#MalgunGothic-61" transform="translate(111.501953 0)"/>
      <use xlink:href="#MalgunGothic-6c" transform="translate(163.503906 0)"/>
      <use xlink:href="#MalgunGothic-20" transform="translate(188.113281 0)"/>
      <use xlink:href="#MalgunGothic-28" transform="translate(223.269531 0)"/>
      <use xlink:href="#MalgunGothic-c2e4" transform="translate(253.738281 0)"/>
      <use xlink:href="#MalgunGothic-c218" transform="translate(353.738281 0)"/>
      <use xlink:href="#MalgunGothic-cd95" transform="translate(453.738281 0)"/>
      <use xlink:href="#MalgunGothic-29" transform="translate(553.738281 0)"/>
     </g>
    </g>
   </g>
   <g id="matplotlib.axis_2">
    <g id="ytick_1">
     <g id="line2d_19">
      <path d="M 39.948906 362.026719 
L 372.588906 362.026719 
" clip-path="url(#p8d7e826c6e)" style="fill: none; stroke-dasharray: 0.8,1.32; stroke-dashoffset: 0; stroke: #b0b0b0; stroke-opacity: 0.5; stroke-width: 0.8"/>
     </g>
     <g id="line2d_20">
      <defs>
       <path id="m7cc18d77e1" d="M 0 0 
L -3.5 0 
" style="stroke: #000000; stroke-width: 0.8"/>
      </defs>
      <g>
       <use xlink:href="#m7cc18d77e1" x="39.948906" y="362.026719" style="stroke: #000000; stroke-width: 0.8"/>
      </g>
     </g>
     <g id="text_11">
      <!-- -4 -->
      <g transform="translate(23.339531 365.822812) scale(0.1 -0.1)">
       <use xlink:href="#MalgunGothic-2d"/>
       <use xlink:href="#MalgunGothic-34" transform="translate(41.015625 0)"/>
      </g>
     </g>
    </g>
    <g id="ytick_2">
     <g id="line2d_21">
      <path d="M 39.948906 320.446719 
L 372.588906 320.446719 
" clip-path="url(#p8d7e826c6e)" style="fill: none; stroke-dasharray: 0.8,1.32; stroke-dashoffset: 0; stroke: #b0b0b0; stroke-opacity: 0.5; stroke-width: 0.8"/>
     </g>
     <g id="line2d_22">
      <g>
       <use xlink:href="#m7cc18d77e1" x="39.948906" y="320.446719" style="stroke: #000000; stroke-width: 0.8"/>
      </g>
     </g>
     <g id="text_12">
      <!-- -3 -->
      <g transform="translate(23.339531 324.242813) scale(0.1 -0.1)">
       <use xlink:href="#MalgunGothic-2d"/>
       <use xlink:href="#MalgunGothic-33" transform="translate(41.015625 0)"/>
      </g>
     </g>
    </g>
    <g id="ytick_3">
     <g id="line2d_23">
      <path d="M 39.948906 278.866719 
L 372.588906 278.866719 
" clip-path="url(#p8d7e826c6e)" style="fill: none; stroke-dasharray: 0.8,1.32; stroke-dashoffset: 0; stroke: #b0b0b0; stroke-opacity: 0.5; stroke-width: 0.8"/>
     </g>
     <g id="line2d_24">
      <g>
       <use xlink:href="#m7cc18d77e1" x="39.948906" y="278.866719" style="stroke: #000000; stroke-width: 0.8"/>
      </g>
     </g>
     <g id="text_13">
      <!-- -2 -->
      <g transform="translate(23.339531 282.662813) scale(0.1 -0.1)">
       <use xlink:href="#MalgunGothic-2d"/>
       <use xlink:href="#MalgunGothic-32" transform="translate(41.015625 0)"/>
      </g>
     </g>
    </g>
    <g id="ytick_4">
     <g id="line2d_25">
      <path d="M 39.948906 237.286719 
L 372.588906 237.286719 
" clip-path="url(#p8d7e826c6e)" style="fill: none; stroke-dasharray: 0.8,1.32; stroke-dashoffset: 0; stroke: #b0b0b0; stroke-opacity: 0.5; stroke-width: 0.8"/>
     </g>
     <g id="line2d_26">
      <g>
       <use xlink:href="#m7cc18d77e1" x="39.948906" y="237.286719" style="stroke: #000000; stroke-width: 0.8"/>
      </g>
     </g>
     <g id="text_14">
      <!-- -1 -->
      <g transform="translate(23.339531 241.082813) scale(0.1 -0.1)">
       <use xlink:href="#MalgunGothic-2d"/>
       <use xlink:href="#MalgunGothic-31" transform="translate(41.015625 0)"/>
      </g>
     </g>
    </g>
    <g id="ytick_5">
     <g id="line2d_27">
      <path d="M 39.948906 195.706719 
L 372.588906 195.706719 
" clip-path="url(#p8d7e826c6e)" style="fill: none; stroke-dasharray: 0.8,1.32; stroke-dashoffset: 0; stroke: #b0b0b0; stroke-opacity: 0.5; stroke-width: 0.8"/>
     </g>
     <g id="line2d_28">
      <g>
       <use xlink:href="#m7cc18d77e1" x="39.948906" y="195.706719" style="stroke: #000000; stroke-width: 0.8"/>
      </g>
     </g>
     <g id="text_15">
      <!-- 0 -->
      <g transform="translate(27.441094 199.502813) scale(0.1 -0.1)">
       <use xlink:href="#MalgunGothic-30"/>
      </g>
     </g>
    </g>
    <g id="ytick_6">
     <g id="line2d_29">
      <path d="M 39.948906 154.126719 
L 372.588906 154.126719 
" clip-path="url(#p8d7e826c6e)" style="fill: none; stroke-dasharray: 0.8,1.32; stroke-dashoffset: 0; stroke: #b0b0b0; stroke-opacity: 0.5; stroke-width: 0.8"/>
     </g>
     <g id="line2d_30">
      <g>
       <use xlink:href="#m7cc18d77e1" x="39.948906" y="154.126719" style="stroke: #000000; stroke-width: 0.8"/>
      </g>
     </g>
     <g id="text_16">
      <!-- 1 -->
      <g transform="translate(27.441094 157.922813) scale(0.1 -0.1)">
       <use xlink:href="#MalgunGothic-31"/>
      </g>
     </g>
    </g>
    <g id="ytick_7">
     <g id="line2d_31">
      <path d="M 39.948906 112.546719 
L 372.588906 112.546719 
" clip-path="url(#p8d7e826c6e)" style="fill: none; stroke-dasharray: 0.8,1.32; stroke-dashoffset: 0; stroke: #b0b0b0; stroke-opacity: 0.5; stroke-width: 0.8"/>
     </g>
     <g id="line2d_32">
      <g>
       <use xlink:href="#m7cc18d77e1" x="39.948906" y="112.546719" style="stroke: #000000; stroke-width: 0.8"/>
      </g>
     </g>
     <g id="text_17">
      <!-- 2 -->
      <g transform="translate(27.441094 116.342813) scale(0.1 -0.1)">
       <use xlink:href="#MalgunGothic-32"/>
      </g>
     </g>
    </g>
    <g id="ytick_8">
     <g id="line2d_33">
      <path d="M 39.948906 70.966719 
L 372.588906 70.966719 
" clip-path="url(#p8d7e826c6e)" style="fill: none; stroke-dasharray: 0.8,1.32; stroke-dashoffset: 0; stroke: #b0b0b0; stroke-opacity: 0.5; stroke-width: 0.8"/>
     </g>
     <g id="line2d_34">
      <g>
       <use xlink:href="#m7cc18d77e1" x="39.948906" y="70.966719" style="stroke: #000000; stroke-width: 0.8"/>
      </g>
     </g>
     <g id="text_18">
      <!-- 3 -->
      <g transform="translate(27.441094 74.762813) scale(0.1 -0.1)">
       <use xlink:href="#MalgunGothic-33"/>
      </g>
     </g>
    </g>
    <g id="ytick_9">
     <g id="line2d_35">
      <path d="M 39.948906 29.386719 
L 372.588906 29.386719 
" clip-path="url(#p8d7e826c6e)" style="fill: none; stroke-dasharray: 0.8,1.32; stroke-dashoffset: 0; stroke: #b0b0b0; stroke-opacity: 0.5; stroke-width: 0.8"/>
     </g>
     <g id="line2d_36">
      <g>
       <use xlink:href="#m7cc18d77e1" x="39.948906" y="29.386719" style="stroke: #000000; stroke-width: 0.8"/>
      </g>
     </g>
     <g id="text_19">
      <!-- 4 -->
      <g transform="translate(27.441094 33.182813) scale(0.1 -0.1)">
       <use xlink:href="#MalgunGothic-34"/>
      </g>
     </g>
    </g>
    <g id="text_20">
     <!-- Imaginary (허수축) -->
     <g transform="translate(16.680625 242.275391) rotate(-90) scale(0.11 -0.11)">
      <defs>
       <path id="MalgunGothic-49" d="M 1116 0 
L 613 0 
L 613 4600 
L 1116 4600 
L 1116 0 
z
" transform="scale(0.015625)"/>
       <path id="MalgunGothic-6d" d="M 5166 0 
L 4669 0 
L 4669 1884 
Q 4669 2463 4495 2702 
Q 4322 2941 3922 2941 
Q 3584 2941 3342 2623 
Q 3100 2306 3100 1875 
L 3100 0 
L 2606 0 
L 2606 1953 
Q 2606 2941 1844 2941 
Q 1497 2941 1265 2642 
Q 1034 2344 1034 1875 
L 1034 0 
L 538 0 
L 538 3284 
L 1034 3284 
L 1034 2763 
L 1047 2763 
Q 1391 3359 2063 3359 
Q 2381 3359 2636 3176 
Q 2891 2994 2991 2675 
Q 3356 3359 4081 3359 
Q 5166 3359 5166 2022 
L 5166 0 
z
" transform="scale(0.015625)"/>
       <path id="MalgunGothic-67" d="M 3313 259 
Q 3313 -1547 1603 -1547 
Q 1003 -1547 538 -1313 
L 538 -806 
Q 1088 -1116 1600 -1116 
Q 2822 -1116 2822 194 
L 2822 559 
L 2809 559 
Q 2422 -78 1675 -78 
Q 1066 -78 691 362 
Q 316 803 316 1534 
Q 316 2375 722 2867 
Q 1128 3359 1816 3359 
Q 2484 3359 2809 2822 
L 2822 2822 
L 2822 3284 
L 3313 3284 
L 3313 259 
z
M 2822 1978 
Q 2822 2378 2547 2659 
Q 2272 2941 1878 2941 
Q 1384 2941 1101 2577 
Q 819 2213 819 1572 
Q 819 1016 1092 680 
Q 1366 344 1803 344 
Q 2247 344 2534 666 
Q 2822 988 2822 1478 
L 2822 1978 
z
" transform="scale(0.015625)"/>
       <path id="MalgunGothic-69" d="M 472 4466 
Q 472 4606 565 4701 
Q 659 4797 794 4797 
Q 934 4797 1029 4700 
Q 1125 4603 1125 4466 
Q 1125 4325 1029 4231 
Q 934 4138 794 4138 
Q 659 4138 565 4230 
Q 472 4322 472 4466 
z
M 541 0 
L 541 3284 
L 1034 3284 
L 1034 0 
L 541 0 
z
" transform="scale(0.015625)"/>
       <path id="MalgunGothic-6e" d="M 3238 0 
L 2741 0 
L 2741 1875 
Q 2741 2941 1963 2941 
Q 1563 2941 1298 2639 
Q 1034 2338 1034 1872 
L 1034 0 
L 538 0 
L 538 3284 
L 1034 3284 
L 1034 2734 
L 1047 2734 
Q 1416 3359 2125 3359 
Q 2666 3359 2952 3012 
Q 3238 2666 3238 2006 
L 3238 0 
z
" transform="scale(0.015625)"/>
       <path id="MalgunGothic-72" d="M 2225 2775 
Q 2084 2881 1828 2881 
Q 1491 2881 1262 2553 
Q 1034 2225 1034 1681 
L 1034 0 
L 538 0 
L 538 3284 
L 1034 3284 
L 1034 2603 
L 1047 2603 
Q 1159 2950 1389 3145 
Q 1619 3341 1903 3341 
Q 2109 3341 2225 3297 
L 2225 2775 
z
" transform="scale(0.015625)"/>
       <path id="MalgunGothic-79" d="M 3119 3284 
L 1597 -544 
Q 1197 -1547 481 -1547 
Q 313 -1547 156 -1509 
L 156 -1056 
Q 316 -1109 459 -1109 
Q 859 -1109 1059 -628 
L 1328 6 
L 47 3284 
L 597 3284 
L 1503 722 
Q 1513 697 1572 488 
L 1588 488 
L 1650 716 
L 2603 3284 
L 3119 3284 
z
" transform="scale(0.015625)"/>
       <path id="MalgunGothic-d5c8" d="M 4941 -563 
L 4941 2272 
L 3884 2272 
L 3884 2688 
L 4941 2688 
L 4941 5466 
L 5409 5466 
L 5409 -563 
L 4941 -563 
z
M 422 4072 
L 422 4488 
L 2003 4488 
L 2003 5453 
L 2478 5453 
L 2478 4488 
L 4063 4488 
L 4063 4072 
L 422 4072 
z
M 2181 903 
Q 1519 903 1111 1300 
Q 703 1697 703 2284 
Q 703 2881 1109 3278 
Q 1516 3675 2181 3675 
Q 2847 3675 3253 3278 
Q 3659 2881 3659 2284 
Q 3659 1697 3251 1300 
Q 2844 903 2181 903 
z
M 2181 3263 
Q 1731 3263 1442 2978 
Q 1153 2694 1153 2284 
Q 1153 1878 1442 1595 
Q 1731 1313 2181 1313 
Q 2634 1313 2923 1595 
Q 3213 1878 3213 2284 
Q 3213 2694 2925 2978 
Q 2638 3263 2181 3263 
z
" transform="scale(0.015625)"/>
      </defs>
      <use xlink:href="#MalgunGothic-49"/>
      <use xlink:href="#MalgunGothic-6d" transform="translate(27.001953 0)"/>
      <use xlink:href="#MalgunGothic-61" transform="translate(114.990234 0)"/>
      <use xlink:href="#MalgunGothic-67" transform="translate(166.992188 0)"/>
      <use xlink:href="#MalgunGothic-69" transform="translate(227.197266 0)"/>
      <use xlink:href="#MalgunGothic-6e" transform="translate(251.806641 0)"/>
      <use xlink:href="#MalgunGothic-61" transform="translate(309.619141 0)"/>
      <use xlink:href="#MalgunGothic-72" transform="translate(361.621094 0)"/>
      <use xlink:href="#MalgunGothic-79" transform="translate(401.347656 0)"/>
      <use xlink:href="#MalgunGothic-20" transform="translate(450.615234 0)"/>
      <use xlink:href="#MalgunGothic-28" transform="translate(485.771484 0)"/>
      <use xlink:href="#MalgunGothic-d5c8" transform="translate(516.240234 0)"/>
      <use xlink:href="#MalgunGothic-c218" transform="translate(616.240234 0)"/>
      <use xlink:href="#MalgunGothic-cd95" transform="translate(716.240234 0)"/>
      <use xlink:href="#MalgunGothic-29" transform="translate(816.240234 0)"/>
     </g>
    </g>
   </g>
   <g id="line2d_37">
    <path d="M 39.948906 195.706719 
L 372.588906 195.706719 
" clip-path="url(#p8d7e826c6e)" style="fill: none; stroke: #888888; stroke-width: 0.8; stroke-linecap: square"/>
   </g>
   <g id="line2d_38">
    <path d="M 206.268906 362.026719 
L 206.268906 29.386719 
" clip-path="url(#p8d7e826c6e)" style="fill: none; stroke: #888888; stroke-width: 0.8; stroke-linecap: square"/>
   </g>
   <g id="line2d_39">
    <defs>
     <path id="m18c10fa9e8" d="M 0 5 
C 1.326016 5 2.597899 4.473168 3.535534 3.535534 
C 4.473168 2.597899 5 1.326016 5 0 
C 5 -1.326016 4.473168 -2.597899 3.535534 -3.535534 
C 2.597899 -4.473168 1.326016 -5 0 -5 
C -1.326016 -5 -2.597899 -4.473168 -3.535534 -3.535534 
C -4.473168 -2.597899 -5 -1.326016 -5 0 
C -5 1.326016 -4.473168 2.597899 -3.535534 3.535534 
C -2.597899 4.473168 -1.326016 5 0 5 
z
" style="stroke: #d62728"/>
    </defs>
    <g clip-path="url(#p8d7e826c6e)">
     <use xlink:href="#m18c10fa9e8" x="294.473406" y="107.502219" style="fill: #d62728; stroke: #d62728"/>
    </g>
   </g>
   <g id="line2d_40">
    <path d="M 235.374906 195.706719 
L 235.364233 194.918546 
L 235.33222 194.130952 
L 235.278891 193.344513 
L 235.204286 192.559807 
L 235.108458 191.777408 
L 234.991479 190.997892 
L 234.853434 190.221829 
L 234.694424 189.449789 
L 234.514566 188.682338 
L 234.313992 187.920039 
L 234.092849 187.163451 
L 233.851299 186.413128 
L 233.58952 185.669622 
L 233.307703 184.933478 
L 233.006054 184.205234 
L 232.684796 183.485427 
L 232.344164 182.774582 
L 231.984408 182.073223 
L 231.605791 181.381862 
L 231.208591 180.701008 
L 230.7931 180.03116 
L 230.359622 179.372808 
L 229.908476 178.726436 
L 229.439991 178.092518 
L 228.954512 177.471519 
L 228.452395 176.863894 
L 227.934008 176.270088 
L 227.399731 175.690538 
L 226.849956 175.125669 
" clip-path="url(#p8d7e826c6e)" style="fill: none; stroke: #2ca02c; stroke-width: 2; stroke-linecap: square"/>
   </g>
   <g id="patch_4">
    <path d="M 39.948906 362.026719 
L 39.948906 29.386719 
" style="fill: none; stroke: #000000; stroke-width: 0.8; stroke-linejoin: miter; stroke-linecap: square"/>
   </g>
   <g id="patch_5">
    <path d="M 372.588906 362.026719 
L 372.588906 29.386719 
" style="fill: none; stroke: #000000; stroke-width: 0.8; stroke-linejoin: miter; stroke-linecap: square"/>
   </g>
   <g id="patch_6">
    <path d="M 39.948906 362.026719 
L 372.588906 362.026719 
" style="fill: none; stroke: #000000; stroke-width: 0.8; stroke-linejoin: miter; stroke-linecap: square"/>
   </g>
   <g id="patch_7">
    <path d="M 39.948906 29.386719 
L 372.588906 29.386719 
" style="fill: none; stroke: #000000; stroke-width: 0.8; stroke-linejoin: miter; stroke-linecap: square"/>
   </g>
   <g id="patch_8">
    <path d="M 207.682095 194.29353 
Q 250.371882 151.603743 291.085246 110.890379 
" style="fill: none; stroke: #d62728; stroke-width: 2.5; stroke-linecap: round"/>
    <path d="M 286.842606 112.304592 
L 291.085246 110.890379 
L 289.671033 115.133019 
" style="fill: none; stroke: #d62728; stroke-width: 2.5; stroke-linecap: round"/>
   </g>
   <g id="text_21">
    <!-- $z = re^{i\theta}$ -->
    <g style="fill: #d62728" transform="translate(300.710406 101.265219) scale(0.13 -0.13)">
     <defs>
      <path id="DejaVuSans-Oblique-7a" d="M 744 3500 
L 3475 3500 
L 3372 2975 
L 738 459 
L 2913 459 
L 2822 0 
L -19 0 
L 84 525 
L 2719 3041 
L 653 3041 
L 744 3500 
z
" transform="scale(0.015625)"/>
      <path id="DejaVuSans-3d" d="M 678 2906 
L 4684 2906 
L 4684 2381 
L 678 2381 
L 678 2906 
z
M 678 1631 
L 4684 1631 
L 4684 1100 
L 678 1100 
L 678 1631 
z
" transform="scale(0.015625)"/>
      <path id="DejaVuSans-Oblique-72" d="M 2853 2969 
Q 2766 3016 2653 3041 
Q 2541 3066 2413 3066 
Q 1953 3066 1609 2717 
Q 1266 2369 1153 1784 
L 800 0 
L 225 0 
L 909 3500 
L 1484 3500 
L 1375 2956 
Q 1603 3259 1920 3421 
Q 2238 3584 2597 3584 
Q 2691 3584 2781 3573 
Q 2872 3563 2963 3538 
L 2853 2969 
z
" transform="scale(0.015625)"/>
      <path id="DejaVuSans-Oblique-65" d="M 3078 2063 
Q 3088 2113 3092 2166 
Q 3097 2219 3097 2272 
Q 3097 2653 2873 2875 
Q 2650 3097 2266 3097 
Q 1838 3097 1509 2826 
Q 1181 2556 1013 2059 
L 3078 2063 
z
M 3578 1613 
L 903 1613 
Q 884 1494 878 1425 
Q 872 1356 872 1306 
Q 872 872 1139 634 
Q 1406 397 1894 397 
Q 2269 397 2603 481 
Q 2938 566 3225 728 
L 3116 159 
Q 2806 34 2476 -28 
Q 2147 -91 1806 -91 
Q 1078 -91 686 257 
Q 294 606 294 1247 
Q 294 1794 489 2264 
Q 684 2734 1063 3103 
Q 1306 3334 1642 3459 
Q 1978 3584 2356 3584 
Q 2950 3584 3301 3228 
Q 3653 2872 3653 2272 
Q 3653 2128 3634 1964 
Q 3616 1800 3578 1613 
z
" transform="scale(0.015625)"/>
      <path id="DejaVuSans-Oblique-69" d="M 1172 4863 
L 1747 4863 
L 1606 4134 
L 1031 4134 
L 1172 4863 
z
M 909 3500 
L 1484 3500 
L 800 0 
L 225 0 
L 909 3500 
z
" transform="scale(0.015625)"/>
      <path id="DejaVuSans-Oblique-3b8" d="M 2913 2219 
L 925 2219 
Q 791 1284 928 888 
Q 1100 400 1566 400 
Q 2034 400 2391 891 
Q 2703 1322 2913 2219 
z
M 3009 2750 
Q 3094 3638 2984 3950 
Q 2813 4444 2353 4444 
Q 1875 4444 1525 3956 
Q 1250 3563 1034 2750 
L 3009 2750 
z
M 2444 4913 
Q 3194 4913 3494 4250 
Q 3794 3591 3566 2422 
Q 3341 1256 2781 594 
Q 2225 -72 1475 -72 
Q 722 -72 425 594 
Q 128 1256 353 2422 
Q 581 3591 1134 4250 
Q 1691 4913 2444 4913 
z
" transform="scale(0.015625)"/>
     </defs>
     <use xlink:href="#DejaVuSans-Oblique-7a" transform="translate(0 0.982812)"/>
     <use xlink:href="#DejaVuSans-3d" transform="translate(71.972656 0.982812)"/>
     <use xlink:href="#DejaVuSans-Oblique-72" transform="translate(175.244141 0.982812)"/>
     <use xlink:href="#DejaVuSans-Oblique-65" transform="translate(216.357422 0.982812)"/>
     <use xlink:href="#DejaVuSans-Oblique-69" transform="translate(282.530755 39.264062) scale(0.7)"/>
     <use xlink:href="#DejaVuSans-Oblique-3b8" transform="translate(301.978997 39.264062) scale(0.7)"/>
    </g>
   </g>
   <g id="text_22">
    <!-- r -->
    <g style="fill: #d62728" transform="translate(233.739156 147.446469) scale(0.14 -0.14)">
     <defs>
      <path id="MalgunGothicBold-72" d="M 2472 2481 
Q 2300 2584 2050 2584 
Q 1722 2584 1525 2317 
Q 1328 2050 1328 1600 
L 1328 0 
L 456 0 
L 456 3284 
L 1328 3284 
L 1328 2653 
L 1338 2653 
Q 1578 3341 2203 3341 
Q 2381 3341 2472 3297 
L 2472 2481 
z
" transform="scale(0.015625)"/>
     </defs>
     <use xlink:href="#MalgunGothicBold-72"/>
    </g>
   </g>
   <g id="text_23">
    <!-- $\theta$ -->
    <g style="fill: #2ca02c" transform="translate(241.611906 183.232719) scale(0.14 -0.14)">
     <use xlink:href="#DejaVuSans-Oblique-3b8" transform="translate(0 0.234375)"/>
    </g>
   </g>
   <g id="text_24">
    <!-- $r$ = 크기 (Magnitude) -->
    <g style="fill: #555555" transform="translate(69.054906 320.446719) scale(0.1 -0.1)">
     <defs>
      <path id="MalgunGothic-3d" d="M 3750 2397 
L 744 2397 
L 744 2803 
L 3750 2803 
L 3750 2397 
z
M 3750 1031 
L 744 1031 
L 744 1441 
L 3750 1441 
L 3750 1031 
z
" transform="scale(0.015625)"/>
      <path id="MalgunGothic-d06c" d="M 403 550 
L 403 966 
L 4494 966 
Q 4584 1969 4609 2791 
L 972 2600 
L 872 3059 
L 4616 3188 
L 4616 4475 
L 1178 4475 
L 1178 4891 
L 5075 4891 
L 5075 3138 
Q 5075 2347 4947 966 
L 5997 966 
L 5997 550 
L 403 550 
z
" transform="scale(0.015625)"/>
      <path id="MalgunGothic-ae30" d="M 4884 -563 
L 4884 5466 
L 5350 5466 
L 5350 -563 
L 4884 -563 
z
M 3675 4909 
Q 3653 3656 2956 2611 
Q 2259 1566 959 844 
L 603 1222 
Q 1559 1619 2293 2478 
Q 3028 3338 3175 4494 
L 850 4494 
L 850 4909 
L 3675 4909 
z
" transform="scale(0.015625)"/>
      <path id="MalgunGothic-4d" d="M 4756 0 
L 4756 3106 
Q 4756 3466 4803 3994 
L 4788 3994 
Q 4713 3684 4653 3559 
L 3050 0 
L 2822 0 
L 1222 3534 
Q 1159 3669 1091 3994 
L 1075 3994 
Q 1100 3822 1100 3116 
L 1100 0 
L 609 0 
L 609 4600 
L 1269 4600 
L 2706 1359 
Q 2881 966 2922 816 
L 2941 816 
Q 2988 944 3166 1375 
L 4638 4600 
L 5259 4600 
L 5259 0 
L 4756 0 
z
" transform="scale(0.015625)"/>
      <path id="MalgunGothic-74" d="M 2031 31 
Q 1844 -72 1553 -72 
Q 706 -72 706 881 
L 706 2856 
L 138 2856 
L 138 3284 
L 706 3284 
L 706 4091 
L 1200 4250 
L 1200 3284 
L 2031 3284 
L 2031 2856 
L 1200 2856 
L 1200 972 
Q 1200 625 1315 487 
Q 1431 350 1691 350 
Q 1888 350 2031 459 
L 2031 31 
z
" transform="scale(0.015625)"/>
      <path id="MalgunGothic-75" d="M 3166 0 
L 2669 0 
L 2669 519 
L 2656 519 
Q 2331 -78 1644 -78 
Q 469 -78 469 1322 
L 469 3284 
L 959 3284 
L 959 1403 
Q 959 344 1766 344 
Q 2159 344 2414 636 
Q 2669 928 2669 1394 
L 2669 3284 
L 3166 3284 
L 3166 0 
z
" transform="scale(0.015625)"/>
      <path id="MalgunGothic-64" d="M 3313 0 
L 2822 0 
L 2822 566 
L 2809 566 
Q 2444 -78 1675 -78 
Q 1056 -78 686 364 
Q 316 806 316 1566 
Q 316 2375 728 2867 
Q 1141 3359 1816 3359 
Q 2494 3359 2809 2822 
L 2822 2822 
L 2822 4859 
L 3313 4859 
L 3313 0 
z
M 2822 1978 
Q 2822 2378 2550 2659 
Q 2278 2941 1872 2941 
Q 1384 2941 1101 2577 
Q 819 2213 819 1591 
Q 819 1025 1086 684 
Q 1353 344 1813 344 
Q 2250 344 2536 666 
Q 2822 988 2822 1478 
L 2822 1978 
z
" transform="scale(0.015625)"/>
     </defs>
     <use xlink:href="#DejaVuSans-Oblique-72" transform="translate(0 0.59375)"/>
     <use xlink:href="#MalgunGothic-20" transform="translate(41.113281 0.59375)"/>
     <use xlink:href="#MalgunGothic-3d" transform="translate(76.269531 0.59375)"/>
     <use xlink:href="#MalgunGothic-20" transform="translate(146.337891 0.59375)"/>
     <use xlink:href="#MalgunGothic-d06c" transform="translate(181.494141 0.59375)"/>
     <use xlink:href="#MalgunGothic-ae30" transform="translate(281.494141 0.59375)"/>
     <use xlink:href="#MalgunGothic-20" transform="translate(381.494141 0.59375)"/>
     <use xlink:href="#MalgunGothic-28" transform="translate(416.650391 0.59375)"/>
     <use xlink:href="#MalgunGothic-4d" transform="translate(447.119141 0.59375)"/>
     <use xlink:href="#MalgunGothic-61" transform="translate(538.818359 0.59375)"/>
     <use xlink:href="#MalgunGothic-67" transform="translate(590.820312 0.59375)"/>
     <use xlink:href="#MalgunGothic-6e" transform="translate(651.025391 0.59375)"/>
     <use xlink:href="#MalgunGothic-69" transform="translate(708.837891 0.59375)"/>
     <use xlink:href="#MalgunGothic-74" transform="translate(733.447266 0.59375)"/>
     <use xlink:href="#MalgunGothic-75" transform="translate(767.919922 0.59375)"/>
     <use xlink:href="#MalgunGothic-64" transform="translate(825.732422 0.59375)"/>
     <use xlink:href="#MalgunGothic-65" transform="translate(885.9375 0.59375)"/>
     <use xlink:href="#MalgunGothic-29" transform="translate(939.453125 0.59375)"/>
    </g>
   </g>
   <g id="text_25">
    <!-- $\theta$ = 위상 (Phase) -->
    <g style="fill: #555555" transform="translate(69.054906 332.920719) scale(0.1 -0.1)">
     <defs>
      <path id="MalgunGothic-c704" d="M 4997 -563 
L 4997 5466 
L 5466 5466 
L 5466 -563 
L 4997 -563 
z
M 2491 2784 
Q 1800 2784 1376 3140 
Q 953 3497 953 4038 
Q 953 4581 1376 4940 
Q 1800 5300 2491 5300 
Q 3178 5300 3598 4942 
Q 4019 4584 4019 4038 
Q 4019 3494 3600 3139 
Q 3181 2784 2491 2784 
z
M 2491 4897 
Q 2006 4897 1714 4659 
Q 1422 4422 1422 4038 
Q 1422 3653 1714 3420 
Q 2006 3188 2491 3188 
Q 2978 3188 3265 3422 
Q 3553 3656 3553 4038 
Q 3553 4419 3264 4658 
Q 2975 4897 2491 4897 
z
M 2297 -391 
L 2297 1825 
Q 903 1800 500 1800 
L 453 2209 
Q 3088 2209 4603 2297 
L 4628 1894 
Q 4203 1866 2766 1831 
L 2766 -391 
L 2297 -391 
z
" transform="scale(0.015625)"/>
      <path id="MalgunGothic-c0c1" d="M 5125 3391 
L 5125 1991 
L 4659 1991 
L 4659 5466 
L 5125 5466 
L 5125 3816 
L 6034 3816 
L 6034 3391 
L 5125 3391 
z
M 3603 2316 
Q 3206 2528 2778 2934 
Q 2350 3341 2188 3681 
Q 2022 3291 1609 2852 
Q 1197 2413 750 2163 
L 409 2484 
Q 1072 2806 1512 3397 
Q 1953 3988 1953 4628 
L 1953 5259 
L 2400 5259 
L 2400 4628 
Q 2400 4025 2845 3472 
Q 3291 2919 3909 2656 
L 3603 2316 
z
M 3263 -513 
Q 2322 -513 1811 -186 
Q 1300 141 1300 659 
Q 1300 1175 1812 1500 
Q 2325 1825 3263 1825 
Q 4203 1825 4715 1501 
Q 5228 1178 5228 659 
Q 5228 138 4717 -187 
Q 4206 -513 3263 -513 
z
M 3263 1428 
Q 2563 1428 2180 1215 
Q 1797 1003 1797 659 
Q 1797 309 2181 96 
Q 2566 -116 3263 -116 
Q 3969 -116 4353 98 
Q 4738 313 4738 659 
Q 4738 1000 4353 1214 
Q 3969 1428 3263 1428 
z
" transform="scale(0.015625)"/>
      <path id="MalgunGothic-50" d="M 1113 1747 
L 1113 0 
L 609 0 
L 609 4600 
L 1850 4600 
Q 2575 4600 2979 4240 
Q 3384 3881 3384 3231 
Q 3384 2559 2909 2140 
Q 2434 1722 1728 1747 
L 1113 1747 
z
M 1113 4131 
L 1113 2219 
L 1691 2219 
Q 2256 2219 2554 2475 
Q 2853 2731 2853 3206 
Q 2853 4131 1759 4131 
L 1113 4131 
z
" transform="scale(0.015625)"/>
      <path id="MalgunGothic-68" d="M 3238 0 
L 2744 0 
L 2744 1894 
Q 2744 2941 1963 2941 
Q 1572 2941 1303 2637 
Q 1034 2334 1034 1859 
L 1034 0 
L 538 0 
L 538 4859 
L 1034 4859 
L 1034 2734 
L 1047 2734 
Q 1425 3359 2128 3359 
Q 3238 3359 3238 2022 
L 3238 0 
z
" transform="scale(0.015625)"/>
      <path id="MalgunGothic-73" d="M 331 669 
Q 763 350 1278 350 
Q 1978 350 1978 822 
Q 1978 1025 1825 1158 
Q 1672 1291 1222 1459 
Q 703 1666 520 1878 
Q 338 2091 338 2416 
Q 338 2834 700 3096 
Q 1063 3359 1584 3359 
Q 2003 3359 2341 3213 
L 2341 2697 
Q 1975 2934 1506 2934 
Q 1200 2934 1025 2798 
Q 850 2663 850 2459 
Q 850 2241 979 2125 
Q 1109 2009 1544 1838 
Q 2131 1609 2309 1390 
Q 2488 1172 2488 869 
Q 2488 431 2127 176 
Q 1766 -78 1203 -78 
Q 694 -78 331 122 
L 331 669 
z
" transform="scale(0.015625)"/>
     </defs>
     <use xlink:href="#DejaVuSans-Oblique-3b8" transform="translate(0 0.59375)"/>
     <use xlink:href="#MalgunGothic-20" transform="translate(61.181641 0.59375)"/>
     <use xlink:href="#MalgunGothic-3d" transform="translate(96.337891 0.59375)"/>
     <use xlink:href="#MalgunGothic-20" transform="translate(166.40625 0.59375)"/>
     <use xlink:href="#MalgunGothic-c704" transform="translate(201.5625 0.59375)"/>
     <use xlink:href="#MalgunGothic-c0c1" transform="translate(301.5625 0.59375)"/>
     <use xlink:href="#MalgunGothic-20" transform="translate(401.5625 0.59375)"/>
     <use xlink:href="#MalgunGothic-28" transform="translate(436.71875 0.59375)"/>
     <use xlink:href="#MalgunGothic-50" transform="translate(467.1875 0.59375)"/>
     <use xlink:href="#MalgunGothic-68" transform="translate(524.267578 0.59375)"/>
     <use xlink:href="#MalgunGothic-61" transform="translate(582.128906 0.59375)"/>
     <use xlink:href="#MalgunGothic-73" transform="translate(634.130859 0.59375)"/>
     <use xlink:href="#MalgunGothic-65" transform="translate(677.441406 0.59375)"/>
     <use xlink:href="#MalgunGothic-29" transform="translate(730.957031 0.59375)"/>
    </g>
   </g>
   <g id="text_26">
    <!-- 극좌표: $z = r e^{i\theta}$ -->
    <g transform="translate(160.443906 17.386719) scale(0.13 -0.13)">
     <defs>
      <path id="MalgunGothic-adf9" d="M 403 2644 
L 403 3059 
L 4563 3059 
Q 4634 3800 4634 4819 
L 1338 4819 
L 1338 5234 
L 5100 5234 
Q 5100 3875 5025 3059 
L 5997 3059 
L 5997 2644 
L 403 2644 
z
M 4603 -563 
L 4603 1388 
L 1209 1388 
L 1209 1806 
L 5069 1806 
L 5069 -563 
L 4603 -563 
z
" transform="scale(0.015625)"/>
      <path id="MalgunGothic-c88c" d="M 6222 2566 
L 5234 2566 
L 5234 -563 
L 4769 -563 
L 4769 5466 
L 5234 5466 
L 5234 2981 
L 6222 2981 
L 6222 2566 
z
M 2553 4459 
L 2553 4225 
Q 2553 3853 2997 3368 
Q 3441 2884 4191 2700 
L 3944 2328 
Q 3444 2472 2984 2812 
Q 2525 3153 2338 3519 
Q 2163 3178 1688 2803 
Q 1213 2428 738 2272 
L 459 2650 
Q 1206 2822 1653 3331 
Q 2100 3841 2100 4244 
L 2100 4459 
L 709 4459 
L 709 4884 
L 3944 4884 
L 3944 4459 
L 2553 4459 
z
M 4403 641 
Q 3888 600 2398 562 
Q 909 525 378 525 
L 325 941 
Q 988 928 2125 953 
L 2125 2338 
L 2591 2338 
L 2591 966 
Q 3888 1000 4384 1044 
L 4403 641 
z
" transform="scale(0.015625)"/>
      <path id="MalgunGothic-d45c" d="M 997 4897 
L 5403 4897 
L 5403 4488 
L 997 4488 
L 997 4897 
z
M 4481 2566 
L 5478 2566 
L 5478 2156 
L 4494 2156 
L 4494 756 
L 5997 756 
L 5997 341 
L 403 341 
L 403 756 
L 1906 756 
L 1906 2156 
L 922 2156 
L 922 2566 
L 1919 2566 
L 1844 4172 
L 2303 4172 
L 2381 2566 
L 4019 2566 
L 4097 4172 
L 4556 4172 
L 4481 2566 
z
M 2375 756 
L 4025 756 
L 4025 2156 
L 2375 2156 
L 2375 756 
z
" transform="scale(0.015625)"/>
      <path id="MalgunGothic-3a" d="M 356 3006 
Q 356 3153 459 3254 
Q 563 3356 700 3356 
Q 838 3356 941 3254 
Q 1044 3153 1044 3006 
Q 1044 2863 942 2761 
Q 841 2659 700 2659 
Q 559 2659 457 2761 
Q 356 2863 356 3006 
z
M 356 275 
Q 356 422 459 523 
Q 563 625 700 625 
Q 838 625 941 523 
Q 1044 422 1044 275 
Q 1044 138 942 33 
Q 841 -72 700 -72 
Q 559 -72 457 29 
Q 356 131 356 275 
z
" transform="scale(0.015625)"/>
     </defs>
     <use xlink:href="#MalgunGothic-adf9" transform="translate(0 0.982812)"/>
     <use xlink:href="#MalgunGothic-c88c" transform="translate(100 0.982812)"/>
     <use xlink:href="#MalgunGothic-d45c" transform="translate(200 0.982812)"/>
     <use xlink:href="#MalgunGothic-3a" transform="translate(300 0.982812)"/>
     <use xlink:href="#MalgunGothic-20" transform="translate(321.875 0.982812)"/>
     <use xlink:href="#DejaVuSans-Oblique-7a" transform="translate(357.03125 0.982812)"/>
     <use xlink:href="#DejaVuSans-3d" transform="translate(429.003906 0.982812)"/>
     <use xlink:href="#DejaVuSans-Oblique-72" transform="translate(532.275391 0.982812)"/>
     <use xlink:href="#DejaVuSans-Oblique-65" transform="translate(573.388672 0.982812)"/>
     <use xlink:href="#DejaVuSans-Oblique-69" transform="translate(639.562005 39.264062) scale(0.7)"/>
     <use xlink:href="#DejaVuSans-Oblique-3b8" transform="translate(659.010247 39.264062) scale(0.7)"/>
    </g>
   </g>
  </g>
 </g>
 <defs>
  <clipPath id="p8d7e826c6e">
   <rect x="39.948906" y="29.386719" width="332.64" height="332.64"/>
  </clipPath>
 </defs>
</svg>
